<ttFont>
    <TTGlyph name=".notdef" xMin="88" yMin="-220" xMax="761" yMax="1030">
      <contour>
        <pt x="88" y="1030" on="1"/>
        <pt x="761" y="1030" on="1"/>
        <pt x="761" y="-220" on="1"/>
        <pt x="88" y="-220" on="1"/>
      </contour>
      <contour>
        <pt x="642" y="-108" on="1"/>
        <pt x="642" y="919" on="1"/>
        <pt x="208" y="919" on="1"/>
        <pt x="208" y="-108" on="1"/>
      </contour>
    </TTGlyph>
    <TTGlyph name="A" xMin="2" yMin="0" xMax="760" yMax="740">
      <contour>
        <pt x="2" y="9" on="1"/>
        <pt x="271" y="740" on="1"/>
        <pt x="491" y="740" on="1"/>
        <pt x="760" y="9" on="1"/>
        <pt x="760" y="0" on="1"/>
        <pt x="615" y="0" on="1"/>
        <pt x="545" y="191" on="1"/>
        <pt x="216" y="191" on="1"/>
        <pt x="147" y="0" on="1"/>
        <pt x="2" y="0" on="1"/>
      </contour>
      <contour>
        <pt x="508" y="307" on="1"/>
        <pt x="439" y="491" on="1"/>
        <pt x="387" y="640" on="1"/>
        <pt x="374" y="640" on="1"/>
        <pt x="323" y="490" on="1"/>
        <pt x="255" y="307" on="1"/>
      </contour>
    </TTGlyph>
    <TTGlyph name="A.sc" xMin="7" yMin="0" xMax="690" yMax="577">
      <contour>
        <pt x="7" y="8" on="1"/>
        <pt x="243" y="577" on="1"/>
        <pt x="453" y="577" on="1"/>
        <pt x="690" y="8" on="1"/>
        <pt x="690" y="0" on="1"/>
        <pt x="551" y="0" on="1"/>
        <pt x="493" y="133" on="1"/>
        <pt x="203" y="133" on="1"/>
        <pt x="145" y="0" on="1"/>
        <pt x="7" y="0" on="1"/>
      </contour>
      <contour>
        <pt x="462" y="229" on="1"/>
        <pt x="400" y="376" on="1"/>
        <pt x="353" y="483" on="1"/>
        <pt x="341" y="483" on="1"/>
        <pt x="296" y="374" on="1"/>
        <pt x="233" y="229" on="1"/>
      </contour>
    </TTGlyph>
    <TTGlyph name="AE" xMin="-1" yMin="0" xMax="958" yMax="740">
      <contour>
        <pt x="-1" y="10" on="1"/>
        <pt x="321" y="740" on="1"/>
        <pt x="943" y="740" on="1"/>
        <pt x="943" y="625" on="1"/>
        <pt x="602" y="625" on="1"/>
        <pt x="613" y="430" on="1"/>
        <pt x="923" y="430" on="1"/>
        <pt x="923" y="315" on="1"/>
        <pt x="620" y="315" on="1"/>
        <pt x="632" y="115" on="1"/>
        <pt x="958" y="115" on="1"/>
        <pt x="958" y="0" on="1"/>
        <pt x="484" y="0" on="1"/>
        <pt x="476" y="188" on="1"/>
        <pt x="225" y="188" on="1"/>
        <pt x="142" y="0" on="1"/>
        <pt x="-1" y="0" on="1"/>
      </contour>
      <contour>
        <pt x="278" y="309" on="1"/>
        <pt x="471" y="309" on="1"/>
        <pt x="458" y="636" on="1"/>
        <pt x="423" y="636" on="1"/>
      </contour>
    </TTGlyph>
    <TTGlyph name="AE.sc" xMin="4" yMin="0" xMax="874" yMax="577">
      <contour>
        <pt x="4" y="9" on="1"/>
        <pt x="293" y="577" on="1"/>
        <pt x="859" y="577" on="1"/>
        <pt x="859" y="473" on="1"/>
        <pt x="556" y="473" on="1"/>
        <pt x="564" y="336" on="1"/>
        <pt x="842" y="336" on="1"/>
        <pt x="842" y="246" on="1"/>
        <pt x="573" y="246" on="1"/>
        <pt x="583" y="104" on="1"/>
        <pt x="874" y="104" on="1"/>
        <pt x="874" y="0" on="1"/>
        <pt x="442" y="0" on="1"/>
        <pt x="436" y="133" on="1"/>
        <pt x="208" y="133" on="1"/>
        <pt x="141" y="0" on="1"/>
        <pt x="4" y="0" on="1"/>
      </contour>
      <contour>
        <pt x="259" y="226" on="1"/>
        <pt x="430" y="226" on="1"/>
        <pt x="420" y="481" on="1"/>
        <pt x="389" y="481" on="1"/>
      </contour>
    </TTGlyph>
    <TTGlyph name="AEacute" xMin="-1" yMin="0" xMax="958" yMax="974">
      <contour>
        <pt x="500" y="814" on="1"/>
        <pt x="570" y="974" on="1"/>
        <pt x="719" y="974" on="1"/>
        <pt x="608" y="806" on="1"/>
      </contour>
      <contour>
        <pt x="-1" y="10" on="1"/>
        <pt x="321" y="740" on="1"/>
        <pt x="943" y="740" on="1"/>
        <pt x="943" y="625" on="1"/>
        <pt x="602" y="625" on="1"/>
        <pt x="613" y="430" on="1"/>
        <pt x="923" y="430" on="1"/>
        <pt x="923" y="315" on="1"/>
        <pt x="620" y="315" on="1"/>
        <pt x="632" y="115" on="1"/>
        <pt x="958" y="115" on="1"/>
        <pt x="958" y="0" on="1"/>
        <pt x="484" y="0" on="1"/>
        <pt x="476" y="188" on="1"/>
        <pt x="225" y="188" on="1"/>
        <pt x="142" y="0" on="1"/>
        <pt x="-1" y="0" on="1"/>
      </contour>
      <contour>
        <pt x="278" y="309" on="1"/>
        <pt x="471" y="309" on="1"/>
        <pt x="458" y="636" on="1"/>
        <pt x="423" y="636" on="1"/>
      </contour>
    </TTGlyph>
    <TTGlyph name="AEacute.sc" xMin="4" yMin="0" xMax="874" yMax="770">
      <contour>
        <pt x="4" y="9" on="1"/>
        <pt x="293" y="577" on="1"/>
        <pt x="859" y="577" on="1"/>
        <pt x="859" y="473" on="1"/>
        <pt x="556" y="473" on="1"/>
        <pt x="564" y="336" on="1"/>
        <pt x="842" y="336" on="1"/>
        <pt x="842" y="246" on="1"/>
        <pt x="573" y="246" on="1"/>
        <pt x="583" y="104" on="1"/>
        <pt x="874" y="104" on="1"/>
        <pt x="874" y="0" on="1"/>
        <pt x="442" y="0" on="1"/>
        <pt x="436" y="133" on="1"/>
        <pt x="208" y="133" on="1"/>
        <pt x="141" y="0" on="1"/>
        <pt x="4" y="0" on="1"/>
      </contour>
      <contour>
        <pt x="430" y="226" on="1"/>
        <pt x="420" y="481" on="1"/>
        <pt x="389" y="481" on="1"/>
        <pt x="259" y="226" on="1"/>
      </contour>
      <contour>
        <pt x="449" y="637" on="1"/>
        <pt x="510" y="770" on="1"/>
        <pt x="652" y="770" on="1"/>
        <pt x="552" y="630" on="1"/>
      </contour>
    </TTGlyph>
    <TTGlyph name="Aacute" xMin="2" yMin="0" xMax="760" yMax="974">
      <contour>
        <pt x="2" y="9" on="1"/>
        <pt x="271" y="740" on="1"/>
        <pt x="491" y="740" on="1"/>
        <pt x="760" y="9" on="1"/>
        <pt x="760" y="0" on="1"/>
        <pt x="615" y="0" on="1"/>
        <pt x="545" y="191" on="1"/>
        <pt x="216" y="191" on="1"/>
        <pt x="147" y="0" on="1"/>
        <pt x="2" y="0" on="1"/>
      </contour>
      <contour>
        <pt x="508" y="307" on="1"/>
        <pt x="439" y="491" on="1"/>
        <pt x="387" y="640" on="1"/>
        <pt x="374" y="640" on="1"/>
        <pt x="323" y="490" on="1"/>
        <pt x="255" y="307" on="1"/>
      </contour>
      <contour>
        <pt x="322" y="814" on="1"/>
        <pt x="392" y="974" on="1"/>
        <pt x="541" y="974" on="1"/>
        <pt x="430" y="806" on="1"/>
      </contour>
    </TTGlyph>
    <TTGlyph name="Aacute.sc" xMin="7" yMin="0" xMax="690" yMax="770">
      <contour>
        <pt x="7" y="8" on="1"/>
        <pt x="243" y="577" on="1"/>
        <pt x="453" y="577" on="1"/>
        <pt x="690" y="8" on="1"/>
        <pt x="690" y="0" on="1"/>
        <pt x="551" y="0" on="1"/>
        <pt x="493" y="133" on="1"/>
        <pt x="203" y="133" on="1"/>
        <pt x="145" y="0" on="1"/>
        <pt x="7" y="0" on="1"/>
      </contour>
      <contour>
        <pt x="461" y="235" on="1"/>
        <pt x="400" y="376" on="1"/>
        <pt x="353" y="483" on="1"/>
        <pt x="341" y="483" on="1"/>
        <pt x="296" y="374" on="1"/>
        <pt x="235" y="235" on="1"/>
      </contour>
      <contour>
        <pt x="293" y="637" on="1"/>
        <pt x="353" y="770" on="1"/>
        <pt x="495" y="770" on="1"/>
        <pt x="394" y="630" on="1"/>
      </contour>
    </TTGlyph>
    <TTGlyph name="Abreve" xMin="2" yMin="0" xMax="760" yMax="981">
      <contour>
        <pt x="2" y="9" on="1"/>
        <pt x="271" y="740" on="1"/>
        <pt x="491" y="740" on="1"/>
        <pt x="760" y="9" on="1"/>
        <pt x="760" y="0" on="1"/>
        <pt x="615" y="0" on="1"/>
        <pt x="545" y="191" on="1"/>
        <pt x="216" y="191" on="1"/>
        <pt x="147" y="0" on="1"/>
        <pt x="2" y="0" on="1"/>
      </contour>
      <contour>
        <pt x="508" y="307" on="1"/>
        <pt x="439" y="491" on="1"/>
        <pt x="387" y="640" on="1"/>
        <pt x="374" y="640" on="1"/>
        <pt x="323" y="490" on="1"/>
        <pt x="255" y="307" on="1"/>
      </contour>
      <contour>
        <pt x="381" y="813" on="1"/>
        <pt x="322" y="813" on="0"/>
        <pt x="240" y="838" on="0"/>
        <pt x="188" y="883" on="0"/>
        <pt x="164" y="945" on="0"/>
        <pt x="164" y="981" on="1"/>
        <pt x="264" y="981" on="1"/>
        <pt x="264" y="936" on="0"/>
        <pt x="318" y="888" on="0"/>
        <pt x="381" y="888" on="1"/>
        <pt x="444" y="888" on="0"/>
        <pt x="498" y="936" on="0"/>
        <pt x="498" y="981" on="1"/>
        <pt x="598" y="981" on="1"/>
        <pt x="598" y="944" on="0"/>
        <pt x="574" y="883" on="0"/>
        <pt x="522" y="838" on="0"/>
        <pt x="439" y="813" on="0"/>
      </contour>
    </TTGlyph>
    <TTGlyph name="Abreve.sc" xMin="7" yMin="0" xMax="690" yMax="773">
      <contour>
        <pt x="348" y="634" on="1"/>
        <pt x="293" y="634" on="0"/>
        <pt x="218" y="656" on="0"/>
        <pt x="171" y="693" on="0"/>
        <pt x="150" y="744" on="0"/>
        <pt x="150" y="773" on="1"/>
        <pt x="244" y="773" on="1"/>
        <pt x="244" y="739" on="0"/>
        <pt x="291" y="702" on="0"/>
        <pt x="348" y="702" on="1"/>
        <pt x="405" y="702" on="0"/>
        <pt x="452" y="739" on="0"/>
        <pt x="452" y="773" on="1"/>
        <pt x="545" y="773" on="1"/>
        <pt x="545" y="743" on="0"/>
        <pt x="524" y="693" on="0"/>
        <pt x="478" y="655" on="0"/>
        <pt x="402" y="634" on="0"/>
      </contour>
      <contour>
        <pt x="7" y="8" on="1"/>
        <pt x="243" y="577" on="1"/>
        <pt x="453" y="577" on="1"/>
        <pt x="690" y="8" on="1"/>
        <pt x="690" y="0" on="1"/>
        <pt x="551" y="0" on="1"/>
        <pt x="493" y="133" on="1"/>
        <pt x="203" y="133" on="1"/>
        <pt x="145" y="0" on="1"/>
        <pt x="7" y="0" on="1"/>
      </contour>
      <contour>
        <pt x="461" y="235" on="1"/>
        <pt x="400" y="376" on="1"/>
        <pt x="353" y="483" on="1"/>
        <pt x="341" y="483" on="1"/>
        <pt x="296" y="374" on="1"/>
        <pt x="235" y="235" on="1"/>
      </contour>
    </TTGlyph>
    <TTGlyph name="Acircumflex" xMin="2" yMin="0" xMax="760" yMax="986">
      <contour>
        <pt x="2" y="9" on="1"/>
        <pt x="271" y="740" on="1"/>
        <pt x="491" y="740" on="1"/>
        <pt x="760" y="9" on="1"/>
        <pt x="760" y="0" on="1"/>
        <pt x="615" y="0" on="1"/>
        <pt x="545" y="191" on="1"/>
        <pt x="216" y="191" on="1"/>
        <pt x="147" y="0" on="1"/>
        <pt x="2" y="0" on="1"/>
      </contour>
      <contour>
        <pt x="508" y="307" on="1"/>
        <pt x="439" y="491" on="1"/>
        <pt x="387" y="640" on="1"/>
        <pt x="374" y="640" on="1"/>
        <pt x="323" y="490" on="1"/>
        <pt x="255" y="307" on="1"/>
      </contour>
      <contour>
        <pt x="184" y="908" on="1"/>
        <pt x="381" y="986" on="1"/>
        <pt x="581" y="908" on="1"/>
        <pt x="581" y="806" on="1"/>
        <pt x="382" y="884" on="1"/>
        <pt x="184" y="806" on="1"/>
      </contour>
    </TTGlyph>
    <TTGlyph name="Acircumflex.sc" xMin="7" yMin="0" xMax="690" yMax="782">
      <contour>
        <pt x="7" y="8" on="1"/>
        <pt x="243" y="577" on="1"/>
        <pt x="453" y="577" on="1"/>
        <pt x="690" y="8" on="1"/>
        <pt x="690" y="0" on="1"/>
        <pt x="551" y="0" on="1"/>
        <pt x="493" y="133" on="1"/>
        <pt x="203" y="133" on="1"/>
        <pt x="145" y="0" on="1"/>
        <pt x="7" y="0" on="1"/>
      </contour>
      <contour>
        <pt x="461" y="235" on="1"/>
        <pt x="400" y="376" on="1"/>
        <pt x="353" y="483" on="1"/>
        <pt x="341" y="483" on="1"/>
        <pt x="296" y="374" on="1"/>
        <pt x="235" y="235" on="1"/>
      </contour>
      <contour>
        <pt x="168" y="720" on="1"/>
        <pt x="348" y="782" on="1"/>
        <pt x="531" y="720" on="1"/>
        <pt x="531" y="627" on="1"/>
        <pt x="350" y="688" on="1"/>
        <pt x="168" y="627" on="1"/>
      </contour>
    </TTGlyph>
    <TTGlyph name="Adblgrave" xMin="2" yMin="0" xMax="760" yMax="970">
      <contour>
        <pt x="2" y="9" on="1"/>
        <pt x="271" y="740" on="1"/>
        <pt x="491" y="740" on="1"/>
        <pt x="760" y="9" on="1"/>
        <pt x="760" y="0" on="1"/>
        <pt x="615" y="0" on="1"/>
        <pt x="545" y="191" on="1"/>
        <pt x="216" y="191" on="1"/>
        <pt x="147" y="0" on="1"/>
        <pt x="2" y="0" on="1"/>
      </contour>
      <contour>
        <pt x="508" y="307" on="1"/>
        <pt x="439" y="491" on="1"/>
        <pt x="387" y="640" on="1"/>
        <pt x="374" y="640" on="1"/>
        <pt x="323" y="490" on="1"/>
        <pt x="255" y="307" on="1"/>
      </contour>
      <contour>
        <pt x="220" y="801" on="1"/>
        <pt x="109" y="970" on="1"/>
        <pt x="256" y="970" on="1"/>
        <pt x="324" y="813" on="1"/>
      </contour>
      <contour>
        <pt x="419" y="801" on="1"/>
        <pt x="306" y="970" on="1"/>
        <pt x="453" y="970" on="1"/>
        <pt x="523" y="813" on="1"/>
      </contour>
    </TTGlyph>
    <TTGlyph name="Adblgrave.sc" xMin="7" yMin="0" xMax="690" yMax="768">
      <contour>
        <pt x="7" y="8" on="1"/>
        <pt x="243" y="577" on="1"/>
        <pt x="453" y="577" on="1"/>
        <pt x="690" y="8" on="1"/>
        <pt x="690" y="0" on="1"/>
        <pt x="551" y="0" on="1"/>
        <pt x="493" y="133" on="1"/>
        <pt x="203" y="133" on="1"/>
        <pt x="145" y="0" on="1"/>
        <pt x="7" y="0" on="1"/>
      </contour>
      <contour>
        <pt x="461" y="235" on="1"/>
        <pt x="400" y="376" on="1"/>
        <pt x="353" y="483" on="1"/>
        <pt x="341" y="483" on="1"/>
        <pt x="296" y="374" on="1"/>
        <pt x="235" y="235" on="1"/>
      </contour>
      <contour>
        <pt x="96" y="768" on="1"/>
        <pt x="238" y="768" on="1"/>
        <pt x="296" y="636" on="1"/>
        <pt x="197" y="627" on="1"/>
      </contour>
      <contour>
        <pt x="278" y="768" on="1"/>
        <pt x="419" y="768" on="1"/>
        <pt x="479" y="636" on="1"/>
        <pt x="379" y="627" on="1"/>
      </contour>
    </TTGlyph>
    <TTGlyph name="Adieresis" xMin="2" yMin="0" xMax="760" yMax="974">
      <contour>
        <pt x="2" y="9" on="1"/>
        <pt x="271" y="740" on="1"/>
        <pt x="491" y="740" on="1"/>
        <pt x="760" y="9" on="1"/>
        <pt x="760" y="0" on="1"/>
        <pt x="615" y="0" on="1"/>
        <pt x="545" y="191" on="1"/>
        <pt x="216" y="191" on="1"/>
        <pt x="147" y="0" on="1"/>
        <pt x="2" y="0" on="1"/>
      </contour>
      <contour>
        <pt x="508" y="307" on="1"/>
        <pt x="439" y="491" on="1"/>
        <pt x="387" y="640" on="1"/>
        <pt x="374" y="640" on="1"/>
        <pt x="323" y="490" on="1"/>
        <pt x="255" y="307" on="1"/>
      </contour>
      <contour>
        <pt x="233" y="811" on="1"/>
        <pt x="189" y="811" on="0"/>
        <pt x="150" y="850" on="0"/>
        <pt x="150" y="893" on="1"/>
        <pt x="150" y="935" on="0"/>
        <pt x="189" y="974" on="0"/>
        <pt x="233" y="974" on="1"/>
        <pt x="277" y="974" on="0"/>
        <pt x="316" y="935" on="0"/>
        <pt x="316" y="893" on="1"/>
        <pt x="316" y="851" on="0"/>
        <pt x="277" y="811" on="0"/>
      </contour>
      <contour>
        <pt x="530" y="811" on="1"/>
        <pt x="486" y="811" on="0"/>
        <pt x="447" y="850" on="0"/>
        <pt x="447" y="893" on="1"/>
        <pt x="447" y="935" on="0"/>
        <pt x="486" y="974" on="0"/>
        <pt x="530" y="974" on="1"/>
        <pt x="575" y="974" on="0"/>
        <pt x="613" y="935" on="0"/>
        <pt x="613" y="893" on="1"/>
        <pt x="613" y="851" on="0"/>
        <pt x="575" y="811" on="0"/>
      </contour>
    </TTGlyph>
    <TTGlyph name="Adieresis.sc" xMin="7" yMin="0" xMax="690" yMax="777">
      <contour>
        <pt x="214" y="629" on="1"/>
        <pt x="172" y="629" on="0"/>
        <pt x="136" y="664" on="0"/>
        <pt x="136" y="703" on="1"/>
        <pt x="136" y="741" on="0"/>
        <pt x="172" y="777" on="0"/>
        <pt x="214" y="777" on="1"/>
        <pt x="256" y="777" on="0"/>
        <pt x="292" y="741" on="0"/>
        <pt x="292" y="703" on="1"/>
        <pt x="292" y="665" on="0"/>
        <pt x="256" y="629" on="0"/>
      </contour>
      <contour>
        <pt x="482" y="629" on="1"/>
        <pt x="440" y="629" on="0"/>
        <pt x="403" y="664" on="0"/>
        <pt x="403" y="703" on="1"/>
        <pt x="403" y="741" on="0"/>
        <pt x="440" y="777" on="0"/>
        <pt x="482" y="777" on="1"/>
        <pt x="524" y="777" on="0"/>
        <pt x="560" y="741" on="0"/>
        <pt x="560" y="703" on="1"/>
        <pt x="560" y="665" on="0"/>
        <pt x="524" y="629" on="0"/>
      </contour>
      <contour>
        <pt x="7" y="8" on="1"/>
        <pt x="243" y="577" on="1"/>
        <pt x="453" y="577" on="1"/>
        <pt x="690" y="8" on="1"/>
        <pt x="690" y="0" on="1"/>
        <pt x="551" y="0" on="1"/>
        <pt x="493" y="133" on="1"/>
        <pt x="203" y="133" on="1"/>
        <pt x="145" y="0" on="1"/>
        <pt x="7" y="0" on="1"/>
      </contour>
      <contour>
        <pt x="461" y="235" on="1"/>
        <pt x="400" y="376" on="1"/>
        <pt x="353" y="483" on="1"/>
        <pt x="341" y="483" on="1"/>
        <pt x="296" y="374" on="1"/>
        <pt x="235" y="235" on="1"/>
      </contour>
    </TTGlyph>
    <TTGlyph name="Agrave" xMin="2" yMin="0" xMax="760" yMax="974">
      <contour>
        <pt x="2" y="9" on="1"/>
        <pt x="271" y="740" on="1"/>
        <pt x="491" y="740" on="1"/>
        <pt x="760" y="9" on="1"/>
        <pt x="760" y="0" on="1"/>
        <pt x="615" y="0" on="1"/>
        <pt x="545" y="191" on="1"/>
        <pt x="216" y="191" on="1"/>
        <pt x="147" y="0" on="1"/>
        <pt x="2" y="0" on="1"/>
      </contour>
      <contour>
        <pt x="508" y="307" on="1"/>
        <pt x="439" y="491" on="1"/>
        <pt x="387" y="640" on="1"/>
        <pt x="374" y="640" on="1"/>
        <pt x="323" y="490" on="1"/>
        <pt x="255" y="307" on="1"/>
      </contour>
      <contour>
        <pt x="317" y="806" on="1"/>
        <pt x="205" y="974" on="1"/>
        <pt x="355" y="974" on="1"/>
        <pt x="424" y="818" on="1"/>
      </contour>
    </TTGlyph>
    <TTGlyph name="Agrave.sc" xMin="7" yMin="0" xMax="690" yMax="770">
      <contour>
        <pt x="7" y="8" on="1"/>
        <pt x="243" y="577" on="1"/>
        <pt x="453" y="577" on="1"/>
        <pt x="690" y="8" on="1"/>
        <pt x="690" y="0" on="1"/>
        <pt x="551" y="0" on="1"/>
        <pt x="493" y="133" on="1"/>
        <pt x="203" y="133" on="1"/>
        <pt x="145" y="0" on="1"/>
        <pt x="7" y="0" on="1"/>
      </contour>
      <contour>
        <pt x="461" y="235" on="1"/>
        <pt x="400" y="376" on="1"/>
        <pt x="353" y="483" on="1"/>
        <pt x="341" y="483" on="1"/>
        <pt x="296" y="374" on="1"/>
        <pt x="235" y="235" on="1"/>
      </contour>
      <contour>
        <pt x="286" y="630" on="1"/>
        <pt x="184" y="770" on="1"/>
        <pt x="328" y="770" on="1"/>
        <pt x="387" y="639" on="1"/>
      </contour>
    </TTGlyph>
    <TTGlyph name="Ainvertedbreve" xMin="2" yMin="0" xMax="760" yMax="986">
      <contour>
        <pt x="2" y="9" on="1"/>
        <pt x="271" y="740" on="1"/>
        <pt x="491" y="740" on="1"/>
        <pt x="760" y="9" on="1"/>
        <pt x="760" y="0" on="1"/>
        <pt x="615" y="0" on="1"/>
        <pt x="545" y="191" on="1"/>
        <pt x="216" y="191" on="1"/>
        <pt x="147" y="0" on="1"/>
        <pt x="2" y="0" on="1"/>
      </contour>
      <contour>
        <pt x="508" y="307" on="1"/>
        <pt x="439" y="491" on="1"/>
        <pt x="387" y="640" on="1"/>
        <pt x="374" y="640" on="1"/>
        <pt x="323" y="490" on="1"/>
        <pt x="255" y="307" on="1"/>
      </contour>
      <contour>
        <pt x="499" y="819" on="1"/>
        <pt x="499" y="863" on="0"/>
        <pt x="445" y="912" on="0"/>
        <pt x="381" y="912" on="1"/>
        <pt x="318" y="912" on="0"/>
        <pt x="264" y="863" on="0"/>
        <pt x="264" y="819" on="1"/>
        <pt x="165" y="819" on="1"/>
        <pt x="165" y="855" on="0"/>
        <pt x="189" y="916" on="0"/>
        <pt x="240" y="961" on="0"/>
        <pt x="322" y="986" on="0"/>
        <pt x="381" y="986" on="1"/>
        <pt x="440" y="986" on="0"/>
        <pt x="522" y="961" on="0"/>
        <pt x="574" y="917" on="0"/>
        <pt x="598" y="856" on="0"/>
        <pt x="598" y="819" on="1"/>
      </contour>
    </TTGlyph>
    <TTGlyph name="Ainvertedbreve.sc" xMin="7" yMin="0" xMax="690" yMax="779">
      <contour>
        <pt x="150" y="640" on="1"/>
        <pt x="150" y="669" on="0"/>
        <pt x="171" y="720" on="0"/>
        <pt x="218" y="757" on="0"/>
        <pt x="293" y="779" on="0"/>
        <pt x="348" y="779" on="1"/>
        <pt x="402" y="779" on="0"/>
        <pt x="478" y="758" on="0"/>
        <pt x="524" y="720" on="0"/>
        <pt x="545" y="670" on="0"/>
        <pt x="545" y="640" on="1"/>
        <pt x="452" y="640" on="1"/>
        <pt x="452" y="673" on="0"/>
        <pt x="405" y="711" on="0"/>
        <pt x="348" y="711" on="1"/>
        <pt x="291" y="711" on="0"/>
        <pt x="244" y="673" on="0"/>
        <pt x="244" y="640" on="1"/>
      </contour>
      <contour>
        <pt x="7" y="8" on="1"/>
        <pt x="243" y="577" on="1"/>
        <pt x="453" y="577" on="1"/>
        <pt x="690" y="8" on="1"/>
        <pt x="690" y="0" on="1"/>
        <pt x="551" y="0" on="1"/>
        <pt x="493" y="133" on="1"/>
        <pt x="203" y="133" on="1"/>
        <pt x="145" y="0" on="1"/>
        <pt x="7" y="0" on="1"/>
      </contour>
      <contour>
        <pt x="461" y="235" on="1"/>
        <pt x="400" y="376" on="1"/>
        <pt x="353" y="483" on="1"/>
        <pt x="341" y="483" on="1"/>
        <pt x="296" y="374" on="1"/>
        <pt x="235" y="235" on="1"/>
      </contour>
    </TTGlyph>
    <TTGlyph name="Amacron" xMin="2" yMin="0" xMax="760" yMax="941">
      <contour>
        <pt x="2" y="9" on="1"/>
        <pt x="271" y="740" on="1"/>
        <pt x="491" y="740" on="1"/>
        <pt x="760" y="9" on="1"/>
        <pt x="760" y="0" on="1"/>
        <pt x="615" y="0" on="1"/>
        <pt x="545" y="191" on="1"/>
        <pt x="216" y="191" on="1"/>
        <pt x="147" y="0" on="1"/>
        <pt x="2" y="0" on="1"/>
      </contour>
      <contour>
        <pt x="508" y="307" on="1"/>
        <pt x="439" y="491" on="1"/>
        <pt x="387" y="640" on="1"/>
        <pt x="374" y="640" on="1"/>
        <pt x="323" y="490" on="1"/>
        <pt x="255" y="307" on="1"/>
      </contour>
      <contour>
        <pt x="185" y="941" on="1"/>
        <pt x="578" y="941" on="1"/>
        <pt x="578" y="842" on="1"/>
        <pt x="185" y="842" on="1"/>
      </contour>
    </TTGlyph>
    <TTGlyph name="Amacron.sc" xMin="7" yMin="0" xMax="690" yMax="749">
      <contour>
        <pt x="7" y="8" on="1"/>
        <pt x="243" y="577" on="1"/>
        <pt x="453" y="577" on="1"/>
        <pt x="690" y="8" on="1"/>
        <pt x="690" y="0" on="1"/>
        <pt x="551" y="0" on="1"/>
        <pt x="493" y="133" on="1"/>
        <pt x="203" y="133" on="1"/>
        <pt x="145" y="0" on="1"/>
        <pt x="7" y="0" on="1"/>
      </contour>
      <contour>
        <pt x="461" y="235" on="1"/>
        <pt x="400" y="376" on="1"/>
        <pt x="353" y="483" on="1"/>
        <pt x="341" y="483" on="1"/>
        <pt x="296" y="374" on="1"/>
        <pt x="235" y="235" on="1"/>
      </contour>
      <contour>
        <pt x="169" y="749" on="1"/>
        <pt x="528" y="749" on="1"/>
        <pt x="528" y="657" on="1"/>
        <pt x="169" y="657" on="1"/>
      </contour>
    </TTGlyph>
    <TTGlyph name="Aogonek" xMin="2" yMin="-220" xMax="760" yMax="740">
      <contour>
        <pt x="675" y="-220" on="1"/>
        <pt x="609" y="-220" on="0"/>
        <pt x="539" y="-176" on="0"/>
        <pt x="539" y="-132" on="1"/>
        <pt x="539" y="-59" on="0"/>
        <pt x="641" y="0" on="1"/>
        <pt x="615" y="0" on="1"/>
        <pt x="545" y="191" on="1"/>
        <pt x="216" y="191" on="1"/>
        <pt x="147" y="0" on="1"/>
        <pt x="2" y="0" on="1"/>
        <pt x="2" y="9" on="1"/>
        <pt x="271" y="740" on="1"/>
        <pt x="491" y="740" on="1"/>
        <pt x="760" y="9" on="1"/>
        <pt x="760" y="-13" on="1"/>
        <pt x="692" y="-44" on="0"/>
        <pt x="636" y="-90" on="0"/>
        <pt x="636" y="-114" on="1"/>
        <pt x="636" y="-142" on="0"/>
        <pt x="673" y="-142" on="1"/>
        <pt x="687" y="-142" on="0"/>
        <pt x="737" y="-134" on="0"/>
        <pt x="760" y="-128" on="1"/>
        <pt x="760" y="-208" on="1"/>
        <pt x="725" y="-220" on="0"/>
      </contour>
      <contour>
        <pt x="508" y="307" on="1"/>
        <pt x="439" y="491" on="1"/>
        <pt x="387" y="640" on="1"/>
        <pt x="374" y="640" on="1"/>
        <pt x="323" y="490" on="1"/>
        <pt x="255" y="307" on="1"/>
      </contour>
    </TTGlyph>
    <TTGlyph name="Aogonek.sc" xMin="6" yMin="-171" xMax="689" yMax="577">
      <contour>
        <pt x="610" y="-171" on="1"/>
        <pt x="550" y="-171" on="0"/>
        <pt x="487" y="-133" on="0"/>
        <pt x="487" y="-100" on="1"/>
        <pt x="487" y="-74" on="0"/>
        <pt x="528" y="-20" on="0"/>
        <pt x="569" y="0" on="1"/>
        <pt x="550" y="0" on="1"/>
        <pt x="492" y="133" on="1"/>
        <pt x="202" y="133" on="1"/>
        <pt x="144" y="0" on="1"/>
        <pt x="6" y="0" on="1"/>
        <pt x="6" y="8" on="1"/>
        <pt x="242" y="577" on="1"/>
        <pt x="452" y="577" on="1"/>
        <pt x="689" y="8" on="1"/>
        <pt x="689" y="-7" on="1"/>
        <pt x="655" y="-19" on="0"/>
        <pt x="612" y="-39" on="0"/>
        <pt x="587" y="-55" on="0"/>
        <pt x="578" y="-70" on="0"/>
        <pt x="578" y="-77" on="1"/>
        <pt x="578" y="-90" on="0"/>
        <pt x="593" y="-97" on="0"/>
        <pt x="609" y="-97" on="1"/>
        <pt x="616" y="-97" on="0"/>
        <pt x="637" y="-96" on="0"/>
        <pt x="659" y="-93" on="0"/>
        <pt x="681" y="-89" on="0"/>
        <pt x="689" y="-87" on="1"/>
        <pt x="689" y="-162" on="1"/>
        <pt x="671" y="-167" on="0"/>
        <pt x="630" y="-171" on="0"/>
      </contour>
      <contour>
        <pt x="459" y="235" on="1"/>
        <pt x="399" y="377" on="1"/>
        <pt x="352" y="483" on="1"/>
        <pt x="340" y="483" on="1"/>
        <pt x="295" y="375" on="1"/>
        <pt x="233" y="235" on="1"/>
      </contour>
    </TTGlyph>
    <TTGlyph name="Aring" xMin="2" yMin="0" xMax="760" yMax="1018">
      <contour>
        <pt x="2" y="9" on="1"/>
        <pt x="271" y="740" on="1"/>
        <pt x="491" y="740" on="1"/>
        <pt x="760" y="9" on="1"/>
        <pt x="760" y="0" on="1"/>
        <pt x="615" y="0" on="1"/>
        <pt x="545" y="191" on="1"/>
        <pt x="216" y="191" on="1"/>
        <pt x="147" y="0" on="1"/>
        <pt x="2" y="0" on="1"/>
      </contour>
      <contour>
        <pt x="508" y="307" on="1"/>
        <pt x="439" y="491" on="1"/>
        <pt x="387" y="640" on="1"/>
        <pt x="374" y="640" on="1"/>
        <pt x="323" y="490" on="1"/>
        <pt x="255" y="307" on="1"/>
      </contour>
      <contour>
        <pt x="383" y="791" on="1"/>
        <pt x="354" y="791" on="0"/>
        <pt x="304" y="808" on="0"/>
        <pt x="268" y="838" on="0"/>
        <pt x="247" y="879" on="0"/>
        <pt x="247" y="904" on="1"/>
        <pt x="247" y="929" on="0"/>
        <pt x="268" y="971" on="0"/>
        <pt x="304" y="1001" on="0"/>
        <pt x="354" y="1018" on="0"/>
        <pt x="383" y="1018" on="1"/>
        <pt x="412" y="1018" on="0"/>
        <pt x="461" y="1001" on="0"/>
        <pt x="497" y="971" on="0"/>
        <pt x="518" y="929" on="0"/>
        <pt x="518" y="904" on="1"/>
        <pt x="518" y="879" on="0"/>
        <pt x="497" y="838" on="0"/>
        <pt x="461" y="808" on="0"/>
        <pt x="412" y="791" on="0"/>
      </contour>
      <contour>
        <pt x="383" y="846" on="1"/>
        <pt x="454" y="846" on="0"/>
        <pt x="454" y="904" on="1"/>
        <pt x="454" y="963" on="0"/>
        <pt x="383" y="963" on="1"/>
        <pt x="345" y="963" on="0"/>
        <pt x="311" y="933" on="0"/>
        <pt x="311" y="904" on="1"/>
        <pt x="311" y="875" on="0"/>
        <pt x="345" y="846" on="0"/>
      </contour>
    </TTGlyph>
    <TTGlyph name="Aring.sc" xMin="7" yMin="0" xMax="690" yMax="797">
      <contour>
        <pt x="7" y="8" on="1"/>
        <pt x="243" y="577" on="1"/>
        <pt x="453" y="577" on="1"/>
        <pt x="690" y="8" on="1"/>
        <pt x="690" y="0" on="1"/>
        <pt x="551" y="0" on="1"/>
        <pt x="493" y="133" on="1"/>
        <pt x="203" y="133" on="1"/>
        <pt x="145" y="0" on="1"/>
        <pt x="7" y="0" on="1"/>
      </contour>
      <contour>
        <pt x="461" y="235" on="1"/>
        <pt x="400" y="376" on="1"/>
        <pt x="353" y="483" on="1"/>
        <pt x="341" y="483" on="1"/>
        <pt x="296" y="374" on="1"/>
        <pt x="235" y="235" on="1"/>
      </contour>
      <contour>
        <pt x="350" y="616" on="1"/>
        <pt x="297" y="616" on="0"/>
        <pt x="227" y="665" on="0"/>
        <pt x="227" y="706" on="1"/>
        <pt x="227" y="725" on="0"/>
        <pt x="246" y="759" on="0"/>
        <pt x="279" y="783" on="0"/>
        <pt x="324" y="797" on="0"/>
        <pt x="350" y="797" on="1"/>
        <pt x="402" y="797" on="0"/>
        <pt x="471" y="745" on="0"/>
        <pt x="471" y="706" on="1"/>
        <pt x="471" y="665" on="0"/>
        <pt x="402" y="616" on="0"/>
      </contour>
      <contour>
        <pt x="350" y="664" on="1"/>
        <pt x="383" y="664" on="0"/>
        <pt x="412" y="685" on="0"/>
        <pt x="412" y="706" on="1"/>
        <pt x="412" y="727" on="0"/>
        <pt x="383" y="749" on="0"/>
        <pt x="350" y="749" on="1"/>
        <pt x="316" y="749" on="0"/>
        <pt x="287" y="727" on="0"/>
        <pt x="287" y="706" on="1"/>
        <pt x="287" y="685" on="0"/>
        <pt x="316" y="664" on="0"/>
      </contour>
    </TTGlyph>
    <TTGlyph name="Aringacute" xMin="3" yMin="0" xMax="760" yMax="1000">
      <contour>
        <pt x="3" y="9" on="1"/>
        <pt x="246" y="674" on="1"/>
        <pt x="227" y="689" on="0"/>
        <pt x="206" y="732" on="0"/>
        <pt x="206" y="758" on="1"/>
        <pt x="206" y="809" on="0"/>
        <pt x="277" y="877" on="0"/>
        <pt x="337" y="888" on="1"/>
        <pt x="389" y="1000" on="1"/>
        <pt x="539" y="1000" on="1"/>
        <pt x="459" y="880" on="1"/>
        <pt x="505" y="865" on="0"/>
        <pt x="559" y="801" on="0"/>
        <pt x="559" y="758" on="1"/>
        <pt x="559" y="731" on="0"/>
        <pt x="537" y="687" on="0"/>
        <pt x="517" y="670" on="1"/>
        <pt x="760" y="9" on="1"/>
        <pt x="760" y="0" on="1"/>
        <pt x="616" y="0" on="1"/>
        <pt x="546" y="188" on="1"/>
        <pt x="216" y="188" on="1"/>
        <pt x="147" y="0" on="1"/>
        <pt x="3" y="0" on="1"/>
      </contour>
      <contour>
        <pt x="382" y="695" on="1"/>
        <pt x="421" y="695" on="0"/>
        <pt x="469" y="729" on="0"/>
        <pt x="469" y="758" on="1"/>
        <pt x="469" y="787" on="0"/>
        <pt x="421" y="821" on="0"/>
        <pt x="382" y="821" on="1"/>
        <pt x="343" y="821" on="0"/>
        <pt x="297" y="787" on="0"/>
        <pt x="297" y="758" on="1"/>
        <pt x="297" y="729" on="0"/>
        <pt x="344" y="695" on="0"/>
      </contour>
      <contour>
        <pt x="507" y="309" on="1"/>
        <pt x="440" y="491" on="1"/>
        <pt x="398" y="613" on="1"/>
        <pt x="364" y="613" on="1"/>
        <pt x="322" y="490" on="1"/>
        <pt x="255" y="309" on="1"/>
      </contour>
    </TTGlyph>
    <TTGlyph name="Aringacute.sc" xMin="7" yMin="0" xMax="690" yMax="789">
      <contour>
        <pt x="7" y="8" on="1"/>
        <pt x="222" y="528" on="1"/>
        <pt x="188" y="554" on="0"/>
        <pt x="188" y="592" on="1"/>
        <pt x="188" y="634" on="0"/>
        <pt x="252" y="690" on="0"/>
        <pt x="306" y="699" on="1"/>
        <pt x="352" y="789" on="1"/>
        <pt x="494" y="789" on="1"/>
        <pt x="422" y="691" on="1"/>
        <pt x="464" y="679" on="0"/>
        <pt x="513" y="627" on="0"/>
        <pt x="513" y="592" on="1"/>
        <pt x="513" y="572" on="0"/>
        <pt x="492" y="538" on="0"/>
        <pt x="475" y="524" on="1"/>
        <pt x="690" y="8" on="1"/>
        <pt x="690" y="0" on="1"/>
        <pt x="552" y="0" on="1"/>
        <pt x="493" y="133" on="1"/>
        <pt x="203" y="133" on="1"/>
        <pt x="145" y="0" on="1"/>
        <pt x="7" y="0" on="1"/>
      </contour>
      <contour>
        <pt x="349" y="546" on="1"/>
        <pt x="384" y="546" on="0"/>
        <pt x="426" y="572" on="0"/>
        <pt x="426" y="592" on="1"/>
        <pt x="426" y="614" on="0"/>
        <pt x="384" y="639" on="0"/>
        <pt x="349" y="639" on="1"/>
        <pt x="314" y="639" on="0"/>
        <pt x="274" y="614" on="0"/>
        <pt x="274" y="592" on="1"/>
        <pt x="274" y="571" on="0"/>
        <pt x="315" y="546" on="0"/>
      </contour>
      <contour>
        <pt x="462" y="235" on="1"/>
        <pt x="400" y="376" on="1"/>
        <pt x="362" y="469" on="1"/>
        <pt x="333" y="469" on="1"/>
        <pt x="297" y="374" on="1"/>
        <pt x="236" y="235" on="1"/>
      </contour>
    </TTGlyph>
    <TTGlyph name="Atilde" xMin="2" yMin="0" xMax="760" yMax="969">
      <contour>
        <pt x="2" y="9" on="1"/>
        <pt x="271" y="740" on="1"/>
        <pt x="491" y="740" on="1"/>
        <pt x="760" y="9" on="1"/>
        <pt x="760" y="0" on="1"/>
        <pt x="615" y="0" on="1"/>
        <pt x="545" y="191" on="1"/>
        <pt x="216" y="191" on="1"/>
        <pt x="147" y="0" on="1"/>
        <pt x="2" y="0" on="1"/>
      </contour>
      <contour>
        <pt x="508" y="307" on="1"/>
        <pt x="439" y="491" on="1"/>
        <pt x="387" y="640" on="1"/>
        <pt x="374" y="640" on="1"/>
        <pt x="323" y="490" on="1"/>
        <pt x="255" y="307" on="1"/>
      </contour>
      <contour>
        <pt x="148" y="864" on="1"/>
        <pt x="182" y="917" on="0"/>
        <pt x="265" y="969" on="0"/>
        <pt x="303" y="969" on="1"/>
        <pt x="330" y="969" on="0"/>
        <pt x="380" y="957" on="0"/>
        <pt x="429" y="942" on="0"/>
        <pt x="478" y="930" on="0"/>
        <pt x="504" y="930" on="1"/>
        <pt x="529" y="930" on="0"/>
        <pt x="576" y="946" on="0"/>
        <pt x="605" y="967" on="1"/>
        <pt x="628" y="935" on="1"/>
        <pt x="595" y="883" on="0"/>
        <pt x="510" y="830" on="0"/>
        <pt x="471" y="830" on="1"/>
        <pt x="445" y="830" on="0"/>
        <pt x="395" y="842" on="0"/>
        <pt x="346" y="856" on="0"/>
        <pt x="297" y="868" on="0"/>
        <pt x="272" y="868" on="1"/>
        <pt x="247" y="868" on="0"/>
        <pt x="200" y="853" on="0"/>
        <pt x="172" y="832" on="1"/>
      </contour>
    </TTGlyph>
    <TTGlyph name="Atilde.sc" xMin="7" yMin="0" xMax="690" yMax="769">
      <contour>
        <pt x="7" y="8" on="1"/>
        <pt x="243" y="577" on="1"/>
        <pt x="453" y="577" on="1"/>
        <pt x="690" y="8" on="1"/>
        <pt x="690" y="0" on="1"/>
        <pt x="551" y="0" on="1"/>
        <pt x="493" y="133" on="1"/>
        <pt x="203" y="133" on="1"/>
        <pt x="145" y="0" on="1"/>
        <pt x="7" y="0" on="1"/>
      </contour>
      <contour>
        <pt x="461" y="235" on="1"/>
        <pt x="400" y="376" on="1"/>
        <pt x="353" y="483" on="1"/>
        <pt x="341" y="483" on="1"/>
        <pt x="296" y="374" on="1"/>
        <pt x="235" y="235" on="1"/>
      </contour>
      <contour>
        <pt x="136" y="674" on="1"/>
        <pt x="166" y="722" on="0"/>
        <pt x="242" y="769" on="0"/>
        <pt x="277" y="769" on="1"/>
        <pt x="301" y="769" on="0"/>
        <pt x="346" y="760" on="0"/>
        <pt x="391" y="749" on="0"/>
        <pt x="436" y="740" on="0"/>
        <pt x="459" y="740" on="1"/>
        <pt x="481" y="740" on="0"/>
        <pt x="524" y="751" on="0"/>
        <pt x="551" y="768" on="1"/>
        <pt x="571" y="741" on="1"/>
        <pt x="540" y="693" on="0"/>
        <pt x="463" y="646" on="0"/>
        <pt x="428" y="646" on="1"/>
        <pt x="405" y="646" on="0"/>
        <pt x="359" y="655" on="0"/>
        <pt x="314" y="667" on="0"/>
        <pt x="268" y="676" on="0"/>
        <pt x="246" y="676" on="1"/>
        <pt x="223" y="676" on="0"/>
        <pt x="182" y="664" on="0"/>
        <pt x="157" y="647" on="1"/>
      </contour>
    </TTGlyph>
    <TTGlyph name="B" xMin="83" yMin="-10" xMax="695" yMax="749">
      <contour>
        <pt x="382" y="-10" on="1"/>
        <pt x="310" y="-10" on="0"/>
        <pt x="167" y="-3" on="0"/>
        <pt x="83" y="5" on="1"/>
        <pt x="83" y="735" on="1"/>
        <pt x="161" y="742" on="0"/>
        <pt x="292" y="749" on="0"/>
        <pt x="355" y="749" on="1"/>
        <pt x="438" y="749" on="0"/>
        <pt x="557" y="725" on="0"/>
        <pt x="634" y="676" on="0"/>
        <pt x="670" y="598" on="0"/>
        <pt x="670" y="544" on="1"/>
        <pt x="670" y="481" on="0"/>
        <pt x="601" y="395" on="0"/>
        <pt x="538" y="381" on="1"/>
        <pt x="538" y="377" on="1"/>
        <pt x="615" y="362" on="0"/>
        <pt x="695" y="271" on="0"/>
        <pt x="695" y="199" on="1"/>
        <pt x="695" y="92" on="0"/>
        <pt x="542" y="-10" on="0"/>
      </contour>
      <contour>
        <pt x="373" y="95" on="1"/>
        <pt x="464" y="95" on="0"/>
        <pt x="549" y="152" on="0"/>
        <pt x="549" y="213" on="1"/>
        <pt x="549" y="272" on="0"/>
        <pt x="471" y="327" on="0"/>
        <pt x="386" y="327" on="1"/>
        <pt x="225" y="327" on="1"/>
        <pt x="225" y="102" on="1"/>
        <pt x="235" y="100" on="0"/>
        <pt x="260" y="97" on="0"/>
        <pt x="294" y="95" on="0"/>
        <pt x="341" y="95" on="0"/>
      </contour>
      <contour>
        <pt x="374" y="423" on="1"/>
        <pt x="456" y="423" on="0"/>
        <pt x="525" y="474" on="0"/>
        <pt x="525" y="535" on="1"/>
        <pt x="525" y="596" on="0"/>
        <pt x="451" y="645" on="0"/>
        <pt x="361" y="645" on="1"/>
        <pt x="318" y="645" on="0"/>
        <pt x="252" y="642" on="0"/>
        <pt x="225" y="637" on="1"/>
        <pt x="225" y="423" on="1"/>
      </contour>
    </TTGlyph>
    <TTGlyph name="B.sc" xMin="78" yMin="-8" xMax="633" yMax="584">
      <contour>
        <pt x="354" y="-8" on="1"/>
        <pt x="287" y="-8" on="0"/>
        <pt x="156" y="-2" on="0"/>
        <pt x="78" y="4" on="1"/>
        <pt x="78" y="573" on="1"/>
        <pt x="149" y="578" on="0"/>
        <pt x="269" y="584" on="0"/>
        <pt x="327" y="584" on="1"/>
        <pt x="477" y="584" on="0"/>
        <pt x="611" y="508" on="0"/>
        <pt x="611" y="423" on="1"/>
        <pt x="611" y="375" on="0"/>
        <pt x="549" y="310" on="0"/>
        <pt x="492" y="298" on="1"/>
        <pt x="492" y="295" on="1"/>
        <pt x="561" y="283" on="0"/>
        <pt x="633" y="213" on="0"/>
        <pt x="633" y="157" on="1"/>
        <pt x="633" y="72" on="0"/>
        <pt x="497" y="-8" on="0"/>
      </contour>
      <contour>
        <pt x="344" y="87" on="1"/>
        <pt x="422" y="87" on="0"/>
        <pt x="494" y="127" on="0"/>
        <pt x="494" y="171" on="1"/>
        <pt x="494" y="213" on="0"/>
        <pt x="428" y="251" on="0"/>
        <pt x="356" y="251" on="1"/>
        <pt x="214" y="251" on="1"/>
        <pt x="214" y="91" on="1"/>
        <pt x="223" y="90" on="0"/>
        <pt x="244" y="88" on="0"/>
        <pt x="273" y="87" on="0"/>
        <pt x="314" y="87" on="0"/>
      </contour>
      <contour>
        <pt x="343" y="334" on="1"/>
        <pt x="414" y="334" on="0"/>
        <pt x="473" y="370" on="0"/>
        <pt x="473" y="413" on="1"/>
        <pt x="473" y="456" on="0"/>
        <pt x="410" y="490" on="0"/>
        <pt x="332" y="490" on="1"/>
        <pt x="295" y="490" on="0"/>
        <pt x="237" y="488" on="0"/>
        <pt x="214" y="485" on="1"/>
        <pt x="214" y="334" on="1"/>
      </contour>
    </TTGlyph>
    <TTGlyph name="C" xMin="46" yMin="-11" xMax="595" yMax="753">
      <contour>
        <pt x="422" y="-11" on="1"/>
        <pt x="46" y="-11" on="0"/>
        <pt x="46" y="368" on="1"/>
        <pt x="46" y="753" on="0"/>
        <pt x="412" y="753" on="1"/>
        <pt x="448" y="753" on="0"/>
        <pt x="540" y="743" on="0"/>
        <pt x="595" y="735" on="1"/>
        <pt x="595" y="615" on="1"/>
        <pt x="563" y="619" on="0"/>
        <pt x="514" y="625" on="0"/>
        <pt x="475" y="628" on="0"/>
        <pt x="443" y="630" on="0"/>
        <pt x="428" y="630" on="1"/>
        <pt x="365" y="630" on="0"/>
        <pt x="277" y="602" on="0"/>
        <pt x="223" y="539" on="0"/>
        <pt x="198" y="440" on="0"/>
        <pt x="198" y="369" on="1"/>
        <pt x="198" y="299" on="0"/>
        <pt x="222" y="201" on="0"/>
        <pt x="276" y="139" on="0"/>
        <pt x="361" y="111" on="0"/>
        <pt x="422" y="111" on="1"/>
        <pt x="440" y="111" on="0"/>
        <pt x="487" y="114" on="0"/>
        <pt x="536" y="119" on="0"/>
        <pt x="581" y="126" on="0"/>
        <pt x="595" y="129" on="1"/>
        <pt x="595" y="9" on="1"/>
        <pt x="556" y="0" on="0"/>
        <pt x="460" y="-11" on="0"/>
      </contour>
    </TTGlyph>
    <TTGlyph name="C.sc" xMin="46" yMin="-10" xMax="539" yMax="588">
      <contour>
        <pt x="385" y="-10" on="1"/>
        <pt x="213" y="-10" on="0"/>
        <pt x="46" y="137" on="0"/>
        <pt x="46" y="287" on="1"/>
        <pt x="46" y="588" on="0"/>
        <pt x="375" y="588" on="1"/>
        <pt x="411" y="588" on="0"/>
        <pt x="494" y="581" on="0"/>
        <pt x="539" y="575" on="1"/>
        <pt x="539" y="462" on="1"/>
        <pt x="491" y="467" on="0"/>
        <pt x="425" y="473" on="0"/>
        <pt x="391" y="473" on="1"/>
        <pt x="334" y="473" on="0"/>
        <pt x="257" y="454" on="0"/>
        <pt x="210" y="410" on="0"/>
        <pt x="191" y="339" on="0"/>
        <pt x="191" y="288" on="1"/>
        <pt x="191" y="238" on="0"/>
        <pt x="210" y="168" on="0"/>
        <pt x="255" y="125" on="0"/>
        <pt x="329" y="106" on="0"/>
        <pt x="385" y="106" on="1"/>
        <pt x="401" y="106" on="0"/>
        <pt x="444" y="108" on="0"/>
        <pt x="487" y="111" on="0"/>
        <pt x="527" y="116" on="0"/>
        <pt x="539" y="118" on="1"/>
        <pt x="539" y="4" on="1"/>
        <pt x="505" y="-2" on="0"/>
        <pt x="422" y="-10" on="0"/>
      </contour>
    </TTGlyph>
    <TTGlyph name="Cacute" xMin="46" yMin="-11" xMax="595" yMax="974">
      <contour>
        <pt x="422" y="-11" on="1"/>
        <pt x="46" y="-11" on="0"/>
        <pt x="46" y="368" on="1"/>
        <pt x="46" y="753" on="0"/>
        <pt x="412" y="753" on="1"/>
        <pt x="448" y="753" on="0"/>
        <pt x="540" y="743" on="0"/>
        <pt x="595" y="735" on="1"/>
        <pt x="595" y="615" on="1"/>
        <pt x="563" y="619" on="0"/>
        <pt x="514" y="625" on="0"/>
        <pt x="475" y="628" on="0"/>
        <pt x="443" y="630" on="0"/>
        <pt x="428" y="630" on="1"/>
        <pt x="365" y="630" on="0"/>
        <pt x="277" y="602" on="0"/>
        <pt x="223" y="539" on="0"/>
        <pt x="198" y="440" on="0"/>
        <pt x="198" y="369" on="1"/>
        <pt x="198" y="299" on="0"/>
        <pt x="222" y="201" on="0"/>
        <pt x="276" y="139" on="0"/>
        <pt x="361" y="111" on="0"/>
        <pt x="422" y="111" on="1"/>
        <pt x="440" y="111" on="0"/>
        <pt x="487" y="114" on="0"/>
        <pt x="536" y="119" on="0"/>
        <pt x="581" y="126" on="0"/>
        <pt x="595" y="129" on="1"/>
        <pt x="595" y="9" on="1"/>
        <pt x="556" y="0" on="0"/>
        <pt x="460" y="-11" on="0"/>
      </contour>
      <contour>
        <pt x="303" y="814" on="1"/>
        <pt x="373" y="974" on="1"/>
        <pt x="522" y="974" on="1"/>
        <pt x="411" y="806" on="1"/>
      </contour>
    </TTGlyph>
    <TTGlyph name="Cacute.sc" xMin="46" yMin="-10" xMax="539" yMax="770">
      <contour>
        <pt x="385" y="-10" on="1"/>
        <pt x="213" y="-10" on="0"/>
        <pt x="46" y="137" on="0"/>
        <pt x="46" y="287" on="1"/>
        <pt x="46" y="588" on="0"/>
        <pt x="374" y="588" on="1"/>
        <pt x="406" y="588" on="0"/>
        <pt x="487" y="582" on="0"/>
        <pt x="539" y="575" on="1"/>
        <pt x="539" y="462" on="1"/>
        <pt x="509" y="465" on="0"/>
        <pt x="464" y="469" on="0"/>
        <pt x="430" y="472" on="0"/>
        <pt x="403" y="473" on="0"/>
        <pt x="390" y="473" on="1"/>
        <pt x="334" y="473" on="0"/>
        <pt x="258" y="455" on="0"/>
        <pt x="212" y="411" on="0"/>
        <pt x="191" y="340" on="0"/>
        <pt x="191" y="288" on="1"/>
        <pt x="191" y="237" on="0"/>
        <pt x="211" y="167" on="0"/>
        <pt x="257" y="124" on="0"/>
        <pt x="331" y="106" on="0"/>
        <pt x="385" y="106" on="1"/>
        <pt x="400" y="106" on="0"/>
        <pt x="442" y="108" on="0"/>
        <pt x="486" y="111" on="0"/>
        <pt x="526" y="116" on="0"/>
        <pt x="539" y="118" on="1"/>
        <pt x="539" y="4" on="1"/>
        <pt x="503" y="-3" on="0"/>
        <pt x="418" y="-10" on="0"/>
      </contour>
      <contour>
        <pt x="272" y="637" on="1"/>
        <pt x="332" y="770" on="1"/>
        <pt x="475" y="770" on="1"/>
        <pt x="374" y="630" on="1"/>
      </contour>
    </TTGlyph>
    <TTGlyph name="Ccaron" xMin="46" yMin="-11" xMax="595" yMax="986">
      <contour>
        <pt x="422" y="-11" on="1"/>
        <pt x="46" y="-11" on="0"/>
        <pt x="46" y="368" on="1"/>
        <pt x="46" y="753" on="0"/>
        <pt x="412" y="753" on="1"/>
        <pt x="448" y="753" on="0"/>
        <pt x="540" y="743" on="0"/>
        <pt x="595" y="735" on="1"/>
        <pt x="595" y="615" on="1"/>
        <pt x="563" y="619" on="0"/>
        <pt x="514" y="625" on="0"/>
        <pt x="475" y="628" on="0"/>
        <pt x="443" y="630" on="0"/>
        <pt x="428" y="630" on="1"/>
        <pt x="365" y="630" on="0"/>
        <pt x="277" y="602" on="0"/>
        <pt x="223" y="539" on="0"/>
        <pt x="198" y="440" on="0"/>
        <pt x="198" y="369" on="1"/>
        <pt x="198" y="299" on="0"/>
        <pt x="222" y="201" on="0"/>
        <pt x="276" y="139" on="0"/>
        <pt x="361" y="111" on="0"/>
        <pt x="422" y="111" on="1"/>
        <pt x="440" y="111" on="0"/>
        <pt x="487" y="114" on="0"/>
        <pt x="536" y="119" on="0"/>
        <pt x="581" y="126" on="0"/>
        <pt x="595" y="129" on="1"/>
        <pt x="595" y="9" on="1"/>
        <pt x="556" y="0" on="0"/>
        <pt x="460" y="-11" on="0"/>
      </contour>
      <contour>
        <pt x="165" y="986" on="1"/>
        <pt x="364" y="908" on="1"/>
        <pt x="562" y="986" on="1"/>
        <pt x="562" y="884" on="1"/>
        <pt x="362" y="806" on="1"/>
        <pt x="165" y="884" on="1"/>
      </contour>
    </TTGlyph>
    <TTGlyph name="Ccaron.sc" xMin="46" yMin="-10" xMax="539" yMax="782">
      <contour>
        <pt x="385" y="-10" on="1"/>
        <pt x="213" y="-10" on="0"/>
        <pt x="46" y="137" on="0"/>
        <pt x="46" y="287" on="1"/>
        <pt x="46" y="588" on="0"/>
        <pt x="374" y="588" on="1"/>
        <pt x="406" y="588" on="0"/>
        <pt x="487" y="582" on="0"/>
        <pt x="539" y="575" on="1"/>
        <pt x="539" y="462" on="1"/>
        <pt x="509" y="465" on="0"/>
        <pt x="464" y="469" on="0"/>
        <pt x="430" y="472" on="0"/>
        <pt x="403" y="473" on="0"/>
        <pt x="390" y="473" on="1"/>
        <pt x="334" y="473" on="0"/>
        <pt x="258" y="455" on="0"/>
        <pt x="212" y="411" on="0"/>
        <pt x="191" y="340" on="0"/>
        <pt x="191" y="288" on="1"/>
        <pt x="191" y="237" on="0"/>
        <pt x="211" y="167" on="0"/>
        <pt x="257" y="124" on="0"/>
        <pt x="331" y="106" on="0"/>
        <pt x="385" y="106" on="1"/>
        <pt x="400" y="106" on="0"/>
        <pt x="442" y="108" on="0"/>
        <pt x="486" y="111" on="0"/>
        <pt x="526" y="116" on="0"/>
        <pt x="539" y="118" on="1"/>
        <pt x="539" y="4" on="1"/>
        <pt x="503" y="-3" on="0"/>
        <pt x="418" y="-10" on="0"/>
      </contour>
      <contour>
        <pt x="148" y="782" on="1"/>
        <pt x="330" y="720" on="1"/>
        <pt x="511" y="782" on="1"/>
        <pt x="511" y="689" on="1"/>
        <pt x="328" y="627" on="1"/>
        <pt x="148" y="689" on="1"/>
      </contour>
    </TTGlyph>
    <TTGlyph name="Ccedilla" xMin="46" yMin="-220" xMax="595" yMax="753">
      <contour>
        <pt x="348" y="-220" on="1"/>
        <pt x="325" y="-220" on="0"/>
        <pt x="269" y="-213" on="0"/>
        <pt x="242" y="-208" on="1"/>
        <pt x="242" y="-121" on="1"/>
        <pt x="260" y="-126" on="0"/>
        <pt x="303" y="-133" on="0"/>
        <pt x="323" y="-133" on="1"/>
        <pt x="355" y="-133" on="0"/>
        <pt x="380" y="-113" on="0"/>
        <pt x="380" y="-91" on="1"/>
        <pt x="380" y="-75" on="0"/>
        <pt x="362" y="-34" on="0"/>
        <pt x="342" y="-6" on="1"/>
        <pt x="46" y="31" on="0"/>
        <pt x="46" y="368" on="1"/>
        <pt x="46" y="753" on="0"/>
        <pt x="412" y="753" on="1"/>
        <pt x="448" y="753" on="0"/>
        <pt x="540" y="743" on="0"/>
        <pt x="595" y="735" on="1"/>
        <pt x="595" y="615" on="1"/>
        <pt x="563" y="619" on="0"/>
        <pt x="514" y="625" on="0"/>
        <pt x="475" y="628" on="0"/>
        <pt x="443" y="630" on="0"/>
        <pt x="428" y="630" on="1"/>
        <pt x="365" y="630" on="0"/>
        <pt x="277" y="602" on="0"/>
        <pt x="223" y="539" on="0"/>
        <pt x="198" y="440" on="0"/>
        <pt x="198" y="369" on="1"/>
        <pt x="198" y="299" on="0"/>
        <pt x="222" y="201" on="0"/>
        <pt x="276" y="139" on="0"/>
        <pt x="361" y="111" on="0"/>
        <pt x="422" y="111" on="1"/>
        <pt x="440" y="111" on="0"/>
        <pt x="487" y="114" on="0"/>
        <pt x="536" y="119" on="0"/>
        <pt x="581" y="126" on="0"/>
        <pt x="595" y="129" on="1"/>
        <pt x="595" y="9" on="1"/>
        <pt x="560" y="1" on="0"/>
        <pt x="474" y="-9" on="0"/>
        <pt x="438" y="-11" on="1"/>
        <pt x="461" y="-43" on="0"/>
        <pt x="478" y="-84" on="0"/>
        <pt x="478" y="-106" on="1"/>
        <pt x="478" y="-160" on="0"/>
        <pt x="408" y="-220" on="0"/>
      </contour>
    </TTGlyph>
    <TTGlyph name="Ccedilla.sc" xMin="46" yMin="-172" xMax="539" yMax="588">
      <contour>
        <pt x="320" y="-172" on="1"/>
        <pt x="300" y="-172" on="0"/>
        <pt x="250" y="-166" on="0"/>
        <pt x="225" y="-162" on="1"/>
        <pt x="225" y="-82" on="1"/>
        <pt x="242" y="-86" on="0"/>
        <pt x="280" y="-92" on="0"/>
        <pt x="300" y="-92" on="1"/>
        <pt x="326" y="-92" on="0"/>
        <pt x="345" y="-79" on="0"/>
        <pt x="345" y="-65" on="1"/>
        <pt x="345" y="-56" on="0"/>
        <pt x="333" y="-30" on="0"/>
        <pt x="318" y="-7" on="1"/>
        <pt x="46" y="15" on="0"/>
        <pt x="46" y="287" on="1"/>
        <pt x="46" y="588" on="0"/>
        <pt x="375" y="588" on="1"/>
        <pt x="406" y="588" on="0"/>
        <pt x="488" y="582" on="0"/>
        <pt x="539" y="575" on="1"/>
        <pt x="539" y="462" on="1"/>
        <pt x="509" y="465" on="0"/>
        <pt x="464" y="469" on="0"/>
        <pt x="430" y="472" on="0"/>
        <pt x="404" y="473" on="0"/>
        <pt x="391" y="473" on="1"/>
        <pt x="335" y="473" on="0"/>
        <pt x="259" y="455" on="0"/>
        <pt x="212" y="411" on="0"/>
        <pt x="191" y="340" on="0"/>
        <pt x="191" y="288" on="1"/>
        <pt x="191" y="237" on="0"/>
        <pt x="211" y="167" on="0"/>
        <pt x="257" y="124" on="0"/>
        <pt x="331" y="106" on="0"/>
        <pt x="385" y="106" on="1"/>
        <pt x="400" y="106" on="0"/>
        <pt x="443" y="108" on="0"/>
        <pt x="487" y="111" on="0"/>
        <pt x="527" y="116" on="0"/>
        <pt x="539" y="118" on="1"/>
        <pt x="539" y="4" on="1"/>
        <pt x="509" y="-1" on="0"/>
        <pt x="438" y="-9" on="0"/>
        <pt x="408" y="-10" on="1"/>
        <pt x="425" y="-34" on="0"/>
        <pt x="437" y="-65" on="0"/>
        <pt x="437" y="-82" on="1"/>
        <pt x="437" y="-125" on="0"/>
        <pt x="374" y="-172" on="0"/>
      </contour>
    </TTGlyph>
    <TTGlyph name="Ccircumflex" xMin="46" yMin="-11" xMax="595" yMax="986">
      <contour>
        <pt x="422" y="-11" on="1"/>
        <pt x="46" y="-11" on="0"/>
        <pt x="46" y="368" on="1"/>
        <pt x="46" y="753" on="0"/>
        <pt x="412" y="753" on="1"/>
        <pt x="448" y="753" on="0"/>
        <pt x="540" y="743" on="0"/>
        <pt x="595" y="735" on="1"/>
        <pt x="595" y="615" on="1"/>
        <pt x="563" y="619" on="0"/>
        <pt x="514" y="625" on="0"/>
        <pt x="475" y="628" on="0"/>
        <pt x="443" y="630" on="0"/>
        <pt x="428" y="630" on="1"/>
        <pt x="365" y="630" on="0"/>
        <pt x="277" y="602" on="0"/>
        <pt x="223" y="539" on="0"/>
        <pt x="198" y="440" on="0"/>
        <pt x="198" y="369" on="1"/>
        <pt x="198" y="299" on="0"/>
        <pt x="222" y="201" on="0"/>
        <pt x="276" y="139" on="0"/>
        <pt x="361" y="111" on="0"/>
        <pt x="422" y="111" on="1"/>
        <pt x="440" y="111" on="0"/>
        <pt x="487" y="114" on="0"/>
        <pt x="536" y="119" on="0"/>
        <pt x="581" y="126" on="0"/>
        <pt x="595" y="129" on="1"/>
        <pt x="595" y="9" on="1"/>
        <pt x="556" y="0" on="0"/>
        <pt x="460" y="-11" on="0"/>
      </contour>
      <contour>
        <pt x="164" y="908" on="1"/>
        <pt x="361" y="986" on="1"/>
        <pt x="561" y="908" on="1"/>
        <pt x="561" y="806" on="1"/>
        <pt x="362" y="884" on="1"/>
        <pt x="164" y="806" on="1"/>
      </contour>
    </TTGlyph>
    <TTGlyph name="Ccircumflex.sc" xMin="46" yMin="-10" xMax="539" yMax="782">
      <contour>
        <pt x="385" y="-10" on="1"/>
        <pt x="213" y="-10" on="0"/>
        <pt x="46" y="137" on="0"/>
        <pt x="46" y="287" on="1"/>
        <pt x="46" y="588" on="0"/>
        <pt x="374" y="588" on="1"/>
        <pt x="406" y="588" on="0"/>
        <pt x="487" y="582" on="0"/>
        <pt x="539" y="575" on="1"/>
        <pt x="539" y="462" on="1"/>
        <pt x="509" y="465" on="0"/>
        <pt x="464" y="469" on="0"/>
        <pt x="430" y="472" on="0"/>
        <pt x="403" y="473" on="0"/>
        <pt x="390" y="473" on="1"/>
        <pt x="334" y="473" on="0"/>
        <pt x="258" y="455" on="0"/>
        <pt x="212" y="411" on="0"/>
        <pt x="191" y="340" on="0"/>
        <pt x="191" y="288" on="1"/>
        <pt x="191" y="237" on="0"/>
        <pt x="211" y="167" on="0"/>
        <pt x="257" y="124" on="0"/>
        <pt x="331" y="106" on="0"/>
        <pt x="385" y="106" on="1"/>
        <pt x="400" y="106" on="0"/>
        <pt x="442" y="108" on="0"/>
        <pt x="486" y="111" on="0"/>
        <pt x="526" y="116" on="0"/>
        <pt x="539" y="118" on="1"/>
        <pt x="539" y="4" on="1"/>
        <pt x="503" y="-3" on="0"/>
        <pt x="418" y="-10" on="0"/>
      </contour>
      <contour>
        <pt x="147" y="720" on="1"/>
        <pt x="327" y="782" on="1"/>
        <pt x="510" y="720" on="1"/>
        <pt x="510" y="627" on="1"/>
        <pt x="329" y="688" on="1"/>
        <pt x="147" y="627" on="1"/>
      </contour>
    </TTGlyph>
    <TTGlyph name="Cdotaccent" xMin="46" yMin="-11" xMax="595" yMax="971">
      <contour>
        <pt x="379" y="809" on="1"/>
        <pt x="334" y="809" on="0"/>
        <pt x="295" y="847" on="0"/>
        <pt x="295" y="890" on="1"/>
        <pt x="295" y="932" on="0"/>
        <pt x="334" y="971" on="0"/>
        <pt x="379" y="971" on="1"/>
        <pt x="423" y="971" on="0"/>
        <pt x="462" y="932" on="0"/>
        <pt x="462" y="890" on="1"/>
        <pt x="462" y="848" on="0"/>
        <pt x="423" y="809" on="0"/>
      </contour>
      <contour>
        <pt x="422" y="-11" on="1"/>
        <pt x="46" y="-11" on="0"/>
        <pt x="46" y="368" on="1"/>
        <pt x="46" y="753" on="0"/>
        <pt x="412" y="753" on="1"/>
        <pt x="448" y="753" on="0"/>
        <pt x="540" y="743" on="0"/>
        <pt x="595" y="735" on="1"/>
        <pt x="595" y="615" on="1"/>
        <pt x="563" y="619" on="0"/>
        <pt x="514" y="625" on="0"/>
        <pt x="475" y="628" on="0"/>
        <pt x="443" y="630" on="0"/>
        <pt x="428" y="630" on="1"/>
        <pt x="365" y="630" on="0"/>
        <pt x="277" y="602" on="0"/>
        <pt x="223" y="539" on="0"/>
        <pt x="198" y="440" on="0"/>
        <pt x="198" y="369" on="1"/>
        <pt x="198" y="299" on="0"/>
        <pt x="222" y="201" on="0"/>
        <pt x="276" y="139" on="0"/>
        <pt x="361" y="111" on="0"/>
        <pt x="422" y="111" on="1"/>
        <pt x="440" y="111" on="0"/>
        <pt x="487" y="114" on="0"/>
        <pt x="536" y="119" on="0"/>
        <pt x="581" y="126" on="0"/>
        <pt x="595" y="129" on="1"/>
        <pt x="595" y="9" on="1"/>
        <pt x="556" y="0" on="0"/>
        <pt x="460" y="-11" on="0"/>
      </contour>
    </TTGlyph>
    <TTGlyph name="Cdotaccent.sc" xMin="46" yMin="-10" xMax="539" yMax="776">
      <contour>
        <pt x="385" y="-10" on="1"/>
        <pt x="213" y="-10" on="0"/>
        <pt x="46" y="137" on="0"/>
        <pt x="46" y="287" on="1"/>
        <pt x="46" y="588" on="0"/>
        <pt x="374" y="588" on="1"/>
        <pt x="406" y="588" on="0"/>
        <pt x="487" y="582" on="0"/>
        <pt x="539" y="575" on="1"/>
        <pt x="539" y="462" on="1"/>
        <pt x="509" y="465" on="0"/>
        <pt x="464" y="469" on="0"/>
        <pt x="430" y="472" on="0"/>
        <pt x="403" y="473" on="0"/>
        <pt x="390" y="473" on="1"/>
        <pt x="334" y="473" on="0"/>
        <pt x="258" y="455" on="0"/>
        <pt x="212" y="411" on="0"/>
        <pt x="191" y="340" on="0"/>
        <pt x="191" y="288" on="1"/>
        <pt x="191" y="237" on="0"/>
        <pt x="211" y="167" on="0"/>
        <pt x="257" y="124" on="0"/>
        <pt x="331" y="106" on="0"/>
        <pt x="385" y="106" on="1"/>
        <pt x="400" y="106" on="0"/>
        <pt x="442" y="108" on="0"/>
        <pt x="486" y="111" on="0"/>
        <pt x="526" y="116" on="0"/>
        <pt x="539" y="118" on="1"/>
        <pt x="539" y="4" on="1"/>
        <pt x="503" y="-3" on="0"/>
        <pt x="418" y="-10" on="0"/>
      </contour>
      <contour>
        <pt x="345" y="627" on="1"/>
        <pt x="303" y="627" on="0"/>
        <pt x="267" y="662" on="0"/>
        <pt x="267" y="702" on="1"/>
        <pt x="267" y="740" on="0"/>
        <pt x="303" y="776" on="0"/>
        <pt x="345" y="776" on="1"/>
        <pt x="387" y="776" on="0"/>
        <pt x="423" y="739" on="0"/>
        <pt x="423" y="702" on="1"/>
        <pt x="423" y="664" on="0"/>
        <pt x="387" y="627" on="0"/>
      </contour>
    </TTGlyph>
    <TTGlyph name="D" xMin="83" yMin="-9" xMax="759" yMax="749">
      <contour>
        <pt x="306" y="-9" on="1"/>
        <pt x="272" y="-9" on="0"/>
        <pt x="205" y="-7" on="0"/>
        <pt x="146" y="-4" on="0"/>
        <pt x="98" y="2" on="0"/>
        <pt x="83" y="5" on="1"/>
        <pt x="83" y="739" on="1"/>
        <pt x="155" y="744" on="0"/>
        <pt x="293" y="749" on="0"/>
        <pt x="338" y="749" on="1"/>
        <pt x="556" y="749" on="0"/>
        <pt x="759" y="566" on="0"/>
        <pt x="759" y="370" on="1"/>
        <pt x="759" y="270" on="0"/>
        <pt x="707" y="126" on="0"/>
        <pt x="598" y="34" on="0"/>
        <pt x="426" y="-9" on="0"/>
      </contour>
      <contour>
        <pt x="361" y="109" on="1"/>
        <pt x="427" y="109" on="0"/>
        <pt x="521" y="138" on="0"/>
        <pt x="581" y="200" on="0"/>
        <pt x="608" y="299" on="0"/>
        <pt x="608" y="370" on="1"/>
        <pt x="608" y="439" on="0"/>
        <pt x="580" y="538" on="0"/>
        <pt x="520" y="601" on="0"/>
        <pt x="425" y="630" on="0"/>
        <pt x="358" y="630" on="1"/>
        <pt x="334" y="630" on="0"/>
        <pt x="266" y="627" on="0"/>
        <pt x="231" y="624" on="1"/>
        <pt x="231" y="118" on="1"/>
        <pt x="264" y="113" on="0"/>
        <pt x="326" y="109" on="0"/>
      </contour>
    </TTGlyph>
    <TTGlyph name="D.sc" xMin="78" yMin="-7" xMax="690" yMax="584">
      <contour>
        <pt x="313" y="-7" on="1"/>
        <pt x="279" y="-7" on="0"/>
        <pt x="210" y="-6" on="0"/>
        <pt x="147" y="-3" on="0"/>
        <pt x="95" y="1" on="0"/>
        <pt x="78" y="4" on="1"/>
        <pt x="78" y="576" on="1"/>
        <pt x="144" y="580" on="0"/>
        <pt x="269" y="584" on="0"/>
        <pt x="313" y="584" on="1"/>
        <pt x="506" y="584" on="0"/>
        <pt x="690" y="440" on="0"/>
        <pt x="690" y="288" on="1"/>
        <pt x="690" y="136" on="0"/>
        <pt x="508" y="-7" on="0"/>
      </contour>
      <contour>
        <pt x="335" y="104" on="1"/>
        <pt x="392" y="104" on="0"/>
        <pt x="473" y="124" on="0"/>
        <pt x="523" y="168" on="0"/>
        <pt x="546" y="238" on="0"/>
        <pt x="546" y="288" on="1"/>
        <pt x="546" y="337" on="0"/>
        <pt x="522" y="407" on="0"/>
        <pt x="470" y="452" on="0"/>
        <pt x="389" y="472" on="0"/>
        <pt x="331" y="472" on="1"/>
        <pt x="309" y="472" on="0"/>
        <pt x="252" y="470" on="0"/>
        <pt x="220" y="468" on="1"/>
        <pt x="220" y="111" on="1"/>
        <pt x="248" y="107" on="0"/>
        <pt x="302" y="104" on="0"/>
      </contour>
    </TTGlyph>
    <TTGlyph name="Dcaron" xMin="83" yMin="-9" xMax="759" yMax="986">
      <contour>
        <pt x="188" y="986" on="1"/>
        <pt x="387" y="908" on="1"/>
        <pt x="585" y="986" on="1"/>
        <pt x="585" y="884" on="1"/>
        <pt x="385" y="806" on="1"/>
        <pt x="188" y="884" on="1"/>
      </contour>
      <contour>
        <pt x="306" y="-9" on="1"/>
        <pt x="272" y="-9" on="0"/>
        <pt x="205" y="-7" on="0"/>
        <pt x="146" y="-4" on="0"/>
        <pt x="98" y="2" on="0"/>
        <pt x="83" y="5" on="1"/>
        <pt x="83" y="739" on="1"/>
        <pt x="155" y="744" on="0"/>
        <pt x="293" y="749" on="0"/>
        <pt x="338" y="749" on="1"/>
        <pt x="556" y="749" on="0"/>
        <pt x="759" y="566" on="0"/>
        <pt x="759" y="370" on="1"/>
        <pt x="759" y="270" on="0"/>
        <pt x="707" y="126" on="0"/>
        <pt x="598" y="34" on="0"/>
        <pt x="426" y="-9" on="0"/>
      </contour>
      <contour>
        <pt x="361" y="109" on="1"/>
        <pt x="427" y="109" on="0"/>
        <pt x="521" y="138" on="0"/>
        <pt x="581" y="200" on="0"/>
        <pt x="608" y="299" on="0"/>
        <pt x="608" y="370" on="1"/>
        <pt x="608" y="439" on="0"/>
        <pt x="580" y="538" on="0"/>
        <pt x="520" y="601" on="0"/>
        <pt x="425" y="630" on="0"/>
        <pt x="358" y="630" on="1"/>
        <pt x="334" y="630" on="0"/>
        <pt x="266" y="627" on="0"/>
        <pt x="231" y="624" on="1"/>
        <pt x="231" y="118" on="1"/>
        <pt x="264" y="113" on="0"/>
        <pt x="326" y="109" on="0"/>
      </contour>
    </TTGlyph>
    <TTGlyph name="Dcaron.sc" xMin="78" yMin="-7" xMax="690" yMax="782">
      <contour>
        <pt x="313" y="-7" on="1"/>
        <pt x="279" y="-7" on="0"/>
        <pt x="210" y="-6" on="0"/>
        <pt x="147" y="-3" on="0"/>
        <pt x="95" y="1" on="0"/>
        <pt x="78" y="4" on="1"/>
        <pt x="78" y="576" on="1"/>
        <pt x="144" y="580" on="0"/>
        <pt x="269" y="584" on="0"/>
        <pt x="313" y="584" on="1"/>
        <pt x="506" y="584" on="0"/>
        <pt x="690" y="440" on="0"/>
        <pt x="690" y="288" on="1"/>
        <pt x="690" y="136" on="0"/>
        <pt x="508" y="-7" on="0"/>
      </contour>
      <contour>
        <pt x="335" y="104" on="1"/>
        <pt x="392" y="104" on="0"/>
        <pt x="473" y="124" on="0"/>
        <pt x="523" y="168" on="0"/>
        <pt x="546" y="238" on="0"/>
        <pt x="546" y="288" on="1"/>
        <pt x="546" y="337" on="0"/>
        <pt x="522" y="407" on="0"/>
        <pt x="470" y="452" on="0"/>
        <pt x="389" y="472" on="0"/>
        <pt x="331" y="472" on="1"/>
        <pt x="309" y="472" on="0"/>
        <pt x="252" y="470" on="0"/>
        <pt x="220" y="468" on="1"/>
        <pt x="220" y="111" on="1"/>
        <pt x="248" y="107" on="0"/>
        <pt x="302" y="104" on="0"/>
      </contour>
      <contour>
        <pt x="176" y="689" on="1"/>
        <pt x="176" y="782" on="1"/>
        <pt x="357" y="720" on="1"/>
        <pt x="539" y="782" on="1"/>
        <pt x="539" y="689" on="1"/>
        <pt x="355" y="627" on="1"/>
      </contour>
    </TTGlyph>
    <TTGlyph name="Dcroat" xMin="6" yMin="-9" xMax="776" yMax="749">
      <contour>
        <pt x="6" y="429" on="1"/>
        <pt x="100" y="429" on="1"/>
        <pt x="100" y="739" on="1"/>
        <pt x="172" y="744" on="0"/>
        <pt x="310" y="749" on="0"/>
        <pt x="355" y="749" on="1"/>
        <pt x="573" y="749" on="0"/>
        <pt x="776" y="566" on="0"/>
        <pt x="776" y="370" on="1"/>
        <pt x="776" y="270" on="0"/>
        <pt x="724" y="126" on="0"/>
        <pt x="615" y="34" on="0"/>
        <pt x="443" y="-9" on="0"/>
        <pt x="323" y="-9" on="1"/>
        <pt x="289" y="-9" on="0"/>
        <pt x="222" y="-7" on="0"/>
        <pt x="163" y="-4" on="0"/>
        <pt x="115" y="2" on="0"/>
        <pt x="100" y="5" on="1"/>
        <pt x="100" y="315" on="1"/>
        <pt x="6" y="315" on="1"/>
      </contour>
      <contour>
        <pt x="378" y="109" on="1"/>
        <pt x="444" y="109" on="0"/>
        <pt x="538" y="138" on="0"/>
        <pt x="598" y="200" on="0"/>
        <pt x="625" y="299" on="0"/>
        <pt x="625" y="370" on="1"/>
        <pt x="625" y="439" on="0"/>
        <pt x="597" y="538" on="0"/>
        <pt x="537" y="601" on="0"/>
        <pt x="442" y="630" on="0"/>
        <pt x="375" y="630" on="1"/>
        <pt x="351" y="630" on="0"/>
        <pt x="283" y="627" on="0"/>
        <pt x="248" y="624" on="1"/>
        <pt x="248" y="429" on="1"/>
        <pt x="406" y="429" on="1"/>
        <pt x="406" y="315" on="1"/>
        <pt x="248" y="315" on="1"/>
        <pt x="248" y="118" on="1"/>
        <pt x="281" y="113" on="0"/>
        <pt x="343" y="109" on="0"/>
      </contour>
    </TTGlyph>
    <TTGlyph name="Dcroat.sc" xMin="16" yMin="-7" xMax="709" yMax="584">
      <contour>
        <pt x="16" y="344" on="1"/>
        <pt x="98" y="344" on="1"/>
        <pt x="98" y="576" on="1"/>
        <pt x="167" y="580" on="0"/>
        <pt x="291" y="584" on="0"/>
        <pt x="332" y="584" on="1"/>
        <pt x="527" y="584" on="0"/>
        <pt x="709" y="441" on="0"/>
        <pt x="709" y="288" on="1"/>
        <pt x="709" y="209" on="0"/>
        <pt x="663" y="97" on="0"/>
        <pt x="564" y="26" on="0"/>
        <pt x="409" y="-7" on="0"/>
        <pt x="300" y="-7" on="1"/>
        <pt x="269" y="-7" on="0"/>
        <pt x="209" y="-6" on="0"/>
        <pt x="155" y="-3" on="0"/>
        <pt x="111" y="1" on="0"/>
        <pt x="98" y="4" on="1"/>
        <pt x="98" y="237" on="1"/>
        <pt x="16" y="237" on="1"/>
      </contour>
      <contour>
        <pt x="355" y="104" on="1"/>
        <pt x="412" y="104" on="0"/>
        <pt x="492" y="124" on="0"/>
        <pt x="542" y="167" on="0"/>
        <pt x="565" y="237" on="0"/>
        <pt x="565" y="288" on="1"/>
        <pt x="565" y="338" on="0"/>
        <pt x="541" y="408" on="0"/>
        <pt x="490" y="452" on="0"/>
        <pt x="409" y="472" on="0"/>
        <pt x="351" y="472" on="1"/>
        <pt x="331" y="472" on="0"/>
        <pt x="272" y="470" on="0"/>
        <pt x="240" y="468" on="1"/>
        <pt x="240" y="344" on="1"/>
        <pt x="373" y="344" on="1"/>
        <pt x="373" y="237" on="1"/>
        <pt x="240" y="237" on="1"/>
        <pt x="240" y="111" on="1"/>
        <pt x="268" y="107" on="0"/>
        <pt x="323" y="104" on="0"/>
      </contour>
    </TTGlyph>
    <TTGlyph name="Ddotbelow" xMin="83" yMin="-198" xMax="759" yMax="749">
      <contour>
        <pt x="387" y="-198" on="1"/>
        <pt x="352" y="-198" on="0"/>
        <pt x="320" y="-168" on="0"/>
        <pt x="320" y="-133" on="1"/>
        <pt x="320" y="-98" on="0"/>
        <pt x="352" y="-67" on="0"/>
        <pt x="387" y="-67" on="1"/>
        <pt x="424" y="-67" on="0"/>
        <pt x="456" y="-99" on="0"/>
        <pt x="456" y="-133" on="1"/>
        <pt x="456" y="-167" on="0"/>
        <pt x="424" y="-198" on="0"/>
      </contour>
      <contour>
        <pt x="306" y="-9" on="1"/>
        <pt x="272" y="-9" on="0"/>
        <pt x="205" y="-7" on="0"/>
        <pt x="146" y="-4" on="0"/>
        <pt x="98" y="2" on="0"/>
        <pt x="83" y="5" on="1"/>
        <pt x="83" y="739" on="1"/>
        <pt x="155" y="744" on="0"/>
        <pt x="293" y="749" on="0"/>
        <pt x="338" y="749" on="1"/>
        <pt x="556" y="749" on="0"/>
        <pt x="759" y="566" on="0"/>
        <pt x="759" y="370" on="1"/>
        <pt x="759" y="270" on="0"/>
        <pt x="707" y="126" on="0"/>
        <pt x="598" y="34" on="0"/>
        <pt x="426" y="-9" on="0"/>
      </contour>
      <contour>
        <pt x="361" y="109" on="1"/>
        <pt x="427" y="109" on="0"/>
        <pt x="521" y="138" on="0"/>
        <pt x="581" y="200" on="0"/>
        <pt x="608" y="299" on="0"/>
        <pt x="608" y="370" on="1"/>
        <pt x="608" y="439" on="0"/>
        <pt x="580" y="538" on="0"/>
        <pt x="520" y="601" on="0"/>
        <pt x="425" y="630" on="0"/>
        <pt x="358" y="630" on="1"/>
        <pt x="334" y="630" on="0"/>
        <pt x="266" y="627" on="0"/>
        <pt x="231" y="624" on="1"/>
        <pt x="231" y="118" on="1"/>
        <pt x="264" y="113" on="0"/>
        <pt x="326" y="109" on="0"/>
      </contour>
    </TTGlyph>
    <TTGlyph name="Ddotbelow.sc" xMin="78" yMin="-161" xMax="690" yMax="584">
      <contour>
        <pt x="313" y="-7" on="1"/>
        <pt x="279" y="-7" on="0"/>
        <pt x="210" y="-6" on="0"/>
        <pt x="147" y="-3" on="0"/>
        <pt x="95" y="1" on="0"/>
        <pt x="78" y="4" on="1"/>
        <pt x="78" y="576" on="1"/>
        <pt x="144" y="580" on="0"/>
        <pt x="269" y="584" on="0"/>
        <pt x="313" y="584" on="1"/>
        <pt x="506" y="584" on="0"/>
        <pt x="690" y="440" on="0"/>
        <pt x="690" y="288" on="1"/>
        <pt x="690" y="136" on="0"/>
        <pt x="508" y="-7" on="0"/>
      </contour>
      <contour>
        <pt x="335" y="104" on="1"/>
        <pt x="392" y="104" on="0"/>
        <pt x="473" y="124" on="0"/>
        <pt x="523" y="168" on="0"/>
        <pt x="546" y="238" on="0"/>
        <pt x="546" y="288" on="1"/>
        <pt x="546" y="337" on="0"/>
        <pt x="522" y="407" on="0"/>
        <pt x="470" y="452" on="0"/>
        <pt x="389" y="472" on="0"/>
        <pt x="331" y="472" on="1"/>
        <pt x="309" y="472" on="0"/>
        <pt x="252" y="470" on="0"/>
        <pt x="220" y="468" on="1"/>
        <pt x="220" y="111" on="1"/>
        <pt x="248" y="107" on="0"/>
        <pt x="302" y="104" on="0"/>
      </contour>
      <contour>
        <pt x="357" y="-161" on="1"/>
        <pt x="324" y="-161" on="0"/>
        <pt x="294" y="-133" on="0"/>
        <pt x="294" y="-104" on="1"/>
        <pt x="294" y="-73" on="0"/>
        <pt x="324" y="-45" on="0"/>
        <pt x="357" y="-45" on="1"/>
        <pt x="390" y="-45" on="0"/>
        <pt x="419" y="-74" on="0"/>
        <pt x="419" y="-104" on="1"/>
        <pt x="419" y="-133" on="0"/>
        <pt x="390" y="-161" on="0"/>
      </contour>
    </TTGlyph>
    <TTGlyph name="Delta" xMin="24" yMin="0" xMax="823" yMax="740">
      <contour>
        <pt x="337" y="740" on="1"/>
        <pt x="510" y="740" on="1"/>
        <pt x="823" y="0" on="1"/>
        <pt x="24" y="0" on="1"/>
      </contour>
      <contour>
        <pt x="638" y="114" on="1"/>
        <pt x="423" y="617" on="1"/>
        <pt x="209" y="114" on="1"/>
      </contour>
    </TTGlyph>
    <TTGlyph name="E" xMin="83" yMin="0" xMax="635" yMax="740">
      <contour>
        <pt x="83" y="740" on="1"/>
        <pt x="626" y="740" on="1"/>
        <pt x="626" y="625" on="1"/>
        <pt x="231" y="625" on="1"/>
        <pt x="231" y="431" on="1"/>
        <pt x="596" y="431" on="1"/>
        <pt x="596" y="316" on="1"/>
        <pt x="231" y="316" on="1"/>
        <pt x="231" y="115" on="1"/>
        <pt x="635" y="115" on="1"/>
        <pt x="635" y="0" on="1"/>
        <pt x="83" y="0" on="1"/>
      </contour>
    </TTGlyph>
    <TTGlyph name="E.sc" xMin="79" yMin="0" xMax="579" yMax="577">
      <contour>
        <pt x="79" y="577" on="1"/>
        <pt x="571" y="577" on="1"/>
        <pt x="571" y="473" on="1"/>
        <pt x="220" y="473" on="1"/>
        <pt x="220" y="337" on="1"/>
        <pt x="543" y="337" on="1"/>
        <pt x="543" y="247" on="1"/>
        <pt x="220" y="247" on="1"/>
        <pt x="220" y="104" on="1"/>
        <pt x="579" y="104" on="1"/>
        <pt x="579" y="0" on="1"/>
        <pt x="79" y="0" on="1"/>
      </contour>
    </TTGlyph>
    <TTGlyph name="Eacute" xMin="83" yMin="0" xMax="635" yMax="974">
      <contour>
        <pt x="291" y="814" on="1"/>
        <pt x="361" y="974" on="1"/>
        <pt x="510" y="974" on="1"/>
        <pt x="399" y="806" on="1"/>
      </contour>
      <contour>
        <pt x="83" y="740" on="1"/>
        <pt x="626" y="740" on="1"/>
        <pt x="626" y="625" on="1"/>
        <pt x="231" y="625" on="1"/>
        <pt x="231" y="431" on="1"/>
        <pt x="596" y="431" on="1"/>
        <pt x="596" y="316" on="1"/>
        <pt x="231" y="316" on="1"/>
        <pt x="231" y="115" on="1"/>
        <pt x="635" y="115" on="1"/>
        <pt x="635" y="0" on="1"/>
        <pt x="83" y="0" on="1"/>
      </contour>
    </TTGlyph>
    <TTGlyph name="Eacute.sc" xMin="79" yMin="0" xMax="579" yMax="770">
      <contour>
        <pt x="79" y="577" on="1"/>
        <pt x="571" y="577" on="1"/>
        <pt x="571" y="473" on="1"/>
        <pt x="220" y="473" on="1"/>
        <pt x="220" y="337" on="1"/>
        <pt x="543" y="337" on="1"/>
        <pt x="543" y="247" on="1"/>
        <pt x="220" y="247" on="1"/>
        <pt x="220" y="104" on="1"/>
        <pt x="579" y="104" on="1"/>
        <pt x="579" y="0" on="1"/>
        <pt x="79" y="0" on="1"/>
      </contour>
      <contour>
        <pt x="265" y="637" on="1"/>
        <pt x="325" y="770" on="1"/>
        <pt x="467" y="770" on="1"/>
        <pt x="367" y="630" on="1"/>
      </contour>
    </TTGlyph>
    <TTGlyph name="Ebreve" xMin="83" yMin="0" xMax="635" yMax="981">
      <contour>
        <pt x="349" y="813" on="1"/>
        <pt x="290" y="813" on="0"/>
        <pt x="208" y="838" on="0"/>
        <pt x="156" y="883" on="0"/>
        <pt x="132" y="945" on="0"/>
        <pt x="132" y="981" on="1"/>
        <pt x="232" y="981" on="1"/>
        <pt x="232" y="936" on="0"/>
        <pt x="286" y="888" on="0"/>
        <pt x="349" y="888" on="1"/>
        <pt x="412" y="888" on="0"/>
        <pt x="466" y="936" on="0"/>
        <pt x="466" y="981" on="1"/>
        <pt x="566" y="981" on="1"/>
        <pt x="566" y="944" on="0"/>
        <pt x="542" y="883" on="0"/>
        <pt x="490" y="838" on="0"/>
        <pt x="407" y="813" on="0"/>
      </contour>
      <contour>
        <pt x="83" y="740" on="1"/>
        <pt x="626" y="740" on="1"/>
        <pt x="626" y="625" on="1"/>
        <pt x="231" y="625" on="1"/>
        <pt x="231" y="431" on="1"/>
        <pt x="596" y="431" on="1"/>
        <pt x="596" y="316" on="1"/>
        <pt x="231" y="316" on="1"/>
        <pt x="231" y="115" on="1"/>
        <pt x="635" y="115" on="1"/>
        <pt x="635" y="0" on="1"/>
        <pt x="83" y="0" on="1"/>
      </contour>
    </TTGlyph>
    <TTGlyph name="Ebreve.sc" xMin="79" yMin="0" xMax="579" yMax="773">
      <contour>
        <pt x="320" y="634" on="1"/>
        <pt x="265" y="634" on="0"/>
        <pt x="190" y="656" on="0"/>
        <pt x="143" y="693" on="0"/>
        <pt x="122" y="744" on="0"/>
        <pt x="122" y="773" on="1"/>
        <pt x="215" y="773" on="1"/>
        <pt x="215" y="739" on="0"/>
        <pt x="263" y="702" on="0"/>
        <pt x="320" y="702" on="1"/>
        <pt x="377" y="702" on="0"/>
        <pt x="424" y="739" on="0"/>
        <pt x="424" y="773" on="1"/>
        <pt x="517" y="773" on="1"/>
        <pt x="517" y="743" on="0"/>
        <pt x="496" y="693" on="0"/>
        <pt x="450" y="655" on="0"/>
        <pt x="374" y="634" on="0"/>
      </contour>
      <contour>
        <pt x="79" y="577" on="1"/>
        <pt x="571" y="577" on="1"/>
        <pt x="571" y="473" on="1"/>
        <pt x="220" y="473" on="1"/>
        <pt x="220" y="337" on="1"/>
        <pt x="543" y="337" on="1"/>
        <pt x="543" y="247" on="1"/>
        <pt x="220" y="247" on="1"/>
        <pt x="220" y="104" on="1"/>
        <pt x="579" y="104" on="1"/>
        <pt x="579" y="0" on="1"/>
        <pt x="79" y="0" on="1"/>
      </contour>
    </TTGlyph>
    <TTGlyph name="Ecaron" xMin="83" yMin="0" xMax="635" yMax="986">
      <contour>
        <pt x="156" y="986" on="1"/>
        <pt x="355" y="908" on="1"/>
        <pt x="553" y="986" on="1"/>
        <pt x="553" y="884" on="1"/>
        <pt x="353" y="806" on="1"/>
        <pt x="156" y="884" on="1"/>
      </contour>
      <contour>
        <pt x="83" y="740" on="1"/>
        <pt x="626" y="740" on="1"/>
        <pt x="626" y="625" on="1"/>
        <pt x="231" y="625" on="1"/>
        <pt x="231" y="431" on="1"/>
        <pt x="596" y="431" on="1"/>
        <pt x="596" y="316" on="1"/>
        <pt x="231" y="316" on="1"/>
        <pt x="231" y="115" on="1"/>
        <pt x="635" y="115" on="1"/>
        <pt x="635" y="0" on="1"/>
        <pt x="83" y="0" on="1"/>
      </contour>
    </TTGlyph>
    <TTGlyph name="Ecaron.sc" xMin="79" yMin="0" xMax="579" yMax="782">
      <contour>
        <pt x="79" y="577" on="1"/>
        <pt x="571" y="577" on="1"/>
        <pt x="571" y="473" on="1"/>
        <pt x="220" y="473" on="1"/>
        <pt x="220" y="337" on="1"/>
        <pt x="543" y="337" on="1"/>
        <pt x="543" y="247" on="1"/>
        <pt x="220" y="247" on="1"/>
        <pt x="220" y="104" on="1"/>
        <pt x="579" y="104" on="1"/>
        <pt x="579" y="0" on="1"/>
        <pt x="79" y="0" on="1"/>
      </contour>
      <contour>
        <pt x="143" y="689" on="1"/>
        <pt x="143" y="782" on="1"/>
        <pt x="325" y="720" on="1"/>
        <pt x="506" y="782" on="1"/>
        <pt x="506" y="689" on="1"/>
        <pt x="323" y="627" on="1"/>
      </contour>
    </TTGlyph>
    <TTGlyph name="Ecircumflex" xMin="83" yMin="0" xMax="635" yMax="986">
      <contour>
        <pt x="83" y="740" on="1"/>
        <pt x="626" y="740" on="1"/>
        <pt x="626" y="625" on="1"/>
        <pt x="231" y="625" on="1"/>
        <pt x="231" y="431" on="1"/>
        <pt x="596" y="431" on="1"/>
        <pt x="596" y="316" on="1"/>
        <pt x="231" y="316" on="1"/>
        <pt x="231" y="115" on="1"/>
        <pt x="635" y="115" on="1"/>
        <pt x="635" y="0" on="1"/>
        <pt x="83" y="0" on="1"/>
      </contour>
      <contour>
        <pt x="168" y="908" on="1"/>
        <pt x="365" y="986" on="1"/>
        <pt x="565" y="908" on="1"/>
        <pt x="565" y="806" on="1"/>
        <pt x="366" y="884" on="1"/>
        <pt x="168" y="806" on="1"/>
      </contour>
    </TTGlyph>
    <TTGlyph name="Ecircumflex.sc" xMin="79" yMin="0" xMax="579" yMax="782">
      <contour>
        <pt x="79" y="577" on="1"/>
        <pt x="571" y="577" on="1"/>
        <pt x="571" y="473" on="1"/>
        <pt x="220" y="473" on="1"/>
        <pt x="220" y="337" on="1"/>
        <pt x="543" y="337" on="1"/>
        <pt x="543" y="247" on="1"/>
        <pt x="220" y="247" on="1"/>
        <pt x="220" y="104" on="1"/>
        <pt x="579" y="104" on="1"/>
        <pt x="579" y="0" on="1"/>
        <pt x="79" y="0" on="1"/>
      </contour>
      <contour>
        <pt x="156" y="720" on="1"/>
        <pt x="336" y="782" on="1"/>
        <pt x="518" y="720" on="1"/>
        <pt x="518" y="627" on="1"/>
        <pt x="337" y="688" on="1"/>
        <pt x="156" y="627" on="1"/>
      </contour>
    </TTGlyph>
    <TTGlyph name="Edblgrave" xMin="83" yMin="0" xMax="635" yMax="970">
      <contour>
        <pt x="83" y="740" on="1"/>
        <pt x="626" y="740" on="1"/>
        <pt x="626" y="625" on="1"/>
        <pt x="231" y="625" on="1"/>
        <pt x="231" y="431" on="1"/>
        <pt x="596" y="431" on="1"/>
        <pt x="596" y="316" on="1"/>
        <pt x="231" y="316" on="1"/>
        <pt x="231" y="115" on="1"/>
        <pt x="635" y="115" on="1"/>
        <pt x="635" y="0" on="1"/>
        <pt x="83" y="0" on="1"/>
      </contour>
      <contour>
        <pt x="199" y="801" on="1"/>
        <pt x="88" y="970" on="1"/>
        <pt x="235" y="970" on="1"/>
        <pt x="303" y="813" on="1"/>
      </contour>
      <contour>
        <pt x="398" y="801" on="1"/>
        <pt x="285" y="970" on="1"/>
        <pt x="432" y="970" on="1"/>
        <pt x="502" y="813" on="1"/>
      </contour>
    </TTGlyph>
    <TTGlyph name="Edblgrave.sc" xMin="79" yMin="0" xMax="579" yMax="768">
      <contour>
        <pt x="79" y="577" on="1"/>
        <pt x="571" y="577" on="1"/>
        <pt x="571" y="473" on="1"/>
        <pt x="220" y="473" on="1"/>
        <pt x="220" y="337" on="1"/>
        <pt x="543" y="337" on="1"/>
        <pt x="543" y="247" on="1"/>
        <pt x="220" y="247" on="1"/>
        <pt x="220" y="104" on="1"/>
        <pt x="579" y="104" on="1"/>
        <pt x="579" y="0" on="1"/>
        <pt x="79" y="0" on="1"/>
      </contour>
      <contour>
        <pt x="79" y="768" on="1"/>
        <pt x="220" y="768" on="1"/>
        <pt x="280" y="636" on="1"/>
        <pt x="179" y="627" on="1"/>
      </contour>
      <contour>
        <pt x="260" y="768" on="1"/>
        <pt x="401" y="768" on="1"/>
        <pt x="462" y="636" on="1"/>
        <pt x="361" y="627" on="1"/>
      </contour>
    </TTGlyph>
    <TTGlyph name="Edieresis" xMin="83" yMin="0" xMax="635" yMax="974">
      <contour>
        <pt x="214" y="811" on="1"/>
        <pt x="170" y="811" on="0"/>
        <pt x="131" y="850" on="0"/>
        <pt x="131" y="893" on="1"/>
        <pt x="131" y="935" on="0"/>
        <pt x="170" y="974" on="0"/>
        <pt x="214" y="974" on="1"/>
        <pt x="258" y="974" on="0"/>
        <pt x="297" y="935" on="0"/>
        <pt x="297" y="893" on="1"/>
        <pt x="297" y="851" on="0"/>
        <pt x="258" y="811" on="0"/>
      </contour>
      <contour>
        <pt x="511" y="811" on="1"/>
        <pt x="467" y="811" on="0"/>
        <pt x="428" y="850" on="0"/>
        <pt x="428" y="893" on="1"/>
        <pt x="428" y="935" on="0"/>
        <pt x="467" y="974" on="0"/>
        <pt x="511" y="974" on="1"/>
        <pt x="556" y="974" on="0"/>
        <pt x="594" y="935" on="0"/>
        <pt x="594" y="893" on="1"/>
        <pt x="594" y="851" on="0"/>
        <pt x="556" y="811" on="0"/>
      </contour>
      <contour>
        <pt x="83" y="740" on="1"/>
        <pt x="626" y="740" on="1"/>
        <pt x="626" y="625" on="1"/>
        <pt x="231" y="625" on="1"/>
        <pt x="231" y="431" on="1"/>
        <pt x="596" y="431" on="1"/>
        <pt x="596" y="316" on="1"/>
        <pt x="231" y="316" on="1"/>
        <pt x="231" y="115" on="1"/>
        <pt x="635" y="115" on="1"/>
        <pt x="635" y="0" on="1"/>
        <pt x="83" y="0" on="1"/>
      </contour>
    </TTGlyph>
    <TTGlyph name="Edieresis.sc" xMin="79" yMin="0" xMax="579" yMax="777">
      <contour>
        <pt x="199" y="629" on="1"/>
        <pt x="158" y="629" on="0"/>
        <pt x="121" y="664" on="0"/>
        <pt x="121" y="703" on="1"/>
        <pt x="121" y="741" on="0"/>
        <pt x="158" y="777" on="0"/>
        <pt x="199" y="777" on="1"/>
        <pt x="241" y="777" on="0"/>
        <pt x="277" y="741" on="0"/>
        <pt x="277" y="703" on="1"/>
        <pt x="277" y="665" on="0"/>
        <pt x="241" y="629" on="0"/>
      </contour>
      <contour>
        <pt x="467" y="629" on="1"/>
        <pt x="425" y="629" on="0"/>
        <pt x="389" y="664" on="0"/>
        <pt x="389" y="703" on="1"/>
        <pt x="389" y="741" on="0"/>
        <pt x="425" y="777" on="0"/>
        <pt x="467" y="777" on="1"/>
        <pt x="509" y="777" on="0"/>
        <pt x="545" y="741" on="0"/>
        <pt x="545" y="703" on="1"/>
        <pt x="545" y="665" on="0"/>
        <pt x="509" y="629" on="0"/>
      </contour>
      <contour>
        <pt x="79" y="577" on="1"/>
        <pt x="571" y="577" on="1"/>
        <pt x="571" y="473" on="1"/>
        <pt x="220" y="473" on="1"/>
        <pt x="220" y="337" on="1"/>
        <pt x="543" y="337" on="1"/>
        <pt x="543" y="247" on="1"/>
        <pt x="220" y="247" on="1"/>
        <pt x="220" y="104" on="1"/>
        <pt x="579" y="104" on="1"/>
        <pt x="579" y="0" on="1"/>
        <pt x="79" y="0" on="1"/>
      </contour>
    </TTGlyph>
    <TTGlyph name="Edotaccent" xMin="83" yMin="0" xMax="635" yMax="971">
      <contour>
        <pt x="351" y="809" on="1"/>
        <pt x="306" y="809" on="0"/>
        <pt x="267" y="847" on="0"/>
        <pt x="267" y="890" on="1"/>
        <pt x="267" y="932" on="0"/>
        <pt x="306" y="971" on="0"/>
        <pt x="351" y="971" on="1"/>
        <pt x="395" y="971" on="0"/>
        <pt x="434" y="932" on="0"/>
        <pt x="434" y="890" on="1"/>
        <pt x="434" y="848" on="0"/>
        <pt x="395" y="809" on="0"/>
      </contour>
      <contour>
        <pt x="83" y="740" on="1"/>
        <pt x="626" y="740" on="1"/>
        <pt x="626" y="625" on="1"/>
        <pt x="231" y="625" on="1"/>
        <pt x="231" y="431" on="1"/>
        <pt x="596" y="431" on="1"/>
        <pt x="596" y="316" on="1"/>
        <pt x="231" y="316" on="1"/>
        <pt x="231" y="115" on="1"/>
        <pt x="635" y="115" on="1"/>
        <pt x="635" y="0" on="1"/>
        <pt x="83" y="0" on="1"/>
      </contour>
    </TTGlyph>
    <TTGlyph name="Edotaccent.sc" xMin="79" yMin="0" xMax="579" yMax="776">
      <contour>
        <pt x="320" y="627" on="1"/>
        <pt x="278" y="627" on="0"/>
        <pt x="242" y="662" on="0"/>
        <pt x="242" y="702" on="1"/>
        <pt x="242" y="740" on="0"/>
        <pt x="278" y="776" on="0"/>
        <pt x="320" y="776" on="1"/>
        <pt x="362" y="776" on="0"/>
        <pt x="398" y="739" on="0"/>
        <pt x="398" y="702" on="1"/>
        <pt x="398" y="664" on="0"/>
        <pt x="362" y="627" on="0"/>
      </contour>
      <contour>
        <pt x="79" y="577" on="1"/>
        <pt x="571" y="577" on="1"/>
        <pt x="571" y="473" on="1"/>
        <pt x="220" y="473" on="1"/>
        <pt x="220" y="337" on="1"/>
        <pt x="543" y="337" on="1"/>
        <pt x="543" y="247" on="1"/>
        <pt x="220" y="247" on="1"/>
        <pt x="220" y="104" on="1"/>
        <pt x="579" y="104" on="1"/>
        <pt x="579" y="0" on="1"/>
        <pt x="79" y="0" on="1"/>
      </contour>
    </TTGlyph>
    <TTGlyph name="Edotbelow" xMin="83" yMin="-198" xMax="635" yMax="740">
      <contour>
        <pt x="83" y="740" on="1"/>
        <pt x="626" y="740" on="1"/>
        <pt x="626" y="625" on="1"/>
        <pt x="231" y="625" on="1"/>
        <pt x="231" y="431" on="1"/>
        <pt x="596" y="431" on="1"/>
        <pt x="596" y="316" on="1"/>
        <pt x="231" y="316" on="1"/>
        <pt x="231" y="115" on="1"/>
        <pt x="635" y="115" on="1"/>
        <pt x="635" y="0" on="1"/>
        <pt x="83" y="0" on="1"/>
      </contour>
      <contour>
        <pt x="374" y="-198" on="1"/>
        <pt x="339" y="-198" on="0"/>
        <pt x="307" y="-168" on="0"/>
        <pt x="307" y="-133" on="1"/>
        <pt x="307" y="-98" on="0"/>
        <pt x="339" y="-67" on="0"/>
        <pt x="374" y="-67" on="1"/>
        <pt x="411" y="-67" on="0"/>
        <pt x="443" y="-99" on="0"/>
        <pt x="443" y="-133" on="1"/>
        <pt x="443" y="-167" on="0"/>
        <pt x="411" y="-198" on="0"/>
      </contour>
    </TTGlyph>
    <TTGlyph name="Edotbelow.sc" xMin="79" yMin="-161" xMax="579" yMax="577">
      <contour>
        <pt x="343" y="-161" on="1"/>
        <pt x="310" y="-161" on="0"/>
        <pt x="280" y="-133" on="0"/>
        <pt x="280" y="-104" on="1"/>
        <pt x="280" y="-73" on="0"/>
        <pt x="310" y="-45" on="0"/>
        <pt x="343" y="-45" on="1"/>
        <pt x="377" y="-45" on="0"/>
        <pt x="406" y="-74" on="0"/>
        <pt x="406" y="-104" on="1"/>
        <pt x="406" y="-133" on="0"/>
        <pt x="377" y="-161" on="0"/>
      </contour>
      <contour>
        <pt x="79" y="577" on="1"/>
        <pt x="571" y="577" on="1"/>
        <pt x="571" y="473" on="1"/>
        <pt x="220" y="473" on="1"/>
        <pt x="220" y="337" on="1"/>
        <pt x="543" y="337" on="1"/>
        <pt x="543" y="247" on="1"/>
        <pt x="220" y="247" on="1"/>
        <pt x="220" y="104" on="1"/>
        <pt x="579" y="104" on="1"/>
        <pt x="579" y="0" on="1"/>
        <pt x="79" y="0" on="1"/>
      </contour>
    </TTGlyph>
    <TTGlyph name="Egrave" xMin="83" yMin="0" xMax="635" yMax="974">
      <contour>
        <pt x="322" y="806" on="1"/>
        <pt x="210" y="974" on="1"/>
        <pt x="360" y="974" on="1"/>
        <pt x="429" y="818" on="1"/>
      </contour>
      <contour>
        <pt x="83" y="740" on="1"/>
        <pt x="626" y="740" on="1"/>
        <pt x="626" y="625" on="1"/>
        <pt x="231" y="625" on="1"/>
        <pt x="231" y="431" on="1"/>
        <pt x="596" y="431" on="1"/>
        <pt x="596" y="316" on="1"/>
        <pt x="231" y="316" on="1"/>
        <pt x="231" y="115" on="1"/>
        <pt x="635" y="115" on="1"/>
        <pt x="635" y="0" on="1"/>
        <pt x="83" y="0" on="1"/>
      </contour>
    </TTGlyph>
    <TTGlyph name="Egrave.sc" xMin="79" yMin="0" xMax="579" yMax="770">
      <contour>
        <pt x="79" y="577" on="1"/>
        <pt x="571" y="577" on="1"/>
        <pt x="571" y="473" on="1"/>
        <pt x="220" y="473" on="1"/>
        <pt x="220" y="337" on="1"/>
        <pt x="543" y="337" on="1"/>
        <pt x="543" y="247" on="1"/>
        <pt x="220" y="247" on="1"/>
        <pt x="220" y="104" on="1"/>
        <pt x="579" y="104" on="1"/>
        <pt x="579" y="0" on="1"/>
        <pt x="79" y="0" on="1"/>
      </contour>
      <contour>
        <pt x="193" y="770" on="1"/>
        <pt x="336" y="770" on="1"/>
        <pt x="396" y="639" on="1"/>
        <pt x="294" y="630" on="1"/>
      </contour>
    </TTGlyph>
    <TTGlyph name="Einvertedbreve" xMin="83" yMin="0" xMax="635" yMax="986">
      <contour>
        <pt x="83" y="740" on="1"/>
        <pt x="626" y="740" on="1"/>
        <pt x="626" y="625" on="1"/>
        <pt x="231" y="625" on="1"/>
        <pt x="231" y="431" on="1"/>
        <pt x="596" y="431" on="1"/>
        <pt x="596" y="316" on="1"/>
        <pt x="231" y="316" on="1"/>
        <pt x="231" y="115" on="1"/>
        <pt x="635" y="115" on="1"/>
        <pt x="635" y="0" on="1"/>
        <pt x="83" y="0" on="1"/>
      </contour>
      <contour>
        <pt x="473" y="819" on="1"/>
        <pt x="473" y="863" on="0"/>
        <pt x="419" y="912" on="0"/>
        <pt x="355" y="912" on="1"/>
        <pt x="292" y="912" on="0"/>
        <pt x="238" y="863" on="0"/>
        <pt x="238" y="819" on="1"/>
        <pt x="139" y="819" on="1"/>
        <pt x="139" y="855" on="0"/>
        <pt x="163" y="916" on="0"/>
        <pt x="214" y="961" on="0"/>
        <pt x="296" y="986" on="0"/>
        <pt x="355" y="986" on="1"/>
        <pt x="414" y="986" on="0"/>
        <pt x="496" y="961" on="0"/>
        <pt x="548" y="917" on="0"/>
        <pt x="572" y="856" on="0"/>
        <pt x="572" y="819" on="1"/>
      </contour>
    </TTGlyph>
    <TTGlyph name="Einvertedbreve.sc" xMin="79" yMin="0" xMax="579" yMax="779">
      <contour>
        <pt x="128" y="640" on="1"/>
        <pt x="128" y="669" on="0"/>
        <pt x="149" y="720" on="0"/>
        <pt x="196" y="757" on="0"/>
        <pt x="271" y="779" on="0"/>
        <pt x="326" y="779" on="1"/>
        <pt x="380" y="779" on="0"/>
        <pt x="456" y="758" on="0"/>
        <pt x="502" y="720" on="0"/>
        <pt x="523" y="670" on="0"/>
        <pt x="523" y="640" on="1"/>
        <pt x="430" y="640" on="1"/>
        <pt x="430" y="673" on="0"/>
        <pt x="383" y="711" on="0"/>
        <pt x="326" y="711" on="1"/>
        <pt x="269" y="711" on="0"/>
        <pt x="222" y="673" on="0"/>
        <pt x="222" y="640" on="1"/>
      </contour>
      <contour>
        <pt x="79" y="577" on="1"/>
        <pt x="571" y="577" on="1"/>
        <pt x="571" y="473" on="1"/>
        <pt x="220" y="473" on="1"/>
        <pt x="220" y="337" on="1"/>
        <pt x="543" y="337" on="1"/>
        <pt x="543" y="247" on="1"/>
        <pt x="220" y="247" on="1"/>
        <pt x="220" y="104" on="1"/>
        <pt x="579" y="104" on="1"/>
        <pt x="579" y="0" on="1"/>
        <pt x="79" y="0" on="1"/>
      </contour>
    </TTGlyph>
    <TTGlyph name="Emacron" xMin="83" yMin="0" xMax="635" yMax="941">
      <contour>
        <pt x="162" y="941" on="1"/>
        <pt x="555" y="941" on="1"/>
        <pt x="555" y="842" on="1"/>
        <pt x="162" y="842" on="1"/>
      </contour>
      <contour>
        <pt x="83" y="740" on="1"/>
        <pt x="626" y="740" on="1"/>
        <pt x="626" y="625" on="1"/>
        <pt x="231" y="625" on="1"/>
        <pt x="231" y="431" on="1"/>
        <pt x="596" y="431" on="1"/>
        <pt x="596" y="316" on="1"/>
        <pt x="231" y="316" on="1"/>
        <pt x="231" y="115" on="1"/>
        <pt x="635" y="115" on="1"/>
        <pt x="635" y="0" on="1"/>
        <pt x="83" y="0" on="1"/>
      </contour>
    </TTGlyph>
    <TTGlyph name="Emacron.sc" xMin="79" yMin="0" xMax="579" yMax="749">
      <contour>
        <pt x="79" y="577" on="1"/>
        <pt x="571" y="577" on="1"/>
        <pt x="571" y="473" on="1"/>
        <pt x="220" y="473" on="1"/>
        <pt x="220" y="337" on="1"/>
        <pt x="543" y="337" on="1"/>
        <pt x="543" y="247" on="1"/>
        <pt x="220" y="247" on="1"/>
        <pt x="220" y="104" on="1"/>
        <pt x="579" y="104" on="1"/>
        <pt x="579" y="0" on="1"/>
        <pt x="79" y="0" on="1"/>
      </contour>
      <contour>
        <pt x="149" y="749" on="1"/>
        <pt x="508" y="749" on="1"/>
        <pt x="508" y="657" on="1"/>
        <pt x="149" y="657" on="1"/>
      </contour>
    </TTGlyph>
    <TTGlyph name="Eng" xMin="83" yMin="-203" xMax="763" yMax="740">
      <contour>
        <pt x="546" y="-171" on="1"/>
        <pt x="608" y="-54" on="0"/>
        <pt x="618" y="34" on="1"/>
        <pt x="293" y="437" on="1"/>
        <pt x="223" y="529" on="1"/>
        <pt x="215" y="529" on="1"/>
        <pt x="215" y="0" on="1"/>
        <pt x="83" y="0" on="1"/>
        <pt x="83" y="740" on="1"/>
        <pt x="197" y="740" on="1"/>
        <pt x="557" y="297" on="1"/>
        <pt x="623" y="209" on="1"/>
        <pt x="631" y="209" on="1"/>
        <pt x="631" y="740" on="1"/>
        <pt x="763" y="740" on="1"/>
        <pt x="763" y="109" on="1"/>
        <pt x="763" y="77" on="0"/>
        <pt x="745" y="-2" on="0"/>
        <pt x="713" y="-86" on="0"/>
        <pt x="670" y="-169" on="0"/>
        <pt x="645" y="-203" on="1"/>
      </contour>
    </TTGlyph>
    <TTGlyph name="Eng.sc" xMin="79" yMin="-164" xMax="675" yMax="577">
      <contour>
        <pt x="483" y="-133" on="1"/>
        <pt x="511" y="-82" on="0"/>
        <pt x="540" y="-10" on="0"/>
        <pt x="545" y="20" on="1"/>
        <pt x="276" y="311" on="1"/>
        <pt x="212" y="386" on="1"/>
        <pt x="204" y="386" on="1"/>
        <pt x="204" y="0" on="1"/>
        <pt x="79" y="0" on="1"/>
        <pt x="79" y="577" on="1"/>
        <pt x="187" y="577" on="1"/>
        <pt x="483" y="258" on="1"/>
        <pt x="542" y="190" on="1"/>
        <pt x="549" y="190" on="1"/>
        <pt x="549" y="577" on="1"/>
        <pt x="675" y="577" on="1"/>
        <pt x="675" y="94" on="1"/>
        <pt x="675" y="38" on="0"/>
        <pt x="622" y="-100" on="0"/>
        <pt x="577" y="-164" on="1"/>
      </contour>
    </TTGlyph>
    <TTGlyph name="Eogonek" xMin="83" yMin="-220" xMax="635" yMax="740">
      <contour>
        <pt x="83" y="740" on="1"/>
        <pt x="626" y="740" on="1"/>
        <pt x="626" y="625" on="1"/>
        <pt x="231" y="625" on="1"/>
        <pt x="231" y="431" on="1"/>
        <pt x="596" y="431" on="1"/>
        <pt x="596" y="316" on="1"/>
        <pt x="231" y="316" on="1"/>
        <pt x="231" y="115" on="1"/>
        <pt x="635" y="115" on="1"/>
        <pt x="635" y="-13" on="1"/>
        <pt x="567" y="-44" on="0"/>
        <pt x="511" y="-90" on="0"/>
        <pt x="511" y="-114" on="1"/>
        <pt x="511" y="-142" on="0"/>
        <pt x="548" y="-142" on="1"/>
        <pt x="562" y="-142" on="0"/>
        <pt x="612" y="-134" on="0"/>
        <pt x="635" y="-128" on="1"/>
        <pt x="635" y="-208" on="1"/>
        <pt x="600" y="-220" on="0"/>
        <pt x="550" y="-220" on="1"/>
        <pt x="484" y="-220" on="0"/>
        <pt x="414" y="-176" on="0"/>
        <pt x="414" y="-132" on="1"/>
        <pt x="414" y="-59" on="0"/>
        <pt x="516" y="0" on="1"/>
        <pt x="83" y="0" on="1"/>
      </contour>
    </TTGlyph>
    <TTGlyph name="Eogonek.sc" xMin="79" yMin="-172" xMax="579" yMax="577">
      <contour>
        <pt x="501" y="-172" on="1"/>
        <pt x="437" y="-172" on="0"/>
        <pt x="377" y="-135" on="0"/>
        <pt x="377" y="-100" on="1"/>
        <pt x="377" y="-69" on="0"/>
        <pt x="419" y="-21" on="0"/>
        <pt x="461" y="0" on="1"/>
        <pt x="79" y="0" on="1"/>
        <pt x="79" y="577" on="1"/>
        <pt x="571" y="577" on="1"/>
        <pt x="571" y="473" on="1"/>
        <pt x="220" y="473" on="1"/>
        <pt x="220" y="337" on="1"/>
        <pt x="543" y="337" on="1"/>
        <pt x="543" y="247" on="1"/>
        <pt x="220" y="247" on="1"/>
        <pt x="220" y="104" on="1"/>
        <pt x="579" y="104" on="1"/>
        <pt x="579" y="-8" on="1"/>
        <pt x="545" y="-20" on="0"/>
        <pt x="502" y="-40" on="0"/>
        <pt x="477" y="-56" on="0"/>
        <pt x="468" y="-71" on="0"/>
        <pt x="468" y="-79" on="1"/>
        <pt x="468" y="-90" on="0"/>
        <pt x="484" y="-98" on="0"/>
        <pt x="499" y="-98" on="1"/>
        <pt x="506" y="-98" on="0"/>
        <pt x="527" y="-97" on="0"/>
        <pt x="549" y="-94" on="0"/>
        <pt x="571" y="-91" on="0"/>
        <pt x="579" y="-89" on="1"/>
        <pt x="579" y="-162" on="1"/>
        <pt x="562" y="-167" on="0"/>
        <pt x="521" y="-172" on="0"/>
      </contour>
    </TTGlyph>
    <TTGlyph name="Eth" xMin="6" yMin="-9" xMax="776" yMax="749">
      <contour>
        <pt x="6" y="429" on="1"/>
        <pt x="100" y="429" on="1"/>
        <pt x="100" y="739" on="1"/>
        <pt x="172" y="744" on="0"/>
        <pt x="310" y="749" on="0"/>
        <pt x="355" y="749" on="1"/>
        <pt x="573" y="749" on="0"/>
        <pt x="776" y="566" on="0"/>
        <pt x="776" y="370" on="1"/>
        <pt x="776" y="270" on="0"/>
        <pt x="724" y="126" on="0"/>
        <pt x="615" y="34" on="0"/>
        <pt x="443" y="-9" on="0"/>
        <pt x="323" y="-9" on="1"/>
        <pt x="289" y="-9" on="0"/>
        <pt x="222" y="-7" on="0"/>
        <pt x="163" y="-4" on="0"/>
        <pt x="115" y="2" on="0"/>
        <pt x="100" y="5" on="1"/>
        <pt x="100" y="315" on="1"/>
        <pt x="6" y="315" on="1"/>
      </contour>
      <contour>
        <pt x="378" y="109" on="1"/>
        <pt x="444" y="109" on="0"/>
        <pt x="538" y="138" on="0"/>
        <pt x="598" y="200" on="0"/>
        <pt x="625" y="299" on="0"/>
        <pt x="625" y="370" on="1"/>
        <pt x="625" y="439" on="0"/>
        <pt x="597" y="538" on="0"/>
        <pt x="537" y="601" on="0"/>
        <pt x="442" y="630" on="0"/>
        <pt x="375" y="630" on="1"/>
        <pt x="351" y="630" on="0"/>
        <pt x="283" y="627" on="0"/>
        <pt x="248" y="624" on="1"/>
        <pt x="248" y="429" on="1"/>
        <pt x="406" y="429" on="1"/>
        <pt x="406" y="315" on="1"/>
        <pt x="248" y="315" on="1"/>
        <pt x="248" y="118" on="1"/>
        <pt x="281" y="113" on="0"/>
        <pt x="343" y="109" on="0"/>
      </contour>
    </TTGlyph>
    <TTGlyph name="Eth.sc" xMin="14" yMin="-7" xMax="708" yMax="584">
      <contour>
        <pt x="14" y="338" on="1"/>
        <pt x="97" y="338" on="1"/>
        <pt x="97" y="576" on="1"/>
        <pt x="165" y="580" on="0"/>
        <pt x="289" y="584" on="0"/>
        <pt x="331" y="584" on="1"/>
        <pt x="526" y="584" on="0"/>
        <pt x="708" y="441" on="0"/>
        <pt x="708" y="288" on="1"/>
        <pt x="708" y="209" on="0"/>
        <pt x="661" y="97" on="0"/>
        <pt x="562" y="26" on="0"/>
        <pt x="407" y="-7" on="0"/>
        <pt x="298" y="-7" on="1"/>
        <pt x="267" y="-7" on="0"/>
        <pt x="207" y="-6" on="0"/>
        <pt x="153" y="-3" on="0"/>
        <pt x="110" y="1" on="0"/>
        <pt x="97" y="4" on="1"/>
        <pt x="97" y="241" on="1"/>
        <pt x="14" y="241" on="1"/>
      </contour>
      <contour>
        <pt x="353" y="104" on="1"/>
        <pt x="410" y="104" on="0"/>
        <pt x="491" y="124" on="0"/>
        <pt x="541" y="167" on="0"/>
        <pt x="564" y="237" on="0"/>
        <pt x="564" y="288" on="1"/>
        <pt x="564" y="338" on="0"/>
        <pt x="540" y="408" on="0"/>
        <pt x="489" y="452" on="0"/>
        <pt x="407" y="472" on="0"/>
        <pt x="350" y="472" on="1"/>
        <pt x="329" y="472" on="0"/>
        <pt x="271" y="470" on="0"/>
        <pt x="238" y="468" on="1"/>
        <pt x="238" y="338" on="1"/>
        <pt x="371" y="338" on="1"/>
        <pt x="371" y="241" on="1"/>
        <pt x="238" y="241" on="1"/>
        <pt x="238" y="111" on="1"/>
        <pt x="266" y="107" on="0"/>
        <pt x="321" y="104" on="0"/>
      </contour>
    </TTGlyph>
    <TTGlyph name="Etilde" xMin="83" yMin="0" xMax="635" yMax="969">
      <contour>
        <pt x="122" y="864" on="1"/>
        <pt x="156" y="917" on="0"/>
        <pt x="239" y="969" on="0"/>
        <pt x="277" y="969" on="1"/>
        <pt x="304" y="969" on="0"/>
        <pt x="354" y="957" on="0"/>
        <pt x="403" y="942" on="0"/>
        <pt x="452" y="930" on="0"/>
        <pt x="478" y="930" on="1"/>
        <pt x="503" y="930" on="0"/>
        <pt x="550" y="946" on="0"/>
        <pt x="579" y="967" on="1"/>
        <pt x="602" y="935" on="1"/>
        <pt x="569" y="883" on="0"/>
        <pt x="484" y="830" on="0"/>
        <pt x="445" y="830" on="1"/>
        <pt x="419" y="830" on="0"/>
        <pt x="369" y="842" on="0"/>
        <pt x="320" y="856" on="0"/>
        <pt x="271" y="868" on="0"/>
        <pt x="246" y="868" on="1"/>
        <pt x="221" y="868" on="0"/>
        <pt x="174" y="853" on="0"/>
        <pt x="146" y="832" on="1"/>
      </contour>
      <contour>
        <pt x="83" y="740" on="1"/>
        <pt x="626" y="740" on="1"/>
        <pt x="626" y="625" on="1"/>
        <pt x="231" y="625" on="1"/>
        <pt x="231" y="431" on="1"/>
        <pt x="596" y="431" on="1"/>
        <pt x="596" y="316" on="1"/>
        <pt x="231" y="316" on="1"/>
        <pt x="231" y="115" on="1"/>
        <pt x="635" y="115" on="1"/>
        <pt x="635" y="0" on="1"/>
        <pt x="83" y="0" on="1"/>
      </contour>
    </TTGlyph>
    <TTGlyph name="Etilde.sc" xMin="79" yMin="0" xMax="579" yMax="769">
      <contour>
        <pt x="114" y="674" on="1"/>
        <pt x="144" y="722" on="0"/>
        <pt x="219" y="769" on="0"/>
        <pt x="254" y="769" on="1"/>
        <pt x="278" y="769" on="0"/>
        <pt x="324" y="760" on="0"/>
        <pt x="369" y="749" on="0"/>
        <pt x="414" y="740" on="0"/>
        <pt x="438" y="740" on="1"/>
        <pt x="460" y="740" on="0"/>
        <pt x="502" y="751" on="0"/>
        <pt x="529" y="768" on="1"/>
        <pt x="550" y="741" on="1"/>
        <pt x="518" y="693" on="0"/>
        <pt x="440" y="646" on="0"/>
        <pt x="405" y="646" on="1"/>
        <pt x="382" y="646" on="0"/>
        <pt x="337" y="655" on="0"/>
        <pt x="291" y="667" on="0"/>
        <pt x="246" y="676" on="0"/>
        <pt x="223" y="676" on="1"/>
        <pt x="201" y="676" on="0"/>
        <pt x="159" y="664" on="0"/>
        <pt x="135" y="647" on="1"/>
      </contour>
      <contour>
        <pt x="79" y="577" on="1"/>
        <pt x="571" y="577" on="1"/>
        <pt x="571" y="473" on="1"/>
        <pt x="220" y="473" on="1"/>
        <pt x="220" y="337" on="1"/>
        <pt x="543" y="337" on="1"/>
        <pt x="543" y="247" on="1"/>
        <pt x="220" y="247" on="1"/>
        <pt x="220" y="104" on="1"/>
        <pt x="579" y="104" on="1"/>
        <pt x="579" y="0" on="1"/>
        <pt x="79" y="0" on="1"/>
      </contour>
    </TTGlyph>
    <TTGlyph name="Euro" xMin="41" yMin="-10" xMax="671" yMax="749">
      <contour>
        <pt x="41" y="496" on="1"/>
        <pt x="132" y="496" on="1"/>
        <pt x="159" y="625" on="0"/>
        <pt x="345" y="749" on="0"/>
        <pt x="518" y="749" on="1"/>
        <pt x="572" y="749" on="0"/>
        <pt x="646" y="739" on="0"/>
        <pt x="671" y="736" on="1"/>
        <pt x="631" y="617" on="1"/>
        <pt x="620" y="619" on="0"/>
        <pt x="572" y="624" on="0"/>
        <pt x="549" y="624" on="1"/>
        <pt x="486" y="624" on="0"/>
        <pt x="393" y="612" on="0"/>
        <pt x="329" y="582" on="0"/>
        <pt x="291" y="533" on="0"/>
        <pt x="281" y="496" on="1"/>
        <pt x="591" y="496" on="1"/>
        <pt x="573" y="412" on="1"/>
        <pt x="270" y="412" on="1"/>
        <pt x="269" y="401" on="0"/>
        <pt x="269" y="381" on="0"/>
        <pt x="269" y="370" on="1"/>
        <pt x="269" y="359" on="0"/>
        <pt x="269" y="338" on="0"/>
        <pt x="270" y="328" on="1"/>
        <pt x="555" y="328" on="1"/>
        <pt x="536" y="243" on="1"/>
        <pt x="282" y="243" on="1"/>
        <pt x="292" y="207" on="0"/>
        <pt x="331" y="158" on="0"/>
        <pt x="395" y="128" on="0"/>
        <pt x="486" y="115" on="0"/>
        <pt x="549" y="115" on="1"/>
        <pt x="576" y="115" on="0"/>
        <pt x="632" y="119" on="0"/>
        <pt x="663" y="125" on="1"/>
        <pt x="663" y="2" on="1"/>
        <pt x="641" y="-4" on="0"/>
        <pt x="571" y="-10" on="0"/>
        <pt x="529" y="-10" on="1"/>
        <pt x="350" y="-9" on="0"/>
        <pt x="160" y="115" on="0"/>
        <pt x="133" y="243" on="1"/>
        <pt x="41" y="243" on="1"/>
        <pt x="41" y="328" on="1"/>
        <pt x="122" y="328" on="1"/>
        <pt x="121" y="338" on="0"/>
        <pt x="121" y="358" on="0"/>
        <pt x="121" y="369" on="1"/>
        <pt x="121" y="380" on="0"/>
        <pt x="121" y="401" on="0"/>
        <pt x="122" y="412" on="1"/>
        <pt x="41" y="412" on="1"/>
      </contour>
    </TTGlyph>
    <TTGlyph name="Euro.tab" xMin="6" yMin="-10" xMax="606" yMax="749">
      <contour>
        <pt x="6" y="496" on="1"/>
        <pt x="93" y="496" on="1"/>
        <pt x="106" y="561" on="0"/>
        <pt x="161" y="657" on="0"/>
        <pt x="251" y="719" on="0"/>
        <pt x="375" y="749" on="0"/>
        <pt x="457" y="749" on="1"/>
        <pt x="509" y="749" on="0"/>
        <pt x="582" y="739" on="0"/>
        <pt x="606" y="736" on="1"/>
        <pt x="567" y="617" on="1"/>
        <pt x="557" y="619" on="0"/>
        <pt x="509" y="624" on="0"/>
        <pt x="488" y="624" on="1"/>
        <pt x="378" y="624" on="0"/>
        <pt x="263" y="567" on="0"/>
        <pt x="244" y="496" on="1"/>
        <pt x="530" y="496" on="1"/>
        <pt x="514" y="412" on="1"/>
        <pt x="227" y="412" on="1"/>
        <pt x="227" y="405" on="0"/>
        <pt x="226" y="378" on="0"/>
        <pt x="226" y="370" on="1"/>
        <pt x="226" y="362" on="0"/>
        <pt x="227" y="335" on="0"/>
        <pt x="227" y="328" on="1"/>
        <pt x="497" y="328" on="1"/>
        <pt x="479" y="243" on="1"/>
        <pt x="244" y="243" on="1"/>
        <pt x="264" y="174" on="0"/>
        <pt x="379" y="115" on="0"/>
        <pt x="488" y="115" on="1"/>
        <pt x="514" y="115" on="0"/>
        <pt x="568" y="119" on="0"/>
        <pt x="598" y="125" on="1"/>
        <pt x="598" y="2" on="1"/>
        <pt x="577" y="-4" on="0"/>
        <pt x="508" y="-10" on="0"/>
        <pt x="468" y="-10" on="1"/>
        <pt x="299" y="-9" on="0"/>
        <pt x="118" y="115" on="0"/>
        <pt x="93" y="243" on="1"/>
        <pt x="6" y="243" on="1"/>
        <pt x="6" y="328" on="1"/>
        <pt x="81" y="328" on="1"/>
        <pt x="81" y="412" on="1"/>
        <pt x="6" y="412" on="1"/>
      </contour>
    </TTGlyph>
    <TTGlyph name="F" xMin="83" yMin="0" xMax="626" yMax="740">
      <contour>
        <pt x="83" y="740" on="1"/>
        <pt x="626" y="740" on="1"/>
        <pt x="626" y="625" on="1"/>
        <pt x="231" y="625" on="1"/>
        <pt x="231" y="414" on="1"/>
        <pt x="587" y="414" on="1"/>
        <pt x="587" y="299" on="1"/>
        <pt x="231" y="299" on="1"/>
        <pt x="231" y="0" on="1"/>
        <pt x="83" y="0" on="1"/>
      </contour>
    </TTGlyph>
    <TTGlyph name="F.sc" xMin="79" yMin="0" xMax="571" yMax="577">
      <contour>
        <pt x="79" y="577" on="1"/>
        <pt x="571" y="577" on="1"/>
        <pt x="571" y="470" on="1"/>
        <pt x="220" y="470" on="1"/>
        <pt x="220" y="321" on="1"/>
        <pt x="537" y="321" on="1"/>
        <pt x="537" y="225" on="1"/>
        <pt x="220" y="225" on="1"/>
        <pt x="220" y="0" on="1"/>
        <pt x="79" y="0" on="1"/>
      </contour>
    </TTGlyph>
    <TTGlyph name="F_B.sc" xMin="79" yMin="-8" xMax="1223" yMax="584">
      <contour>
        <pt x="79" y="577" on="1"/>
        <pt x="571" y="577" on="1"/>
        <pt x="571" y="470" on="1"/>
        <pt x="220" y="470" on="1"/>
        <pt x="220" y="321" on="1"/>
        <pt x="537" y="321" on="1"/>
        <pt x="537" y="225" on="1"/>
        <pt x="220" y="225" on="1"/>
        <pt x="220" y="0" on="1"/>
        <pt x="79" y="0" on="1"/>
      </contour>
      <contour>
        <pt x="944" y="-8" on="1"/>
        <pt x="877" y="-8" on="0"/>
        <pt x="746" y="-2" on="0"/>
        <pt x="668" y="4" on="1"/>
        <pt x="668" y="573" on="1"/>
        <pt x="739" y="578" on="0"/>
        <pt x="859" y="584" on="0"/>
        <pt x="917" y="584" on="1"/>
        <pt x="1067" y="584" on="0"/>
        <pt x="1201" y="508" on="0"/>
        <pt x="1201" y="423" on="1"/>
        <pt x="1201" y="375" on="0"/>
        <pt x="1139" y="310" on="0"/>
        <pt x="1082" y="298" on="1"/>
        <pt x="1082" y="295" on="1"/>
        <pt x="1151" y="283" on="0"/>
        <pt x="1223" y="213" on="0"/>
        <pt x="1223" y="157" on="1"/>
        <pt x="1223" y="72" on="0"/>
        <pt x="1087" y="-8" on="0"/>
      </contour>
      <contour>
        <pt x="934" y="87" on="1"/>
        <pt x="1012" y="87" on="0"/>
        <pt x="1084" y="127" on="0"/>
        <pt x="1084" y="171" on="1"/>
        <pt x="1084" y="213" on="0"/>
        <pt x="1018" y="251" on="0"/>
        <pt x="946" y="251" on="1"/>
        <pt x="804" y="251" on="1"/>
        <pt x="804" y="91" on="1"/>
        <pt x="813" y="90" on="0"/>
        <pt x="834" y="88" on="0"/>
        <pt x="863" y="87" on="0"/>
        <pt x="904" y="87" on="0"/>
      </contour>
      <contour>
        <pt x="933" y="334" on="1"/>
        <pt x="1004" y="334" on="0"/>
        <pt x="1063" y="370" on="0"/>
        <pt x="1063" y="413" on="1"/>
        <pt x="1063" y="456" on="0"/>
        <pt x="1000" y="490" on="0"/>
        <pt x="922" y="490" on="1"/>
        <pt x="885" y="490" on="0"/>
        <pt x="827" y="488" on="0"/>
        <pt x="804" y="485" on="1"/>
        <pt x="804" y="334" on="1"/>
      </contour>
    </TTGlyph>
    <TTGlyph name="F_F.sc" xMin="79" yMin="0" xMax="1160" yMax="577">
      <contour>
        <pt x="79" y="577" on="1"/>
        <pt x="571" y="577" on="1"/>
        <pt x="571" y="470" on="1"/>
        <pt x="220" y="470" on="1"/>
        <pt x="220" y="321" on="1"/>
        <pt x="537" y="321" on="1"/>
        <pt x="537" y="225" on="1"/>
        <pt x="220" y="225" on="1"/>
        <pt x="220" y="0" on="1"/>
        <pt x="79" y="0" on="1"/>
      </contour>
      <contour>
        <pt x="668" y="577" on="1"/>
        <pt x="1160" y="577" on="1"/>
        <pt x="1160" y="470" on="1"/>
        <pt x="809" y="470" on="1"/>
        <pt x="809" y="321" on="1"/>
        <pt x="1126" y="321" on="1"/>
        <pt x="1126" y="225" on="1"/>
        <pt x="809" y="225" on="1"/>
        <pt x="809" y="0" on="1"/>
        <pt x="668" y="0" on="1"/>
      </contour>
    </TTGlyph>
    <TTGlyph name="F_F_B.sc" xMin="79" yMin="-8" xMax="1811" yMax="584">
      <contour>
        <pt x="79" y="577" on="1"/>
        <pt x="571" y="577" on="1"/>
        <pt x="571" y="470" on="1"/>
        <pt x="220" y="470" on="1"/>
        <pt x="220" y="321" on="1"/>
        <pt x="537" y="321" on="1"/>
        <pt x="537" y="225" on="1"/>
        <pt x="220" y="225" on="1"/>
        <pt x="220" y="0" on="1"/>
        <pt x="79" y="0" on="1"/>
      </contour>
      <contour>
        <pt x="668" y="577" on="1"/>
        <pt x="1160" y="577" on="1"/>
        <pt x="1160" y="470" on="1"/>
        <pt x="809" y="470" on="1"/>
        <pt x="809" y="321" on="1"/>
        <pt x="1126" y="321" on="1"/>
        <pt x="1126" y="225" on="1"/>
        <pt x="809" y="225" on="1"/>
        <pt x="809" y="0" on="1"/>
        <pt x="668" y="0" on="1"/>
      </contour>
      <contour>
        <pt x="1532" y="-8" on="1"/>
        <pt x="1465" y="-8" on="0"/>
        <pt x="1334" y="-2" on="0"/>
        <pt x="1256" y="4" on="1"/>
        <pt x="1256" y="573" on="1"/>
        <pt x="1327" y="578" on="0"/>
        <pt x="1447" y="584" on="0"/>
        <pt x="1505" y="584" on="1"/>
        <pt x="1655" y="584" on="0"/>
        <pt x="1789" y="508" on="0"/>
        <pt x="1789" y="423" on="1"/>
        <pt x="1789" y="375" on="0"/>
        <pt x="1727" y="310" on="0"/>
        <pt x="1670" y="298" on="1"/>
        <pt x="1670" y="295" on="1"/>
        <pt x="1739" y="283" on="0"/>
        <pt x="1811" y="213" on="0"/>
        <pt x="1811" y="157" on="1"/>
        <pt x="1811" y="72" on="0"/>
        <pt x="1675" y="-8" on="0"/>
      </contour>
      <contour>
        <pt x="1522" y="87" on="1"/>
        <pt x="1600" y="87" on="0"/>
        <pt x="1672" y="127" on="0"/>
        <pt x="1672" y="171" on="1"/>
        <pt x="1672" y="213" on="0"/>
        <pt x="1606" y="251" on="0"/>
        <pt x="1534" y="251" on="1"/>
        <pt x="1392" y="251" on="1"/>
        <pt x="1392" y="91" on="1"/>
        <pt x="1401" y="90" on="0"/>
        <pt x="1422" y="88" on="0"/>
        <pt x="1451" y="87" on="0"/>
        <pt x="1492" y="87" on="0"/>
      </contour>
      <contour>
        <pt x="1521" y="334" on="1"/>
        <pt x="1592" y="334" on="0"/>
        <pt x="1651" y="370" on="0"/>
        <pt x="1651" y="413" on="1"/>
        <pt x="1651" y="456" on="0"/>
        <pt x="1588" y="490" on="0"/>
        <pt x="1510" y="490" on="1"/>
        <pt x="1473" y="490" on="0"/>
        <pt x="1415" y="488" on="0"/>
        <pt x="1392" y="485" on="1"/>
        <pt x="1392" y="334" on="1"/>
      </contour>
    </TTGlyph>
    <TTGlyph name="F_F_H.sc" xMin="79" yMin="0" xMax="1872" yMax="577">
      <contour>
        <pt x="79" y="577" on="1"/>
        <pt x="571" y="577" on="1"/>
        <pt x="571" y="470" on="1"/>
        <pt x="220" y="470" on="1"/>
        <pt x="220" y="321" on="1"/>
        <pt x="537" y="321" on="1"/>
        <pt x="537" y="225" on="1"/>
        <pt x="220" y="225" on="1"/>
        <pt x="220" y="0" on="1"/>
        <pt x="79" y="0" on="1"/>
      </contour>
      <contour>
        <pt x="668" y="577" on="1"/>
        <pt x="1160" y="577" on="1"/>
        <pt x="1160" y="470" on="1"/>
        <pt x="809" y="470" on="1"/>
        <pt x="809" y="321" on="1"/>
        <pt x="1126" y="321" on="1"/>
        <pt x="1126" y="225" on="1"/>
        <pt x="809" y="225" on="1"/>
        <pt x="809" y="0" on="1"/>
        <pt x="668" y="0" on="1"/>
      </contour>
      <contour>
        <pt x="1256" y="577" on="1"/>
        <pt x="1397" y="577" on="1"/>
        <pt x="1397" y="350" on="1"/>
        <pt x="1731" y="350" on="1"/>
        <pt x="1731" y="577" on="1"/>
        <pt x="1872" y="577" on="1"/>
        <pt x="1872" y="0" on="1"/>
        <pt x="1731" y="0" on="1"/>
        <pt x="1731" y="243" on="1"/>
        <pt x="1397" y="243" on="1"/>
        <pt x="1397" y="0" on="1"/>
        <pt x="1256" y="0" on="1"/>
      </contour>
    </TTGlyph>
    <TTGlyph name="F_F_I.sc" xMin="79" yMin="0" xMax="1397" yMax="577">
      <contour>
        <pt x="79" y="577" on="1"/>
        <pt x="571" y="577" on="1"/>
        <pt x="571" y="470" on="1"/>
        <pt x="220" y="470" on="1"/>
        <pt x="220" y="321" on="1"/>
        <pt x="537" y="321" on="1"/>
        <pt x="537" y="225" on="1"/>
        <pt x="220" y="225" on="1"/>
        <pt x="220" y="0" on="1"/>
        <pt x="79" y="0" on="1"/>
      </contour>
      <contour>
        <pt x="668" y="577" on="1"/>
        <pt x="1160" y="577" on="1"/>
        <pt x="1160" y="470" on="1"/>
        <pt x="809" y="470" on="1"/>
        <pt x="809" y="321" on="1"/>
        <pt x="1126" y="321" on="1"/>
        <pt x="1126" y="225" on="1"/>
        <pt x="809" y="225" on="1"/>
        <pt x="809" y="0" on="1"/>
        <pt x="668" y="0" on="1"/>
      </contour>
      <contour>
        <pt x="1256" y="577" on="1"/>
        <pt x="1397" y="577" on="1"/>
        <pt x="1397" y="0" on="1"/>
        <pt x="1256" y="0" on="1"/>
      </contour>
    </TTGlyph>
    <TTGlyph name="F_F_J.sc" xMin="79" yMin="-163" xMax="1406" yMax="577">
      <contour>
        <pt x="79" y="577" on="1"/>
        <pt x="571" y="577" on="1"/>
        <pt x="571" y="470" on="1"/>
        <pt x="220" y="470" on="1"/>
        <pt x="220" y="321" on="1"/>
        <pt x="537" y="321" on="1"/>
        <pt x="537" y="225" on="1"/>
        <pt x="220" y="225" on="1"/>
        <pt x="220" y="0" on="1"/>
        <pt x="79" y="0" on="1"/>
      </contour>
      <contour>
        <pt x="668" y="577" on="1"/>
        <pt x="1160" y="577" on="1"/>
        <pt x="1160" y="470" on="1"/>
        <pt x="809" y="470" on="1"/>
        <pt x="809" y="321" on="1"/>
        <pt x="1126" y="321" on="1"/>
        <pt x="1126" y="225" on="1"/>
        <pt x="809" y="225" on="1"/>
        <pt x="809" y="0" on="1"/>
        <pt x="668" y="0" on="1"/>
      </contour>
      <contour>
        <pt x="1198" y="-123" on="1"/>
        <pt x="1217" y="-85" on="0"/>
        <pt x="1243" y="-19" on="0"/>
        <pt x="1258" y="45" on="0"/>
        <pt x="1265" y="113" on="0"/>
        <pt x="1265" y="153" on="1"/>
        <pt x="1265" y="577" on="1"/>
        <pt x="1406" y="577" on="1"/>
        <pt x="1406" y="143" on="1"/>
        <pt x="1406" y="102" on="0"/>
        <pt x="1394" y="31" on="0"/>
        <pt x="1367" y="-41" on="0"/>
        <pt x="1323" y="-117" on="0"/>
        <pt x="1290" y="-163" on="1"/>
      </contour>
    </TTGlyph>
    <TTGlyph name="F_F_K.sc" xMin="79" yMin="0" xMax="1856" yMax="577">
      <contour>
        <pt x="79" y="577" on="1"/>
        <pt x="571" y="577" on="1"/>
        <pt x="571" y="470" on="1"/>
        <pt x="220" y="470" on="1"/>
        <pt x="220" y="321" on="1"/>
        <pt x="537" y="321" on="1"/>
        <pt x="537" y="225" on="1"/>
        <pt x="220" y="225" on="1"/>
        <pt x="220" y="0" on="1"/>
        <pt x="79" y="0" on="1"/>
      </contour>
      <contour>
        <pt x="668" y="577" on="1"/>
        <pt x="1160" y="577" on="1"/>
        <pt x="1160" y="470" on="1"/>
        <pt x="809" y="470" on="1"/>
        <pt x="809" y="321" on="1"/>
        <pt x="1126" y="321" on="1"/>
        <pt x="1126" y="225" on="1"/>
        <pt x="809" y="225" on="1"/>
        <pt x="809" y="0" on="1"/>
        <pt x="668" y="0" on="1"/>
      </contour>
      <contour>
        <pt x="1256" y="577" on="1"/>
        <pt x="1397" y="577" on="1"/>
        <pt x="1397" y="344" on="1"/>
        <pt x="1510" y="344" on="1"/>
        <pt x="1683" y="577" on="1"/>
        <pt x="1841" y="577" on="1"/>
        <pt x="1647" y="326" on="1"/>
        <pt x="1607" y="306" on="1"/>
        <pt x="1607" y="299" on="1"/>
        <pt x="1649" y="278" on="1"/>
        <pt x="1856" y="0" on="1"/>
        <pt x="1697" y="0" on="1"/>
        <pt x="1524" y="237" on="1"/>
        <pt x="1397" y="237" on="1"/>
        <pt x="1397" y="0" on="1"/>
        <pt x="1256" y="0" on="1"/>
      </contour>
    </TTGlyph>
    <TTGlyph name="F_F_L.sc" xMin="79" yMin="0" xMax="1710" yMax="577">
      <contour>
        <pt x="1256" y="577" on="1"/>
        <pt x="1397" y="577" on="1"/>
        <pt x="1397" y="107" on="1"/>
        <pt x="1710" y="107" on="1"/>
        <pt x="1710" y="0" on="1"/>
        <pt x="1256" y="0" on="1"/>
      </contour>
      <contour>
        <pt x="79" y="577" on="1"/>
        <pt x="571" y="577" on="1"/>
        <pt x="571" y="470" on="1"/>
        <pt x="220" y="470" on="1"/>
        <pt x="220" y="321" on="1"/>
        <pt x="537" y="321" on="1"/>
        <pt x="537" y="225" on="1"/>
        <pt x="220" y="225" on="1"/>
        <pt x="220" y="0" on="1"/>
        <pt x="79" y="0" on="1"/>
      </contour>
      <contour>
        <pt x="668" y="577" on="1"/>
        <pt x="1160" y="577" on="1"/>
        <pt x="1160" y="470" on="1"/>
        <pt x="809" y="470" on="1"/>
        <pt x="809" y="321" on="1"/>
        <pt x="1126" y="321" on="1"/>
        <pt x="1126" y="225" on="1"/>
        <pt x="809" y="225" on="1"/>
        <pt x="809" y="0" on="1"/>
        <pt x="668" y="0" on="1"/>
      </contour>
    </TTGlyph>
    <TTGlyph name="F_F_T.sc" xMin="79" yMin="0" xMax="1746" yMax="577">
      <contour>
        <pt x="1394" y="470" on="1"/>
        <pt x="1184" y="470" on="1"/>
        <pt x="1184" y="577" on="1"/>
        <pt x="1746" y="577" on="1"/>
        <pt x="1746" y="470" on="1"/>
        <pt x="1536" y="470" on="1"/>
        <pt x="1536" y="0" on="1"/>
        <pt x="1394" y="0" on="1"/>
      </contour>
      <contour>
        <pt x="79" y="577" on="1"/>
        <pt x="571" y="577" on="1"/>
        <pt x="571" y="470" on="1"/>
        <pt x="220" y="470" on="1"/>
        <pt x="220" y="321" on="1"/>
        <pt x="537" y="321" on="1"/>
        <pt x="537" y="225" on="1"/>
        <pt x="220" y="225" on="1"/>
        <pt x="220" y="0" on="1"/>
        <pt x="79" y="0" on="1"/>
      </contour>
      <contour>
        <pt x="668" y="577" on="1"/>
        <pt x="1160" y="577" on="1"/>
        <pt x="1160" y="470" on="1"/>
        <pt x="809" y="470" on="1"/>
        <pt x="809" y="321" on="1"/>
        <pt x="1126" y="321" on="1"/>
        <pt x="1126" y="225" on="1"/>
        <pt x="809" y="225" on="1"/>
        <pt x="809" y="0" on="1"/>
        <pt x="668" y="0" on="1"/>
      </contour>
    </TTGlyph>
    <TTGlyph name="F_H.sc" xMin="79" yMin="0" xMax="1284" yMax="577">
      <contour>
        <pt x="79" y="577" on="1"/>
        <pt x="571" y="577" on="1"/>
        <pt x="571" y="470" on="1"/>
        <pt x="220" y="470" on="1"/>
        <pt x="220" y="321" on="1"/>
        <pt x="537" y="321" on="1"/>
        <pt x="537" y="225" on="1"/>
        <pt x="220" y="225" on="1"/>
        <pt x="220" y="0" on="1"/>
        <pt x="79" y="0" on="1"/>
      </contour>
      <contour>
        <pt x="668" y="577" on="1"/>
        <pt x="809" y="577" on="1"/>
        <pt x="809" y="350" on="1"/>
        <pt x="1143" y="350" on="1"/>
        <pt x="1143" y="577" on="1"/>
        <pt x="1284" y="577" on="1"/>
        <pt x="1284" y="0" on="1"/>
        <pt x="1143" y="0" on="1"/>
        <pt x="1143" y="243" on="1"/>
        <pt x="809" y="243" on="1"/>
        <pt x="809" y="0" on="1"/>
        <pt x="668" y="0" on="1"/>
      </contour>
    </TTGlyph>
    <TTGlyph name="F_I.sc" xMin="79" yMin="0" xMax="809" yMax="577">
      <contour>
        <pt x="79" y="577" on="1"/>
        <pt x="571" y="577" on="1"/>
        <pt x="571" y="470" on="1"/>
        <pt x="220" y="470" on="1"/>
        <pt x="220" y="321" on="1"/>
        <pt x="537" y="321" on="1"/>
        <pt x="537" y="225" on="1"/>
        <pt x="220" y="225" on="1"/>
        <pt x="220" y="0" on="1"/>
        <pt x="79" y="0" on="1"/>
      </contour>
      <contour>
        <pt x="668" y="577" on="1"/>
        <pt x="809" y="577" on="1"/>
        <pt x="809" y="0" on="1"/>
        <pt x="668" y="0" on="1"/>
      </contour>
    </TTGlyph>
    <TTGlyph name="F_J.sc" xMin="79" yMin="-163" xMax="818" yMax="577">
      <contour>
        <pt x="79" y="577" on="1"/>
        <pt x="571" y="577" on="1"/>
        <pt x="571" y="470" on="1"/>
        <pt x="220" y="470" on="1"/>
        <pt x="220" y="321" on="1"/>
        <pt x="537" y="321" on="1"/>
        <pt x="537" y="225" on="1"/>
        <pt x="220" y="225" on="1"/>
        <pt x="220" y="0" on="1"/>
        <pt x="79" y="0" on="1"/>
      </contour>
      <contour>
        <pt x="610" y="-123" on="1"/>
        <pt x="629" y="-85" on="0"/>
        <pt x="655" y="-19" on="0"/>
        <pt x="670" y="45" on="0"/>
        <pt x="677" y="113" on="0"/>
        <pt x="677" y="153" on="1"/>
        <pt x="677" y="577" on="1"/>
        <pt x="818" y="577" on="1"/>
        <pt x="818" y="143" on="1"/>
        <pt x="818" y="102" on="0"/>
        <pt x="806" y="31" on="0"/>
        <pt x="779" y="-41" on="0"/>
        <pt x="735" y="-117" on="0"/>
        <pt x="702" y="-163" on="1"/>
      </contour>
    </TTGlyph>
    <TTGlyph name="F_K.sc" xMin="79" yMin="0" xMax="1268" yMax="577">
      <contour>
        <pt x="79" y="577" on="1"/>
        <pt x="571" y="577" on="1"/>
        <pt x="571" y="470" on="1"/>
        <pt x="220" y="470" on="1"/>
        <pt x="220" y="321" on="1"/>
        <pt x="537" y="321" on="1"/>
        <pt x="537" y="225" on="1"/>
        <pt x="220" y="225" on="1"/>
        <pt x="220" y="0" on="1"/>
        <pt x="79" y="0" on="1"/>
      </contour>
      <contour>
        <pt x="668" y="577" on="1"/>
        <pt x="809" y="577" on="1"/>
        <pt x="809" y="344" on="1"/>
        <pt x="922" y="344" on="1"/>
        <pt x="1095" y="577" on="1"/>
        <pt x="1253" y="577" on="1"/>
        <pt x="1059" y="326" on="1"/>
        <pt x="1019" y="306" on="1"/>
        <pt x="1019" y="299" on="1"/>
        <pt x="1061" y="278" on="1"/>
        <pt x="1268" y="0" on="1"/>
        <pt x="1109" y="0" on="1"/>
        <pt x="936" y="237" on="1"/>
        <pt x="809" y="237" on="1"/>
        <pt x="809" y="0" on="1"/>
        <pt x="668" y="0" on="1"/>
      </contour>
    </TTGlyph>
    <TTGlyph name="F_L.sc" xMin="79" yMin="0" xMax="1122" yMax="577">
      <contour>
        <pt x="668" y="577" on="1"/>
        <pt x="809" y="577" on="1"/>
        <pt x="809" y="107" on="1"/>
        <pt x="1122" y="107" on="1"/>
        <pt x="1122" y="0" on="1"/>
        <pt x="668" y="0" on="1"/>
      </contour>
      <contour>
        <pt x="79" y="577" on="1"/>
        <pt x="571" y="577" on="1"/>
        <pt x="571" y="470" on="1"/>
        <pt x="220" y="470" on="1"/>
        <pt x="220" y="321" on="1"/>
        <pt x="537" y="321" on="1"/>
        <pt x="537" y="225" on="1"/>
        <pt x="220" y="225" on="1"/>
        <pt x="220" y="0" on="1"/>
        <pt x="79" y="0" on="1"/>
      </contour>
    </TTGlyph>
    <TTGlyph name="F_T.sc" xMin="79" yMin="0" xMax="1158" yMax="577">
      <contour>
        <pt x="806" y="470" on="1"/>
        <pt x="596" y="470" on="1"/>
        <pt x="596" y="577" on="1"/>
        <pt x="1158" y="577" on="1"/>
        <pt x="1158" y="470" on="1"/>
        <pt x="948" y="470" on="1"/>
        <pt x="948" y="0" on="1"/>
        <pt x="806" y="0" on="1"/>
      </contour>
      <contour>
        <pt x="79" y="577" on="1"/>
        <pt x="571" y="577" on="1"/>
        <pt x="571" y="470" on="1"/>
        <pt x="220" y="470" on="1"/>
        <pt x="220" y="321" on="1"/>
        <pt x="537" y="321" on="1"/>
        <pt x="537" y="225" on="1"/>
        <pt x="220" y="225" on="1"/>
        <pt x="220" y="0" on="1"/>
        <pt x="79" y="0" on="1"/>
      </contour>
    </TTGlyph>
    <TTGlyph name="G" xMin="46" yMin="-11" xMax="666" yMax="753">
      <contour>
        <pt x="428" y="-11" on="1"/>
        <pt x="46" y="-11" on="0"/>
        <pt x="46" y="368" on="1"/>
        <pt x="46" y="753" on="0"/>
        <pt x="438" y="753" on="1"/>
        <pt x="492" y="753" on="0"/>
        <pt x="609" y="739" on="0"/>
        <pt x="657" y="727" on="1"/>
        <pt x="657" y="606" on="1"/>
        <pt x="588" y="620" on="0"/>
        <pt x="490" y="630" on="0"/>
        <pt x="448" y="630" on="1"/>
        <pt x="379" y="630" on="0"/>
        <pt x="283" y="602" on="0"/>
        <pt x="224" y="539" on="0"/>
        <pt x="197" y="440" on="0"/>
        <pt x="197" y="369" on="1"/>
        <pt x="197" y="299" on="0"/>
        <pt x="222" y="201" on="0"/>
        <pt x="278" y="139" on="0"/>
        <pt x="365" y="111" on="0"/>
        <pt x="428" y="111" on="1"/>
        <pt x="448" y="111" on="0"/>
        <pt x="502" y="115" on="0"/>
        <pt x="529" y="118" on="1"/>
        <pt x="529" y="376" on="1"/>
        <pt x="666" y="376" on="1"/>
        <pt x="666" y="29" on="1"/>
        <pt x="639" y="20" on="0"/>
        <pt x="576" y="6" on="0"/>
        <pt x="512" y="-5" on="0"/>
        <pt x="452" y="-11" on="0"/>
      </contour>
    </TTGlyph>
    <TTGlyph name="G.sc" xMin="46" yMin="-10" xMax="606" yMax="588">
      <contour>
        <pt x="390" y="-10" on="1"/>
        <pt x="46" y="-10" on="0"/>
        <pt x="46" y="287" on="1"/>
        <pt x="46" y="588" on="0"/>
        <pt x="398" y="588" on="1"/>
        <pt x="447" y="588" on="0"/>
        <pt x="555" y="577" on="0"/>
        <pt x="598" y="568" on="1"/>
        <pt x="598" y="457" on="1"/>
        <pt x="534" y="465" on="0"/>
        <pt x="444" y="473" on="0"/>
        <pt x="408" y="473" on="1"/>
        <pt x="345" y="473" on="0"/>
        <pt x="262" y="454" on="0"/>
        <pt x="212" y="410" on="0"/>
        <pt x="191" y="339" on="0"/>
        <pt x="191" y="288" on="1"/>
        <pt x="191" y="238" on="0"/>
        <pt x="211" y="168" on="0"/>
        <pt x="257" y="125" on="0"/>
        <pt x="334" y="106" on="0"/>
        <pt x="391" y="106" on="1"/>
        <pt x="397" y="106" on="0"/>
        <pt x="420" y="107" on="0"/>
        <pt x="445" y="109" on="0"/>
        <pt x="469" y="111" on="0"/>
        <pt x="475" y="113" on="1"/>
        <pt x="475" y="293" on="1"/>
        <pt x="606" y="293" on="1"/>
        <pt x="606" y="24" on="1"/>
        <pt x="582" y="16" on="0"/>
        <pt x="524" y="4" on="0"/>
        <pt x="466" y="-5" on="0"/>
        <pt x="411" y="-10" on="0"/>
      </contour>
    </TTGlyph>
    <TTGlyph name="Gacute" xMin="46" yMin="-11" xMax="666" yMax="974">
      <contour>
        <pt x="322" y="814" on="1"/>
        <pt x="392" y="974" on="1"/>
        <pt x="541" y="974" on="1"/>
        <pt x="430" y="806" on="1"/>
      </contour>
      <contour>
        <pt x="428" y="-11" on="1"/>
        <pt x="46" y="-11" on="0"/>
        <pt x="46" y="368" on="1"/>
        <pt x="46" y="753" on="0"/>
        <pt x="438" y="753" on="1"/>
        <pt x="492" y="753" on="0"/>
        <pt x="609" y="739" on="0"/>
        <pt x="657" y="727" on="1"/>
        <pt x="657" y="606" on="1"/>
        <pt x="588" y="620" on="0"/>
        <pt x="490" y="630" on="0"/>
        <pt x="448" y="630" on="1"/>
        <pt x="379" y="630" on="0"/>
        <pt x="283" y="602" on="0"/>
        <pt x="224" y="539" on="0"/>
        <pt x="197" y="440" on="0"/>
        <pt x="197" y="369" on="1"/>
        <pt x="197" y="299" on="0"/>
        <pt x="222" y="201" on="0"/>
        <pt x="278" y="139" on="0"/>
        <pt x="365" y="111" on="0"/>
        <pt x="428" y="111" on="1"/>
        <pt x="448" y="111" on="0"/>
        <pt x="502" y="115" on="0"/>
        <pt x="529" y="118" on="1"/>
        <pt x="529" y="376" on="1"/>
        <pt x="666" y="376" on="1"/>
        <pt x="666" y="29" on="1"/>
        <pt x="639" y="20" on="0"/>
        <pt x="576" y="6" on="0"/>
        <pt x="512" y="-5" on="0"/>
        <pt x="452" y="-11" on="0"/>
      </contour>
    </TTGlyph>
    <TTGlyph name="Gacute.sc" xMin="46" yMin="-10" xMax="606" yMax="770">
      <contour>
        <pt x="390" y="-10" on="1"/>
        <pt x="216" y="-10" on="0"/>
        <pt x="46" y="136" on="0"/>
        <pt x="46" y="287" on="1"/>
        <pt x="46" y="588" on="0"/>
        <pt x="398" y="588" on="1"/>
        <pt x="448" y="588" on="0"/>
        <pt x="556" y="577" on="0"/>
        <pt x="598" y="568" on="1"/>
        <pt x="598" y="454" on="1"/>
        <pt x="535" y="464" on="0"/>
        <pt x="444" y="473" on="0"/>
        <pt x="408" y="473" on="1"/>
        <pt x="347" y="473" on="0"/>
        <pt x="264" y="455" on="0"/>
        <pt x="213" y="411" on="0"/>
        <pt x="191" y="340" on="0"/>
        <pt x="191" y="288" on="1"/>
        <pt x="191" y="237" on="0"/>
        <pt x="212" y="167" on="0"/>
        <pt x="259" y="124" on="0"/>
        <pt x="335" y="106" on="0"/>
        <pt x="391" y="106" on="1"/>
        <pt x="397" y="106" on="0"/>
        <pt x="420" y="107" on="0"/>
        <pt x="445" y="109" on="0"/>
        <pt x="469" y="111" on="0"/>
        <pt x="475" y="113" on="1"/>
        <pt x="475" y="293" on="1"/>
        <pt x="606" y="293" on="1"/>
        <pt x="606" y="24" on="1"/>
        <pt x="582" y="17" on="0"/>
        <pt x="526" y="4" on="0"/>
        <pt x="467" y="-5" on="0"/>
        <pt x="412" y="-10" on="0"/>
      </contour>
      <contour>
        <pt x="291" y="637" on="1"/>
        <pt x="350" y="770" on="1"/>
        <pt x="493" y="770" on="1"/>
        <pt x="393" y="630" on="1"/>
      </contour>
    </TTGlyph>
    <TTGlyph name="Gbreve" xMin="46" yMin="-11" xMax="666" yMax="981">
      <contour>
        <pt x="392" y="813" on="1"/>
        <pt x="333" y="813" on="0"/>
        <pt x="251" y="838" on="0"/>
        <pt x="199" y="883" on="0"/>
        <pt x="175" y="945" on="0"/>
        <pt x="175" y="981" on="1"/>
        <pt x="275" y="981" on="1"/>
        <pt x="275" y="936" on="0"/>
        <pt x="329" y="888" on="0"/>
        <pt x="392" y="888" on="1"/>
        <pt x="455" y="888" on="0"/>
        <pt x="509" y="936" on="0"/>
        <pt x="509" y="981" on="1"/>
        <pt x="609" y="981" on="1"/>
        <pt x="609" y="944" on="0"/>
        <pt x="585" y="883" on="0"/>
        <pt x="533" y="838" on="0"/>
        <pt x="450" y="813" on="0"/>
      </contour>
      <contour>
        <pt x="428" y="-11" on="1"/>
        <pt x="46" y="-11" on="0"/>
        <pt x="46" y="368" on="1"/>
        <pt x="46" y="753" on="0"/>
        <pt x="438" y="753" on="1"/>
        <pt x="492" y="753" on="0"/>
        <pt x="609" y="739" on="0"/>
        <pt x="657" y="727" on="1"/>
        <pt x="657" y="606" on="1"/>
        <pt x="588" y="620" on="0"/>
        <pt x="490" y="630" on="0"/>
        <pt x="448" y="630" on="1"/>
        <pt x="379" y="630" on="0"/>
        <pt x="283" y="602" on="0"/>
        <pt x="224" y="539" on="0"/>
        <pt x="197" y="440" on="0"/>
        <pt x="197" y="369" on="1"/>
        <pt x="197" y="299" on="0"/>
        <pt x="222" y="201" on="0"/>
        <pt x="278" y="139" on="0"/>
        <pt x="365" y="111" on="0"/>
        <pt x="428" y="111" on="1"/>
        <pt x="448" y="111" on="0"/>
        <pt x="502" y="115" on="0"/>
        <pt x="529" y="118" on="1"/>
        <pt x="529" y="376" on="1"/>
        <pt x="666" y="376" on="1"/>
        <pt x="666" y="29" on="1"/>
        <pt x="639" y="20" on="0"/>
        <pt x="576" y="6" on="0"/>
        <pt x="512" y="-5" on="0"/>
        <pt x="452" y="-11" on="0"/>
      </contour>
    </TTGlyph>
    <TTGlyph name="Gbreve.sc" xMin="46" yMin="-10" xMax="606" yMax="773">
      <contour>
        <pt x="390" y="-10" on="1"/>
        <pt x="216" y="-10" on="0"/>
        <pt x="46" y="136" on="0"/>
        <pt x="46" y="287" on="1"/>
        <pt x="46" y="588" on="0"/>
        <pt x="398" y="588" on="1"/>
        <pt x="448" y="588" on="0"/>
        <pt x="556" y="577" on="0"/>
        <pt x="598" y="568" on="1"/>
        <pt x="598" y="454" on="1"/>
        <pt x="535" y="464" on="0"/>
        <pt x="444" y="473" on="0"/>
        <pt x="408" y="473" on="1"/>
        <pt x="347" y="473" on="0"/>
        <pt x="264" y="455" on="0"/>
        <pt x="213" y="411" on="0"/>
        <pt x="191" y="340" on="0"/>
        <pt x="191" y="288" on="1"/>
        <pt x="191" y="237" on="0"/>
        <pt x="212" y="167" on="0"/>
        <pt x="259" y="124" on="0"/>
        <pt x="335" y="106" on="0"/>
        <pt x="391" y="106" on="1"/>
        <pt x="397" y="106" on="0"/>
        <pt x="420" y="107" on="0"/>
        <pt x="445" y="109" on="0"/>
        <pt x="469" y="111" on="0"/>
        <pt x="475" y="113" on="1"/>
        <pt x="475" y="293" on="1"/>
        <pt x="606" y="293" on="1"/>
        <pt x="606" y="24" on="1"/>
        <pt x="582" y="17" on="0"/>
        <pt x="526" y="4" on="0"/>
        <pt x="467" y="-5" on="0"/>
        <pt x="412" y="-10" on="0"/>
      </contour>
      <contour>
        <pt x="358" y="634" on="1"/>
        <pt x="303" y="634" on="0"/>
        <pt x="228" y="656" on="0"/>
        <pt x="181" y="693" on="0"/>
        <pt x="161" y="744" on="0"/>
        <pt x="161" y="773" on="1"/>
        <pt x="253" y="773" on="1"/>
        <pt x="253" y="739" on="0"/>
        <pt x="301" y="702" on="0"/>
        <pt x="358" y="702" on="1"/>
        <pt x="415" y="702" on="0"/>
        <pt x="461" y="739" on="0"/>
        <pt x="461" y="773" on="1"/>
        <pt x="555" y="773" on="1"/>
        <pt x="555" y="743" on="0"/>
        <pt x="534" y="693" on="0"/>
        <pt x="488" y="655" on="0"/>
        <pt x="412" y="634" on="0"/>
      </contour>
    </TTGlyph>
    <TTGlyph name="Gcircumflex" xMin="46" yMin="-11" xMax="666" yMax="986">
      <contour>
        <pt x="428" y="-11" on="1"/>
        <pt x="46" y="-11" on="0"/>
        <pt x="46" y="368" on="1"/>
        <pt x="46" y="753" on="0"/>
        <pt x="438" y="753" on="1"/>
        <pt x="492" y="753" on="0"/>
        <pt x="609" y="739" on="0"/>
        <pt x="657" y="727" on="1"/>
        <pt x="657" y="606" on="1"/>
        <pt x="588" y="620" on="0"/>
        <pt x="490" y="630" on="0"/>
        <pt x="448" y="630" on="1"/>
        <pt x="379" y="630" on="0"/>
        <pt x="283" y="602" on="0"/>
        <pt x="224" y="539" on="0"/>
        <pt x="197" y="440" on="0"/>
        <pt x="197" y="369" on="1"/>
        <pt x="197" y="299" on="0"/>
        <pt x="222" y="201" on="0"/>
        <pt x="278" y="139" on="0"/>
        <pt x="365" y="111" on="0"/>
        <pt x="428" y="111" on="1"/>
        <pt x="448" y="111" on="0"/>
        <pt x="502" y="115" on="0"/>
        <pt x="529" y="118" on="1"/>
        <pt x="529" y="376" on="1"/>
        <pt x="666" y="376" on="1"/>
        <pt x="666" y="29" on="1"/>
        <pt x="639" y="20" on="0"/>
        <pt x="576" y="6" on="0"/>
        <pt x="512" y="-5" on="0"/>
        <pt x="452" y="-11" on="0"/>
      </contour>
      <contour>
        <pt x="185" y="908" on="1"/>
        <pt x="382" y="986" on="1"/>
        <pt x="582" y="908" on="1"/>
        <pt x="582" y="806" on="1"/>
        <pt x="383" y="884" on="1"/>
        <pt x="185" y="806" on="1"/>
      </contour>
    </TTGlyph>
    <TTGlyph name="Gcircumflex.sc" xMin="46" yMin="-10" xMax="606" yMax="782">
      <contour>
        <pt x="390" y="-10" on="1"/>
        <pt x="216" y="-10" on="0"/>
        <pt x="46" y="136" on="0"/>
        <pt x="46" y="287" on="1"/>
        <pt x="46" y="588" on="0"/>
        <pt x="398" y="588" on="1"/>
        <pt x="448" y="588" on="0"/>
        <pt x="556" y="577" on="0"/>
        <pt x="598" y="568" on="1"/>
        <pt x="598" y="454" on="1"/>
        <pt x="535" y="464" on="0"/>
        <pt x="444" y="473" on="0"/>
        <pt x="408" y="473" on="1"/>
        <pt x="347" y="473" on="0"/>
        <pt x="264" y="455" on="0"/>
        <pt x="213" y="411" on="0"/>
        <pt x="191" y="340" on="0"/>
        <pt x="191" y="288" on="1"/>
        <pt x="191" y="237" on="0"/>
        <pt x="212" y="167" on="0"/>
        <pt x="259" y="124" on="0"/>
        <pt x="335" y="106" on="0"/>
        <pt x="391" y="106" on="1"/>
        <pt x="397" y="106" on="0"/>
        <pt x="420" y="107" on="0"/>
        <pt x="445" y="109" on="0"/>
        <pt x="469" y="111" on="0"/>
        <pt x="475" y="113" on="1"/>
        <pt x="475" y="293" on="1"/>
        <pt x="606" y="293" on="1"/>
        <pt x="606" y="24" on="1"/>
        <pt x="582" y="17" on="0"/>
        <pt x="526" y="4" on="0"/>
        <pt x="467" y="-5" on="0"/>
        <pt x="412" y="-10" on="0"/>
      </contour>
      <contour>
        <pt x="167" y="720" on="1"/>
        <pt x="346" y="782" on="1"/>
        <pt x="529" y="720" on="1"/>
        <pt x="529" y="627" on="1"/>
        <pt x="348" y="688" on="1"/>
        <pt x="167" y="627" on="1"/>
      </contour>
    </TTGlyph>
    <TTGlyph name="Gcommaaccent" xMin="46" yMin="-220" xMax="666" yMax="753">
      <contour>
        <pt x="317" y="-70" on="1"/>
        <pt x="467" y="-70" on="1"/>
        <pt x="385" y="-220" on="1"/>
        <pt x="273" y="-220" on="1"/>
      </contour>
      <contour>
        <pt x="428" y="-11" on="1"/>
        <pt x="46" y="-11" on="0"/>
        <pt x="46" y="368" on="1"/>
        <pt x="46" y="753" on="0"/>
        <pt x="438" y="753" on="1"/>
        <pt x="492" y="753" on="0"/>
        <pt x="609" y="739" on="0"/>
        <pt x="657" y="727" on="1"/>
        <pt x="657" y="606" on="1"/>
        <pt x="588" y="620" on="0"/>
        <pt x="490" y="630" on="0"/>
        <pt x="448" y="630" on="1"/>
        <pt x="379" y="630" on="0"/>
        <pt x="283" y="602" on="0"/>
        <pt x="224" y="539" on="0"/>
        <pt x="197" y="440" on="0"/>
        <pt x="197" y="369" on="1"/>
        <pt x="197" y="299" on="0"/>
        <pt x="222" y="201" on="0"/>
        <pt x="278" y="139" on="0"/>
        <pt x="365" y="111" on="0"/>
        <pt x="428" y="111" on="1"/>
        <pt x="448" y="111" on="0"/>
        <pt x="502" y="115" on="0"/>
        <pt x="529" y="118" on="1"/>
        <pt x="529" y="376" on="1"/>
        <pt x="666" y="376" on="1"/>
        <pt x="666" y="29" on="1"/>
        <pt x="639" y="20" on="0"/>
        <pt x="576" y="6" on="0"/>
        <pt x="512" y="-5" on="0"/>
        <pt x="452" y="-11" on="0"/>
      </contour>
    </TTGlyph>
    <TTGlyph name="Gcommaaccent.sc" xMin="46" yMin="-172" xMax="606" yMax="588">
      <contour>
        <pt x="390" y="-10" on="1"/>
        <pt x="216" y="-10" on="0"/>
        <pt x="46" y="136" on="0"/>
        <pt x="46" y="287" on="1"/>
        <pt x="46" y="588" on="0"/>
        <pt x="398" y="588" on="1"/>
        <pt x="448" y="588" on="0"/>
        <pt x="556" y="577" on="0"/>
        <pt x="598" y="568" on="1"/>
        <pt x="598" y="454" on="1"/>
        <pt x="535" y="464" on="0"/>
        <pt x="444" y="473" on="0"/>
        <pt x="408" y="473" on="1"/>
        <pt x="347" y="473" on="0"/>
        <pt x="264" y="455" on="0"/>
        <pt x="213" y="411" on="0"/>
        <pt x="191" y="340" on="0"/>
        <pt x="191" y="288" on="1"/>
        <pt x="191" y="237" on="0"/>
        <pt x="212" y="167" on="0"/>
        <pt x="259" y="124" on="0"/>
        <pt x="335" y="106" on="0"/>
        <pt x="391" y="106" on="1"/>
        <pt x="397" y="106" on="0"/>
        <pt x="420" y="107" on="0"/>
        <pt x="445" y="109" on="0"/>
        <pt x="469" y="111" on="0"/>
        <pt x="475" y="113" on="1"/>
        <pt x="475" y="293" on="1"/>
        <pt x="606" y="293" on="1"/>
        <pt x="606" y="24" on="1"/>
        <pt x="582" y="17" on="0"/>
        <pt x="526" y="4" on="0"/>
        <pt x="467" y="-5" on="0"/>
        <pt x="412" y="-10" on="0"/>
      </contour>
      <contour>
        <pt x="284" y="-55" on="1"/>
        <pt x="428" y="-55" on="1"/>
        <pt x="353" y="-172" on="1"/>
        <pt x="246" y="-172" on="1"/>
      </contour>
    </TTGlyph>
    <TTGlyph name="Gdotaccent" xMin="46" yMin="-11" xMax="666" yMax="971">
      <contour>
        <pt x="396" y="809" on="1"/>
        <pt x="351" y="809" on="0"/>
        <pt x="312" y="847" on="0"/>
        <pt x="312" y="890" on="1"/>
        <pt x="312" y="932" on="0"/>
        <pt x="351" y="971" on="0"/>
        <pt x="396" y="971" on="1"/>
        <pt x="440" y="971" on="0"/>
        <pt x="479" y="932" on="0"/>
        <pt x="479" y="890" on="1"/>
        <pt x="479" y="848" on="0"/>
        <pt x="440" y="809" on="0"/>
      </contour>
      <contour>
        <pt x="428" y="-11" on="1"/>
        <pt x="46" y="-11" on="0"/>
        <pt x="46" y="368" on="1"/>
        <pt x="46" y="753" on="0"/>
        <pt x="438" y="753" on="1"/>
        <pt x="492" y="753" on="0"/>
        <pt x="609" y="739" on="0"/>
        <pt x="657" y="727" on="1"/>
        <pt x="657" y="606" on="1"/>
        <pt x="588" y="620" on="0"/>
        <pt x="490" y="630" on="0"/>
        <pt x="448" y="630" on="1"/>
        <pt x="379" y="630" on="0"/>
        <pt x="283" y="602" on="0"/>
        <pt x="224" y="539" on="0"/>
        <pt x="197" y="440" on="0"/>
        <pt x="197" y="369" on="1"/>
        <pt x="197" y="299" on="0"/>
        <pt x="222" y="201" on="0"/>
        <pt x="278" y="139" on="0"/>
        <pt x="365" y="111" on="0"/>
        <pt x="428" y="111" on="1"/>
        <pt x="448" y="111" on="0"/>
        <pt x="502" y="115" on="0"/>
        <pt x="529" y="118" on="1"/>
        <pt x="529" y="376" on="1"/>
        <pt x="666" y="376" on="1"/>
        <pt x="666" y="29" on="1"/>
        <pt x="639" y="20" on="0"/>
        <pt x="576" y="6" on="0"/>
        <pt x="512" y="-5" on="0"/>
        <pt x="452" y="-11" on="0"/>
      </contour>
    </TTGlyph>
    <TTGlyph name="Gdotaccent.sc" xMin="46" yMin="-10" xMax="606" yMax="776">
      <contour>
        <pt x="390" y="-10" on="1"/>
        <pt x="216" y="-10" on="0"/>
        <pt x="46" y="136" on="0"/>
        <pt x="46" y="287" on="1"/>
        <pt x="46" y="588" on="0"/>
        <pt x="398" y="588" on="1"/>
        <pt x="448" y="588" on="0"/>
        <pt x="556" y="577" on="0"/>
        <pt x="598" y="568" on="1"/>
        <pt x="598" y="454" on="1"/>
        <pt x="535" y="464" on="0"/>
        <pt x="444" y="473" on="0"/>
        <pt x="408" y="473" on="1"/>
        <pt x="347" y="473" on="0"/>
        <pt x="264" y="455" on="0"/>
        <pt x="213" y="411" on="0"/>
        <pt x="191" y="340" on="0"/>
        <pt x="191" y="288" on="1"/>
        <pt x="191" y="237" on="0"/>
        <pt x="212" y="167" on="0"/>
        <pt x="259" y="124" on="0"/>
        <pt x="335" y="106" on="0"/>
        <pt x="391" y="106" on="1"/>
        <pt x="397" y="106" on="0"/>
        <pt x="420" y="107" on="0"/>
        <pt x="445" y="109" on="0"/>
        <pt x="469" y="111" on="0"/>
        <pt x="475" y="113" on="1"/>
        <pt x="475" y="293" on="1"/>
        <pt x="606" y="293" on="1"/>
        <pt x="606" y="24" on="1"/>
        <pt x="582" y="17" on="0"/>
        <pt x="526" y="4" on="0"/>
        <pt x="467" y="-5" on="0"/>
        <pt x="412" y="-10" on="0"/>
      </contour>
      <contour>
        <pt x="361" y="627" on="1"/>
        <pt x="319" y="627" on="0"/>
        <pt x="282" y="662" on="0"/>
        <pt x="282" y="702" on="1"/>
        <pt x="282" y="740" on="0"/>
        <pt x="319" y="776" on="0"/>
        <pt x="361" y="776" on="1"/>
        <pt x="403" y="776" on="0"/>
        <pt x="439" y="739" on="0"/>
        <pt x="439" y="702" on="1"/>
        <pt x="439" y="664" on="0"/>
        <pt x="403" y="627" on="0"/>
      </contour>
    </TTGlyph>
    <TTGlyph name="H" xMin="83" yMin="0" xMax="764" yMax="740">
      <contour>
        <pt x="83" y="740" on="1"/>
        <pt x="231" y="740" on="1"/>
        <pt x="231" y="437" on="1"/>
        <pt x="616" y="437" on="1"/>
        <pt x="616" y="740" on="1"/>
        <pt x="764" y="740" on="1"/>
        <pt x="764" y="0" on="1"/>
        <pt x="616" y="0" on="1"/>
        <pt x="616" y="323" on="1"/>
        <pt x="231" y="323" on="1"/>
        <pt x="231" y="0" on="1"/>
        <pt x="83" y="0" on="1"/>
      </contour>
    </TTGlyph>
    <TTGlyph name="H.sc" xMin="79" yMin="0" xMax="695" yMax="577">
      <contour>
        <pt x="79" y="577" on="1"/>
        <pt x="220" y="577" on="1"/>
        <pt x="220" y="350" on="1"/>
        <pt x="554" y="350" on="1"/>
        <pt x="554" y="577" on="1"/>
        <pt x="695" y="577" on="1"/>
        <pt x="695" y="0" on="1"/>
        <pt x="554" y="0" on="1"/>
        <pt x="554" y="243" on="1"/>
        <pt x="220" y="243" on="1"/>
        <pt x="220" y="0" on="1"/>
        <pt x="79" y="0" on="1"/>
      </contour>
    </TTGlyph>
    <TTGlyph name="Hbar" xMin="9" yMin="0" xMax="851" yMax="740">
      <contour>
        <pt x="9" y="614" on="1"/>
        <pt x="89" y="614" on="1"/>
        <pt x="89" y="740" on="1"/>
        <pt x="237" y="740" on="1"/>
        <pt x="237" y="614" on="1"/>
        <pt x="622" y="614" on="1"/>
        <pt x="622" y="740" on="1"/>
        <pt x="770" y="740" on="1"/>
        <pt x="770" y="614" on="1"/>
        <pt x="851" y="614" on="1"/>
        <pt x="851" y="541" on="1"/>
        <pt x="770" y="541" on="1"/>
        <pt x="770" y="0" on="1"/>
        <pt x="622" y="0" on="1"/>
        <pt x="622" y="323" on="1"/>
        <pt x="237" y="323" on="1"/>
        <pt x="237" y="0" on="1"/>
        <pt x="89" y="0" on="1"/>
        <pt x="89" y="541" on="1"/>
        <pt x="9" y="541" on="1"/>
      </contour>
      <contour>
        <pt x="622" y="437" on="1"/>
        <pt x="622" y="541" on="1"/>
        <pt x="237" y="541" on="1"/>
        <pt x="237" y="437" on="1"/>
      </contour>
    </TTGlyph>
    <TTGlyph name="Hbar.sc" xMin="15" yMin="0" xMax="770" yMax="577">
      <contour>
        <pt x="15" y="486" on="1"/>
        <pt x="84" y="486" on="1"/>
        <pt x="84" y="577" on="1"/>
        <pt x="225" y="577" on="1"/>
        <pt x="225" y="486" on="1"/>
        <pt x="559" y="486" on="1"/>
        <pt x="559" y="577" on="1"/>
        <pt x="700" y="577" on="1"/>
        <pt x="700" y="486" on="1"/>
        <pt x="770" y="486" on="1"/>
        <pt x="770" y="420" on="1"/>
        <pt x="700" y="420" on="1"/>
        <pt x="700" y="0" on="1"/>
        <pt x="559" y="0" on="1"/>
        <pt x="559" y="232" on="1"/>
        <pt x="225" y="232" on="1"/>
        <pt x="225" y="0" on="1"/>
        <pt x="84" y="0" on="1"/>
        <pt x="84" y="420" on="1"/>
        <pt x="15" y="420" on="1"/>
      </contour>
      <contour>
        <pt x="559" y="339" on="1"/>
        <pt x="559" y="420" on="1"/>
        <pt x="225" y="420" on="1"/>
        <pt x="225" y="339" on="1"/>
      </contour>
    </TTGlyph>
    <TTGlyph name="Hcircumflex" xMin="83" yMin="0" xMax="764" yMax="986">
      <contour>
        <pt x="83" y="740" on="1"/>
        <pt x="231" y="740" on="1"/>
        <pt x="231" y="437" on="1"/>
        <pt x="616" y="437" on="1"/>
        <pt x="616" y="740" on="1"/>
        <pt x="764" y="740" on="1"/>
        <pt x="764" y="0" on="1"/>
        <pt x="616" y="0" on="1"/>
        <pt x="616" y="323" on="1"/>
        <pt x="231" y="323" on="1"/>
        <pt x="231" y="0" on="1"/>
        <pt x="83" y="0" on="1"/>
      </contour>
      <contour>
        <pt x="222" y="908" on="1"/>
        <pt x="419" y="986" on="1"/>
        <pt x="619" y="908" on="1"/>
        <pt x="619" y="806" on="1"/>
        <pt x="420" y="884" on="1"/>
        <pt x="222" y="806" on="1"/>
      </contour>
    </TTGlyph>
    <TTGlyph name="Hcircumflex.sc" xMin="79" yMin="0" xMax="695" yMax="782">
      <contour>
        <pt x="79" y="577" on="1"/>
        <pt x="220" y="577" on="1"/>
        <pt x="220" y="350" on="1"/>
        <pt x="554" y="350" on="1"/>
        <pt x="554" y="577" on="1"/>
        <pt x="695" y="577" on="1"/>
        <pt x="695" y="0" on="1"/>
        <pt x="554" y="0" on="1"/>
        <pt x="554" y="243" on="1"/>
        <pt x="220" y="243" on="1"/>
        <pt x="220" y="0" on="1"/>
        <pt x="79" y="0" on="1"/>
      </contour>
      <contour>
        <pt x="204" y="720" on="1"/>
        <pt x="384" y="782" on="1"/>
        <pt x="567" y="720" on="1"/>
        <pt x="567" y="627" on="1"/>
        <pt x="386" y="688" on="1"/>
        <pt x="204" y="627" on="1"/>
      </contour>
    </TTGlyph>
    <TTGlyph name="Hdotbelow" xMin="83" yMin="-198" xMax="764" yMax="740">
      <contour>
        <pt x="83" y="740" on="1"/>
        <pt x="231" y="740" on="1"/>
        <pt x="231" y="437" on="1"/>
        <pt x="616" y="437" on="1"/>
        <pt x="616" y="740" on="1"/>
        <pt x="764" y="740" on="1"/>
        <pt x="764" y="0" on="1"/>
        <pt x="616" y="0" on="1"/>
        <pt x="616" y="323" on="1"/>
        <pt x="231" y="323" on="1"/>
        <pt x="231" y="0" on="1"/>
        <pt x="83" y="0" on="1"/>
      </contour>
      <contour>
        <pt x="426" y="-198" on="1"/>
        <pt x="391" y="-198" on="0"/>
        <pt x="359" y="-168" on="0"/>
        <pt x="359" y="-133" on="1"/>
        <pt x="359" y="-98" on="0"/>
        <pt x="391" y="-67" on="0"/>
        <pt x="426" y="-67" on="1"/>
        <pt x="463" y="-67" on="0"/>
        <pt x="495" y="-99" on="0"/>
        <pt x="495" y="-133" on="1"/>
        <pt x="495" y="-167" on="0"/>
        <pt x="463" y="-198" on="0"/>
      </contour>
    </TTGlyph>
    <TTGlyph name="Hdotbelow.sc" xMin="79" yMin="-161" xMax="695" yMax="577">
      <contour>
        <pt x="79" y="577" on="1"/>
        <pt x="220" y="577" on="1"/>
        <pt x="220" y="350" on="1"/>
        <pt x="554" y="350" on="1"/>
        <pt x="554" y="577" on="1"/>
        <pt x="695" y="577" on="1"/>
        <pt x="695" y="0" on="1"/>
        <pt x="554" y="0" on="1"/>
        <pt x="554" y="243" on="1"/>
        <pt x="220" y="243" on="1"/>
        <pt x="220" y="0" on="1"/>
        <pt x="79" y="0" on="1"/>
      </contour>
      <contour>
        <pt x="389" y="-161" on="1"/>
        <pt x="327" y="-161" on="0"/>
        <pt x="327" y="-104" on="1"/>
        <pt x="327" y="-45" on="0"/>
        <pt x="389" y="-45" on="1"/>
        <pt x="423" y="-45" on="0"/>
        <pt x="452" y="-74" on="0"/>
        <pt x="452" y="-104" on="1"/>
        <pt x="452" y="-133" on="0"/>
        <pt x="423" y="-161" on="0"/>
      </contour>
    </TTGlyph>
    <TTGlyph name="I" xMin="83" yMin="0" xMax="231" yMax="740">
      <contour>
        <pt x="83" y="740" on="1"/>
        <pt x="231" y="740" on="1"/>
        <pt x="231" y="0" on="1"/>
        <pt x="83" y="0" on="1"/>
      </contour>
    </TTGlyph>
    <TTGlyph name="I.sc" xMin="79" yMin="0" xMax="220" yMax="577">
      <contour>
        <pt x="79" y="577" on="1"/>
        <pt x="220" y="577" on="1"/>
        <pt x="220" y="0" on="1"/>
        <pt x="79" y="0" on="1"/>
      </contour>
    </TTGlyph>
    <TTGlyph name="IJ" xMin="83" yMin="-201" xMax="547" yMax="740">
      <contour>
        <pt x="83" y="740" on="1"/>
        <pt x="231" y="740" on="1"/>
        <pt x="231" y="0" on="1"/>
        <pt x="83" y="0" on="1"/>
      </contour>
      <contour>
        <pt x="322" y="-158" on="1"/>
        <pt x="344" y="-110" on="0"/>
        <pt x="373" y="-27" on="0"/>
        <pt x="391" y="55" on="0"/>
        <pt x="399" y="141" on="0"/>
        <pt x="399" y="193" on="1"/>
        <pt x="399" y="740" on="1"/>
        <pt x="547" y="740" on="1"/>
        <pt x="547" y="182" on="1"/>
        <pt x="547" y="130" on="0"/>
        <pt x="534" y="41" on="0"/>
        <pt x="504" y="-48" on="0"/>
        <pt x="455" y="-143" on="0"/>
        <pt x="419" y="-201" on="1"/>
      </contour>
    </TTGlyph>
    <TTGlyph name="Iacute" xMin="83" yMin="0" xMax="317" yMax="974">
      <contour>
        <pt x="83" y="740" on="1"/>
        <pt x="231" y="740" on="1"/>
        <pt x="231" y="0" on="1"/>
        <pt x="83" y="0" on="1"/>
      </contour>
      <contour>
        <pt x="98" y="814" on="1"/>
        <pt x="168" y="974" on="1"/>
        <pt x="317" y="974" on="1"/>
        <pt x="206" y="806" on="1"/>
      </contour>
    </TTGlyph>
    <TTGlyph name="Iacute.sc" xMin="79" yMin="0" xMax="297" yMax="770">
      <contour>
        <pt x="79" y="577" on="1"/>
        <pt x="220" y="577" on="1"/>
        <pt x="220" y="0" on="1"/>
        <pt x="79" y="0" on="1"/>
      </contour>
      <contour>
        <pt x="94" y="637" on="1"/>
        <pt x="155" y="770" on="1"/>
        <pt x="297" y="770" on="1"/>
        <pt x="196" y="630" on="1"/>
      </contour>
    </TTGlyph>
    <TTGlyph name="Ibreve" xMin="-61" yMin="0" xMax="373" yMax="981">
      <contour>
        <pt x="83" y="740" on="1"/>
        <pt x="231" y="740" on="1"/>
        <pt x="231" y="0" on="1"/>
        <pt x="83" y="0" on="1"/>
      </contour>
      <contour>
        <pt x="156" y="813" on="1"/>
        <pt x="97" y="813" on="0"/>
        <pt x="15" y="838" on="0"/>
        <pt x="-37" y="883" on="0"/>
        <pt x="-61" y="945" on="0"/>
        <pt x="-61" y="981" on="1"/>
        <pt x="39" y="981" on="1"/>
        <pt x="39" y="936" on="0"/>
        <pt x="93" y="888" on="0"/>
        <pt x="156" y="888" on="1"/>
        <pt x="219" y="888" on="0"/>
        <pt x="273" y="936" on="0"/>
        <pt x="273" y="981" on="1"/>
        <pt x="373" y="981" on="1"/>
        <pt x="373" y="944" on="0"/>
        <pt x="349" y="883" on="0"/>
        <pt x="297" y="838" on="0"/>
        <pt x="214" y="813" on="0"/>
      </contour>
    </TTGlyph>
    <TTGlyph name="Ibreve.sc" xMin="-48" yMin="0" xMax="346" yMax="773">
      <contour>
        <pt x="79" y="577" on="1"/>
        <pt x="220" y="577" on="1"/>
        <pt x="220" y="0" on="1"/>
        <pt x="79" y="0" on="1"/>
      </contour>
      <contour>
        <pt x="149" y="634" on="1"/>
        <pt x="95" y="634" on="0"/>
        <pt x="19" y="656" on="0"/>
        <pt x="-27" y="693" on="0"/>
        <pt x="-48" y="744" on="0"/>
        <pt x="-48" y="773" on="1"/>
        <pt x="45" y="773" on="1"/>
        <pt x="45" y="739" on="0"/>
        <pt x="92" y="702" on="0"/>
        <pt x="149" y="702" on="1"/>
        <pt x="206" y="702" on="0"/>
        <pt x="253" y="739" on="0"/>
        <pt x="253" y="773" on="1"/>
        <pt x="346" y="773" on="1"/>
        <pt x="346" y="743" on="0"/>
        <pt x="325" y="693" on="0"/>
        <pt x="279" y="655" on="0"/>
        <pt x="203" y="634" on="0"/>
      </contour>
    </TTGlyph>
    <TTGlyph name="Icircumflex" xMin="-40" yMin="0" xMax="357" yMax="986">
      <contour>
        <pt x="83" y="740" on="1"/>
        <pt x="231" y="740" on="1"/>
        <pt x="231" y="0" on="1"/>
        <pt x="83" y="0" on="1"/>
      </contour>
      <contour>
        <pt x="-40" y="908" on="1"/>
        <pt x="157" y="986" on="1"/>
        <pt x="357" y="908" on="1"/>
        <pt x="357" y="806" on="1"/>
        <pt x="158" y="884" on="1"/>
        <pt x="-40" y="806" on="1"/>
      </contour>
    </TTGlyph>
    <TTGlyph name="Icircumflex.sc" xMin="-29" yMin="0" xMax="333" yMax="782">
      <contour>
        <pt x="79" y="577" on="1"/>
        <pt x="220" y="577" on="1"/>
        <pt x="220" y="0" on="1"/>
        <pt x="79" y="0" on="1"/>
      </contour>
      <contour>
        <pt x="-29" y="720" on="1"/>
        <pt x="150" y="782" on="1"/>
        <pt x="333" y="720" on="1"/>
        <pt x="333" y="627" on="1"/>
        <pt x="152" y="688" on="1"/>
        <pt x="-29" y="627" on="1"/>
      </contour>
    </TTGlyph>
    <TTGlyph name="Idblgrave" xMin="-95" yMin="0" xMax="319" yMax="970">
      <contour>
        <pt x="83" y="740" on="1"/>
        <pt x="231" y="740" on="1"/>
        <pt x="231" y="0" on="1"/>
        <pt x="83" y="0" on="1"/>
      </contour>
      <contour>
        <pt x="16" y="801" on="1"/>
        <pt x="-95" y="970" on="1"/>
        <pt x="52" y="970" on="1"/>
        <pt x="120" y="813" on="1"/>
      </contour>
      <contour>
        <pt x="215" y="801" on="1"/>
        <pt x="102" y="970" on="1"/>
        <pt x="249" y="970" on="1"/>
        <pt x="319" y="813" on="1"/>
      </contour>
    </TTGlyph>
    <TTGlyph name="Idblgrave.sc" xMin="-82" yMin="0" xMax="302" yMax="768">
      <contour>
        <pt x="79" y="577" on="1"/>
        <pt x="220" y="577" on="1"/>
        <pt x="220" y="0" on="1"/>
        <pt x="79" y="0" on="1"/>
      </contour>
      <contour>
        <pt x="19" y="627" on="1"/>
        <pt x="-82" y="768" on="1"/>
        <pt x="59" y="768" on="1"/>
        <pt x="119" y="636" on="1"/>
      </contour>
      <contour>
        <pt x="201" y="627" on="1"/>
        <pt x="100" y="768" on="1"/>
        <pt x="242" y="768" on="1"/>
        <pt x="302" y="636" on="1"/>
      </contour>
    </TTGlyph>
    <TTGlyph name="Idieresis" xMin="-72" yMin="0" xMax="391" yMax="974">
      <contour>
        <pt x="83" y="740" on="1"/>
        <pt x="231" y="740" on="1"/>
        <pt x="231" y="0" on="1"/>
        <pt x="83" y="0" on="1"/>
      </contour>
      <contour>
        <pt x="11" y="811" on="1"/>
        <pt x="-33" y="811" on="0"/>
        <pt x="-72" y="850" on="0"/>
        <pt x="-72" y="893" on="1"/>
        <pt x="-72" y="935" on="0"/>
        <pt x="-33" y="974" on="0"/>
        <pt x="11" y="974" on="1"/>
        <pt x="55" y="974" on="0"/>
        <pt x="94" y="935" on="0"/>
        <pt x="94" y="893" on="1"/>
        <pt x="94" y="851" on="0"/>
        <pt x="55" y="811" on="0"/>
      </contour>
      <contour>
        <pt x="308" y="811" on="1"/>
        <pt x="264" y="811" on="0"/>
        <pt x="225" y="850" on="0"/>
        <pt x="225" y="893" on="1"/>
        <pt x="225" y="935" on="0"/>
        <pt x="264" y="974" on="0"/>
        <pt x="308" y="974" on="1"/>
        <pt x="353" y="974" on="0"/>
        <pt x="391" y="935" on="0"/>
        <pt x="391" y="893" on="1"/>
        <pt x="391" y="851" on="0"/>
        <pt x="353" y="811" on="0"/>
      </contour>
    </TTGlyph>
    <TTGlyph name="Idieresis.sc" xMin="-59" yMin="0" xMax="364" yMax="777">
      <contour>
        <pt x="79" y="577" on="1"/>
        <pt x="220" y="577" on="1"/>
        <pt x="220" y="0" on="1"/>
        <pt x="79" y="0" on="1"/>
      </contour>
      <contour>
        <pt x="19" y="629" on="1"/>
        <pt x="-23" y="629" on="0"/>
        <pt x="-59" y="664" on="0"/>
        <pt x="-59" y="703" on="1"/>
        <pt x="-59" y="741" on="0"/>
        <pt x="-23" y="777" on="0"/>
        <pt x="19" y="777" on="1"/>
        <pt x="61" y="777" on="0"/>
        <pt x="97" y="741" on="0"/>
        <pt x="97" y="703" on="1"/>
        <pt x="97" y="665" on="0"/>
        <pt x="61" y="629" on="0"/>
      </contour>
      <contour>
        <pt x="286" y="629" on="1"/>
        <pt x="245" y="629" on="0"/>
        <pt x="209" y="664" on="0"/>
        <pt x="209" y="703" on="1"/>
        <pt x="209" y="741" on="0"/>
        <pt x="245" y="777" on="0"/>
        <pt x="286" y="777" on="1"/>
        <pt x="328" y="777" on="0"/>
        <pt x="364" y="741" on="0"/>
        <pt x="364" y="703" on="1"/>
        <pt x="364" y="665" on="0"/>
        <pt x="328" y="629" on="0"/>
      </contour>
    </TTGlyph>
    <TTGlyph name="Idotaccent" xMin="74" yMin="0" xMax="241" yMax="971">
      <contour>
        <pt x="83" y="740" on="1"/>
        <pt x="231" y="740" on="1"/>
        <pt x="231" y="0" on="1"/>
        <pt x="83" y="0" on="1"/>
      </contour>
      <contour>
        <pt x="158" y="809" on="1"/>
        <pt x="113" y="809" on="0"/>
        <pt x="74" y="847" on="0"/>
        <pt x="74" y="890" on="1"/>
        <pt x="74" y="932" on="0"/>
        <pt x="113" y="971" on="0"/>
        <pt x="158" y="971" on="1"/>
        <pt x="202" y="971" on="0"/>
        <pt x="241" y="932" on="0"/>
        <pt x="241" y="890" on="1"/>
        <pt x="241" y="848" on="0"/>
        <pt x="202" y="809" on="0"/>
      </contour>
    </TTGlyph>
    <TTGlyph name="Idotaccent.sc" xMin="72" yMin="0" xMax="229" yMax="776">
      <contour>
        <pt x="79" y="577" on="1"/>
        <pt x="220" y="577" on="1"/>
        <pt x="220" y="0" on="1"/>
        <pt x="79" y="0" on="1"/>
      </contour>
      <contour>
        <pt x="151" y="627" on="1"/>
        <pt x="109" y="627" on="0"/>
        <pt x="72" y="662" on="0"/>
        <pt x="72" y="702" on="1"/>
        <pt x="72" y="740" on="0"/>
        <pt x="109" y="776" on="0"/>
        <pt x="151" y="776" on="1"/>
        <pt x="193" y="776" on="0"/>
        <pt x="229" y="739" on="0"/>
        <pt x="229" y="702" on="1"/>
        <pt x="229" y="664" on="0"/>
        <pt x="193" y="627" on="0"/>
      </contour>
    </TTGlyph>
    <TTGlyph name="Idotbelow" xMin="83" yMin="-198" xMax="231" yMax="740">
      <contour>
        <pt x="83" y="740" on="1"/>
        <pt x="231" y="740" on="1"/>
        <pt x="231" y="0" on="1"/>
        <pt x="83" y="0" on="1"/>
      </contour>
      <contour>
        <pt x="157" y="-198" on="1"/>
        <pt x="122" y="-198" on="0"/>
        <pt x="90" y="-168" on="0"/>
        <pt x="90" y="-133" on="1"/>
        <pt x="90" y="-98" on="0"/>
        <pt x="122" y="-67" on="0"/>
        <pt x="157" y="-67" on="1"/>
        <pt x="194" y="-67" on="0"/>
        <pt x="226" y="-99" on="0"/>
        <pt x="226" y="-133" on="1"/>
        <pt x="226" y="-167" on="0"/>
        <pt x="194" y="-198" on="0"/>
      </contour>
    </TTGlyph>
    <TTGlyph name="Idotbelow.sc" xMin="79" yMin="-161" xMax="220" yMax="577">
      <contour>
        <pt x="79" y="577" on="1"/>
        <pt x="220" y="577" on="1"/>
        <pt x="220" y="0" on="1"/>
        <pt x="79" y="0" on="1"/>
      </contour>
      <contour>
        <pt x="150" y="-161" on="1"/>
        <pt x="88" y="-161" on="0"/>
        <pt x="88" y="-104" on="1"/>
        <pt x="88" y="-45" on="0"/>
        <pt x="150" y="-45" on="1"/>
        <pt x="184" y="-45" on="0"/>
        <pt x="213" y="-74" on="0"/>
        <pt x="213" y="-104" on="1"/>
        <pt x="213" y="-133" on="0"/>
        <pt x="184" y="-161" on="0"/>
      </contour>
    </TTGlyph>
    <TTGlyph name="Igrave" xMin="6" yMin="0" xMax="231" yMax="974">
      <contour>
        <pt x="83" y="740" on="1"/>
        <pt x="231" y="740" on="1"/>
        <pt x="231" y="0" on="1"/>
        <pt x="83" y="0" on="1"/>
      </contour>
      <contour>
        <pt x="118" y="806" on="1"/>
        <pt x="6" y="974" on="1"/>
        <pt x="156" y="974" on="1"/>
        <pt x="225" y="818" on="1"/>
      </contour>
    </TTGlyph>
    <TTGlyph name="Igrave.sc" xMin="12" yMin="0" xMax="220" yMax="770">
      <contour>
        <pt x="79" y="577" on="1"/>
        <pt x="220" y="577" on="1"/>
        <pt x="220" y="0" on="1"/>
        <pt x="79" y="0" on="1"/>
      </contour>
      <contour>
        <pt x="113" y="630" on="1"/>
        <pt x="12" y="770" on="1"/>
        <pt x="155" y="770" on="1"/>
        <pt x="215" y="639" on="1"/>
      </contour>
    </TTGlyph>
    <TTGlyph name="Iinvertedbreve" xMin="-57" yMin="0" xMax="376" yMax="986">
      <contour>
        <pt x="83" y="740" on="1"/>
        <pt x="231" y="740" on="1"/>
        <pt x="231" y="0" on="1"/>
        <pt x="83" y="0" on="1"/>
      </contour>
      <contour>
        <pt x="277" y="819" on="1"/>
        <pt x="277" y="863" on="0"/>
        <pt x="223" y="912" on="0"/>
        <pt x="159" y="912" on="1"/>
        <pt x="96" y="912" on="0"/>
        <pt x="42" y="863" on="0"/>
        <pt x="42" y="819" on="1"/>
        <pt x="-57" y="819" on="1"/>
        <pt x="-57" y="855" on="0"/>
        <pt x="-33" y="916" on="0"/>
        <pt x="18" y="961" on="0"/>
        <pt x="100" y="986" on="0"/>
        <pt x="159" y="986" on="1"/>
        <pt x="218" y="986" on="0"/>
        <pt x="300" y="961" on="0"/>
        <pt x="352" y="917" on="0"/>
        <pt x="376" y="856" on="0"/>
        <pt x="376" y="819" on="1"/>
      </contour>
    </TTGlyph>
    <TTGlyph name="Iinvertedbreve.sc" xMin="-46" yMin="0" xMax="349" yMax="779">
      <contour>
        <pt x="79" y="577" on="1"/>
        <pt x="220" y="577" on="1"/>
        <pt x="220" y="0" on="1"/>
        <pt x="79" y="0" on="1"/>
      </contour>
      <contour>
        <pt x="256" y="640" on="1"/>
        <pt x="256" y="673" on="0"/>
        <pt x="209" y="711" on="0"/>
        <pt x="152" y="711" on="1"/>
        <pt x="95" y="711" on="0"/>
        <pt x="48" y="673" on="0"/>
        <pt x="48" y="640" on="1"/>
        <pt x="-46" y="640" on="1"/>
        <pt x="-46" y="669" on="0"/>
        <pt x="-25" y="720" on="0"/>
        <pt x="22" y="757" on="0"/>
        <pt x="97" y="779" on="0"/>
        <pt x="152" y="779" on="1"/>
        <pt x="206" y="779" on="0"/>
        <pt x="282" y="758" on="0"/>
        <pt x="328" y="720" on="0"/>
        <pt x="349" y="670" on="0"/>
        <pt x="349" y="640" on="1"/>
      </contour>
    </TTGlyph>
    <TTGlyph name="Imacron" xMin="-35" yMin="0" xMax="358" yMax="941">
      <contour>
        <pt x="83" y="740" on="1"/>
        <pt x="231" y="740" on="1"/>
        <pt x="231" y="0" on="1"/>
        <pt x="83" y="0" on="1"/>
      </contour>
      <contour>
        <pt x="-35" y="941" on="1"/>
        <pt x="358" y="941" on="1"/>
        <pt x="358" y="842" on="1"/>
        <pt x="-35" y="842" on="1"/>
      </contour>
    </TTGlyph>
    <TTGlyph name="Imacron.sc" xMin="-25" yMin="0" xMax="334" yMax="749">
      <contour>
        <pt x="79" y="577" on="1"/>
        <pt x="220" y="577" on="1"/>
        <pt x="220" y="0" on="1"/>
        <pt x="79" y="0" on="1"/>
      </contour>
      <contour>
        <pt x="-25" y="749" on="1"/>
        <pt x="334" y="749" on="1"/>
        <pt x="334" y="657" on="1"/>
        <pt x="-25" y="657" on="1"/>
      </contour>
    </TTGlyph>
    <TTGlyph name="Iogonek" xMin="10" yMin="-220" xMax="231" yMax="740">
      <contour>
        <pt x="83" y="740" on="1"/>
        <pt x="231" y="740" on="1"/>
        <pt x="231" y="-13" on="1"/>
        <pt x="163" y="-44" on="0"/>
        <pt x="107" y="-90" on="0"/>
        <pt x="107" y="-114" on="1"/>
        <pt x="107" y="-142" on="0"/>
        <pt x="144" y="-142" on="1"/>
        <pt x="158" y="-142" on="0"/>
        <pt x="208" y="-134" on="0"/>
        <pt x="231" y="-128" on="1"/>
        <pt x="231" y="-208" on="1"/>
        <pt x="196" y="-220" on="0"/>
        <pt x="146" y="-220" on="1"/>
        <pt x="80" y="-220" on="0"/>
        <pt x="10" y="-176" on="0"/>
        <pt x="10" y="-132" on="1"/>
        <pt x="10" y="-59" on="0"/>
        <pt x="112" y="0" on="1"/>
        <pt x="83" y="0" on="1"/>
      </contour>
    </TTGlyph>
    <TTGlyph name="Iogonek.sc" xMin="18" yMin="-172" xMax="220" yMax="577">
      <contour>
        <pt x="79" y="577" on="1"/>
        <pt x="220" y="577" on="1"/>
        <pt x="220" y="-8" on="1"/>
        <pt x="186" y="-20" on="0"/>
        <pt x="143" y="-40" on="0"/>
        <pt x="118" y="-56" on="0"/>
        <pt x="109" y="-71" on="0"/>
        <pt x="109" y="-79" on="1"/>
        <pt x="109" y="-90" on="0"/>
        <pt x="125" y="-98" on="0"/>
        <pt x="140" y="-98" on="1"/>
        <pt x="147" y="-98" on="0"/>
        <pt x="168" y="-97" on="0"/>
        <pt x="190" y="-94" on="0"/>
        <pt x="212" y="-91" on="0"/>
        <pt x="220" y="-89" on="1"/>
        <pt x="220" y="-162" on="1"/>
        <pt x="203" y="-167" on="0"/>
        <pt x="162" y="-172" on="0"/>
        <pt x="142" y="-172" on="1"/>
        <pt x="82" y="-172" on="0"/>
        <pt x="18" y="-134" on="0"/>
        <pt x="18" y="-100" on="1"/>
        <pt x="18" y="-42" on="0"/>
        <pt x="102" y="0" on="1"/>
        <pt x="79" y="0" on="1"/>
      </contour>
    </TTGlyph>
    <TTGlyph name="Itilde" xMin="-76" yMin="0" xMax="404" yMax="969">
      <contour>
        <pt x="83" y="740" on="1"/>
        <pt x="231" y="740" on="1"/>
        <pt x="231" y="0" on="1"/>
        <pt x="83" y="0" on="1"/>
      </contour>
      <contour>
        <pt x="-76" y="864" on="1"/>
        <pt x="-42" y="917" on="0"/>
        <pt x="41" y="969" on="0"/>
        <pt x="79" y="969" on="1"/>
        <pt x="106" y="969" on="0"/>
        <pt x="156" y="957" on="0"/>
        <pt x="205" y="942" on="0"/>
        <pt x="254" y="930" on="0"/>
        <pt x="280" y="930" on="1"/>
        <pt x="305" y="930" on="0"/>
        <pt x="352" y="946" on="0"/>
        <pt x="381" y="967" on="1"/>
        <pt x="404" y="935" on="1"/>
        <pt x="371" y="883" on="0"/>
        <pt x="286" y="830" on="0"/>
        <pt x="247" y="830" on="1"/>
        <pt x="221" y="830" on="0"/>
        <pt x="171" y="842" on="0"/>
        <pt x="122" y="856" on="0"/>
        <pt x="73" y="868" on="0"/>
        <pt x="48" y="868" on="1"/>
        <pt x="23" y="868" on="0"/>
        <pt x="-24" y="853" on="0"/>
        <pt x="-52" y="832" on="1"/>
      </contour>
    </TTGlyph>
    <TTGlyph name="Itilde.sc" xMin="-62" yMin="0" xMax="373" yMax="769">
      <contour>
        <pt x="79" y="577" on="1"/>
        <pt x="220" y="577" on="1"/>
        <pt x="220" y="0" on="1"/>
        <pt x="79" y="0" on="1"/>
      </contour>
      <contour>
        <pt x="-62" y="674" on="1"/>
        <pt x="-31" y="722" on="0"/>
        <pt x="44" y="769" on="0"/>
        <pt x="79" y="769" on="1"/>
        <pt x="103" y="769" on="0"/>
        <pt x="148" y="760" on="0"/>
        <pt x="193" y="749" on="0"/>
        <pt x="238" y="740" on="0"/>
        <pt x="262" y="740" on="1"/>
        <pt x="284" y="740" on="0"/>
        <pt x="327" y="751" on="0"/>
        <pt x="353" y="768" on="1"/>
        <pt x="373" y="741" on="1"/>
        <pt x="342" y="693" on="0"/>
        <pt x="265" y="646" on="0"/>
        <pt x="230" y="646" on="1"/>
        <pt x="207" y="646" on="0"/>
        <pt x="161" y="655" on="0"/>
        <pt x="115" y="667" on="0"/>
        <pt x="70" y="676" on="0"/>
        <pt x="47" y="676" on="1"/>
        <pt x="25" y="676" on="0"/>
        <pt x="-16" y="664" on="0"/>
        <pt x="-41" y="647" on="1"/>
      </contour>
    </TTGlyph>
    <TTGlyph name="J" xMin="8" yMin="-201" xMax="233" yMax="740">
      <contour>
        <pt x="8" y="-158" on="1"/>
        <pt x="30" y="-110" on="0"/>
        <pt x="59" y="-27" on="0"/>
        <pt x="77" y="55" on="0"/>
        <pt x="85" y="141" on="0"/>
        <pt x="85" y="193" on="1"/>
        <pt x="85" y="740" on="1"/>
        <pt x="233" y="740" on="1"/>
        <pt x="233" y="182" on="1"/>
        <pt x="233" y="130" on="0"/>
        <pt x="220" y="41" on="0"/>
        <pt x="190" y="-48" on="0"/>
        <pt x="141" y="-143" on="0"/>
        <pt x="105" y="-201" on="1"/>
      </contour>
    </TTGlyph>
    <TTGlyph name="J.sc" xMin="14" yMin="-163" xMax="222" yMax="577">
      <contour>
        <pt x="14" y="-123" on="1"/>
        <pt x="33" y="-85" on="0"/>
        <pt x="59" y="-19" on="0"/>
        <pt x="74" y="45" on="0"/>
        <pt x="81" y="113" on="0"/>
        <pt x="81" y="153" on="1"/>
        <pt x="81" y="577" on="1"/>
        <pt x="222" y="577" on="1"/>
        <pt x="222" y="143" on="1"/>
        <pt x="222" y="102" on="0"/>
        <pt x="210" y="31" on="0"/>
        <pt x="183" y="-41" on="0"/>
        <pt x="139" y="-117" on="0"/>
        <pt x="106" y="-163" on="1"/>
      </contour>
    </TTGlyph>
    <TTGlyph name="Jcircumflex" xMin="-37" yMin="-201" xMax="360" yMax="986">
      <contour>
        <pt x="8" y="-158" on="1"/>
        <pt x="30" y="-110" on="0"/>
        <pt x="59" y="-27" on="0"/>
        <pt x="77" y="55" on="0"/>
        <pt x="85" y="141" on="0"/>
        <pt x="85" y="193" on="1"/>
        <pt x="85" y="740" on="1"/>
        <pt x="233" y="740" on="1"/>
        <pt x="233" y="182" on="1"/>
        <pt x="233" y="130" on="0"/>
        <pt x="220" y="41" on="0"/>
        <pt x="190" y="-48" on="0"/>
        <pt x="141" y="-143" on="0"/>
        <pt x="105" y="-201" on="1"/>
      </contour>
      <contour>
        <pt x="-37" y="908" on="1"/>
        <pt x="160" y="986" on="1"/>
        <pt x="360" y="908" on="1"/>
        <pt x="360" y="806" on="1"/>
        <pt x="161" y="884" on="1"/>
        <pt x="-37" y="806" on="1"/>
      </contour>
    </TTGlyph>
    <TTGlyph name="Jcircumflex.sc" xMin="-28" yMin="-163" xMax="334" yMax="782">
      <contour>
        <pt x="13" y="-123" on="1"/>
        <pt x="32" y="-85" on="0"/>
        <pt x="58" y="-19" on="0"/>
        <pt x="73" y="45" on="0"/>
        <pt x="80" y="113" on="0"/>
        <pt x="80" y="153" on="1"/>
        <pt x="80" y="577" on="1"/>
        <pt x="222" y="577" on="1"/>
        <pt x="222" y="143" on="1"/>
        <pt x="222" y="102" on="0"/>
        <pt x="210" y="31" on="0"/>
        <pt x="183" y="-41" on="0"/>
        <pt x="138" y="-117" on="0"/>
        <pt x="105" y="-163" on="1"/>
      </contour>
      <contour>
        <pt x="-28" y="720" on="1"/>
        <pt x="151" y="782" on="1"/>
        <pt x="334" y="720" on="1"/>
        <pt x="334" y="627" on="1"/>
        <pt x="153" y="688" on="1"/>
        <pt x="-28" y="627" on="1"/>
      </contour>
    </TTGlyph>
    <TTGlyph name="K" xMin="83" yMin="0" xMax="746" yMax="740">
      <contour>
        <pt x="83" y="740" on="1"/>
        <pt x="231" y="740" on="1"/>
        <pt x="231" y="431" on="1"/>
        <pt x="363" y="431" on="1"/>
        <pt x="563" y="740" on="1"/>
        <pt x="729" y="740" on="1"/>
        <pt x="507" y="415" on="1"/>
        <pt x="465" y="389" on="1"/>
        <pt x="465" y="381" on="1"/>
        <pt x="510" y="355" on="1"/>
        <pt x="746" y="0" on="1"/>
        <pt x="580" y="0" on="1"/>
        <pt x="377" y="317" on="1"/>
        <pt x="231" y="317" on="1"/>
        <pt x="231" y="0" on="1"/>
        <pt x="83" y="0" on="1"/>
      </contour>
    </TTGlyph>
    <TTGlyph name="K.sc" xMin="79" yMin="0" xMax="679" yMax="577">
      <contour>
        <pt x="79" y="577" on="1"/>
        <pt x="220" y="577" on="1"/>
        <pt x="220" y="344" on="1"/>
        <pt x="333" y="344" on="1"/>
        <pt x="506" y="577" on="1"/>
        <pt x="664" y="577" on="1"/>
        <pt x="470" y="326" on="1"/>
        <pt x="430" y="306" on="1"/>
        <pt x="430" y="299" on="1"/>
        <pt x="472" y="278" on="1"/>
        <pt x="679" y="0" on="1"/>
        <pt x="520" y="0" on="1"/>
        <pt x="347" y="237" on="1"/>
        <pt x="220" y="237" on="1"/>
        <pt x="220" y="0" on="1"/>
        <pt x="79" y="0" on="1"/>
      </contour>
    </TTGlyph>
    <TTGlyph name="Kcommaaccent" xMin="83" yMin="-220" xMax="746" yMax="740">
      <contour>
        <pt x="290" y="-70" on="1"/>
        <pt x="440" y="-70" on="1"/>
        <pt x="358" y="-220" on="1"/>
        <pt x="246" y="-220" on="1"/>
      </contour>
      <contour>
        <pt x="83" y="740" on="1"/>
        <pt x="231" y="740" on="1"/>
        <pt x="231" y="431" on="1"/>
        <pt x="363" y="431" on="1"/>
        <pt x="563" y="740" on="1"/>
        <pt x="729" y="740" on="1"/>
        <pt x="507" y="415" on="1"/>
        <pt x="465" y="389" on="1"/>
        <pt x="465" y="381" on="1"/>
        <pt x="510" y="355" on="1"/>
        <pt x="746" y="0" on="1"/>
        <pt x="580" y="0" on="1"/>
        <pt x="377" y="317" on="1"/>
        <pt x="231" y="317" on="1"/>
        <pt x="231" y="0" on="1"/>
        <pt x="83" y="0" on="1"/>
      </contour>
    </TTGlyph>
    <TTGlyph name="Kcommaaccent.sc" xMin="79" yMin="-172" xMax="679" yMax="577">
      <contour>
        <pt x="79" y="577" on="1"/>
        <pt x="220" y="577" on="1"/>
        <pt x="220" y="344" on="1"/>
        <pt x="333" y="344" on="1"/>
        <pt x="506" y="577" on="1"/>
        <pt x="664" y="577" on="1"/>
        <pt x="470" y="326" on="1"/>
        <pt x="430" y="306" on="1"/>
        <pt x="430" y="299" on="1"/>
        <pt x="472" y="278" on="1"/>
        <pt x="679" y="0" on="1"/>
        <pt x="520" y="0" on="1"/>
        <pt x="347" y="237" on="1"/>
        <pt x="220" y="237" on="1"/>
        <pt x="220" y="0" on="1"/>
        <pt x="79" y="0" on="1"/>
      </contour>
      <contour>
        <pt x="287" y="-55" on="1"/>
        <pt x="431" y="-55" on="1"/>
        <pt x="356" y="-172" on="1"/>
        <pt x="250" y="-172" on="1"/>
      </contour>
    </TTGlyph>
    <TTGlyph name="L" xMin="83" yMin="0" xMax="584" yMax="740">
      <contour>
        <pt x="83" y="740" on="1"/>
        <pt x="231" y="740" on="1"/>
        <pt x="231" y="114" on="1"/>
        <pt x="584" y="114" on="1"/>
        <pt x="584" y="0" on="1"/>
        <pt x="83" y="0" on="1"/>
      </contour>
    </TTGlyph>
    <TTGlyph name="L.sc" xMin="79" yMin="0" xMax="533" yMax="577">
      <contour>
        <pt x="79" y="577" on="1"/>
        <pt x="220" y="577" on="1"/>
        <pt x="220" y="107" on="1"/>
        <pt x="533" y="107" on="1"/>
        <pt x="533" y="0" on="1"/>
        <pt x="79" y="0" on="1"/>
      </contour>
    </TTGlyph>
    <TTGlyph name="Lacute" xMin="83" yMin="0" xMax="584" yMax="974">
      <contour>
        <pt x="103" y="814" on="1"/>
        <pt x="173" y="974" on="1"/>
        <pt x="322" y="974" on="1"/>
        <pt x="211" y="806" on="1"/>
      </contour>
      <contour>
        <pt x="83" y="740" on="1"/>
        <pt x="231" y="740" on="1"/>
        <pt x="231" y="114" on="1"/>
        <pt x="584" y="114" on="1"/>
        <pt x="584" y="0" on="1"/>
        <pt x="83" y="0" on="1"/>
      </contour>
    </TTGlyph>
    <TTGlyph name="Lacute.sc" xMin="79" yMin="0" xMax="534" yMax="770">
      <contour>
        <pt x="79" y="577" on="1"/>
        <pt x="220" y="577" on="1"/>
        <pt x="220" y="107" on="1"/>
        <pt x="534" y="107" on="1"/>
        <pt x="534" y="0" on="1"/>
        <pt x="79" y="0" on="1"/>
      </contour>
      <contour>
        <pt x="100" y="637" on="1"/>
        <pt x="160" y="770" on="1"/>
        <pt x="302" y="770" on="1"/>
        <pt x="201" y="630" on="1"/>
      </contour>
    </TTGlyph>
    <TTGlyph name="Lcaron" xMin="83" yMin="0" xMax="584" yMax="778">
      <contour>
        <pt x="421" y="778" on="1"/>
        <pt x="536" y="778" on="1"/>
        <pt x="498" y="550" on="1"/>
        <pt x="421" y="550" on="1"/>
      </contour>
      <contour>
        <pt x="83" y="740" on="1"/>
        <pt x="231" y="740" on="1"/>
        <pt x="231" y="114" on="1"/>
        <pt x="584" y="114" on="1"/>
        <pt x="584" y="0" on="1"/>
        <pt x="83" y="0" on="1"/>
      </contour>
    </TTGlyph>
    <TTGlyph name="Lcaron.sc" xMin="79" yMin="0" xMax="533" yMax="616">
      <contour>
        <pt x="79" y="577" on="1"/>
        <pt x="220" y="577" on="1"/>
        <pt x="220" y="107" on="1"/>
        <pt x="533" y="107" on="1"/>
        <pt x="533" y="0" on="1"/>
        <pt x="79" y="0" on="1"/>
      </contour>
      <contour>
        <pt x="380" y="616" on="1"/>
        <pt x="490" y="616" on="1"/>
        <pt x="454" y="438" on="1"/>
        <pt x="380" y="438" on="1"/>
      </contour>
    </TTGlyph>
    <TTGlyph name="Lcommaaccent" xMin="83" yMin="-220" xMax="584" yMax="740">
      <contour>
        <pt x="245" y="-70" on="1"/>
        <pt x="395" y="-70" on="1"/>
        <pt x="313" y="-220" on="1"/>
        <pt x="201" y="-220" on="1"/>
      </contour>
      <contour>
        <pt x="83" y="740" on="1"/>
        <pt x="231" y="740" on="1"/>
        <pt x="231" y="114" on="1"/>
        <pt x="584" y="114" on="1"/>
        <pt x="584" y="0" on="1"/>
        <pt x="83" y="0" on="1"/>
      </contour>
    </TTGlyph>
    <TTGlyph name="Lcommaaccent.sc" xMin="79" yMin="-172" xMax="533" yMax="577">
      <contour>
        <pt x="79" y="577" on="1"/>
        <pt x="220" y="577" on="1"/>
        <pt x="220" y="107" on="1"/>
        <pt x="533" y="107" on="1"/>
        <pt x="533" y="0" on="1"/>
        <pt x="79" y="0" on="1"/>
      </contour>
      <contour>
        <pt x="220" y="-55" on="1"/>
        <pt x="362" y="-55" on="1"/>
        <pt x="287" y="-172" on="1"/>
        <pt x="181" y="-172" on="1"/>
      </contour>
    </TTGlyph>
    <TTGlyph name="Ldot" xMin="83" yMin="0" xMax="584" yMax="740">
      <contour>
        <pt x="83" y="740" on="1"/>
        <pt x="231" y="740" on="1"/>
        <pt x="231" y="114" on="1"/>
        <pt x="584" y="114" on="1"/>
        <pt x="584" y="0" on="1"/>
        <pt x="83" y="0" on="1"/>
      </contour>
      <contour>
        <pt x="495" y="308" on="1"/>
        <pt x="450" y="308" on="0"/>
        <pt x="411" y="346" on="0"/>
        <pt x="411" y="389" on="1"/>
        <pt x="411" y="432" on="0"/>
        <pt x="450" y="470" on="0"/>
        <pt x="495" y="470" on="1"/>
        <pt x="539" y="470" on="0"/>
        <pt x="578" y="431" on="0"/>
        <pt x="578" y="389" on="1"/>
        <pt x="578" y="347" on="0"/>
        <pt x="539" y="308" on="0"/>
      </contour>
    </TTGlyph>
    <TTGlyph name="Ldot.sc" xMin="79" yMin="0" xMax="533" yMax="577">
      <contour>
        <pt x="79" y="577" on="1"/>
        <pt x="220" y="577" on="1"/>
        <pt x="220" y="107" on="1"/>
        <pt x="533" y="107" on="1"/>
        <pt x="533" y="0" on="1"/>
        <pt x="79" y="0" on="1"/>
      </contour>
      <contour>
        <pt x="454" y="235" on="1"/>
        <pt x="412" y="235" on="0"/>
        <pt x="375" y="270" on="0"/>
        <pt x="375" y="309" on="1"/>
        <pt x="375" y="348" on="0"/>
        <pt x="412" y="383" on="0"/>
        <pt x="454" y="383" on="1"/>
        <pt x="496" y="383" on="0"/>
        <pt x="532" y="347" on="0"/>
        <pt x="532" y="309" on="1"/>
        <pt x="532" y="271" on="0"/>
        <pt x="496" y="235" on="0"/>
      </contour>
    </TTGlyph>
    <TTGlyph name="Lslash" xMin="14" yMin="0" xMax="604" yMax="740">
      <contour>
        <pt x="14" y="335" on="1"/>
        <pt x="103" y="380" on="1"/>
        <pt x="103" y="740" on="1"/>
        <pt x="251" y="740" on="1"/>
        <pt x="251" y="455" on="1"/>
        <pt x="411" y="537" on="1"/>
        <pt x="411" y="427" on="1"/>
        <pt x="251" y="345" on="1"/>
        <pt x="251" y="114" on="1"/>
        <pt x="604" y="114" on="1"/>
        <pt x="604" y="0" on="1"/>
        <pt x="103" y="0" on="1"/>
        <pt x="103" y="270" on="1"/>
        <pt x="14" y="225" on="1"/>
      </contour>
    </TTGlyph>
    <TTGlyph name="Lslash.sc" xMin="19" yMin="0" xMax="550" yMax="577">
      <contour>
        <pt x="19" y="278" on="1"/>
        <pt x="96" y="313" on="1"/>
        <pt x="96" y="577" on="1"/>
        <pt x="237" y="577" on="1"/>
        <pt x="237" y="364" on="1"/>
        <pt x="377" y="430" on="1"/>
        <pt x="377" y="329" on="1"/>
        <pt x="237" y="263" on="1"/>
        <pt x="237" y="107" on="1"/>
        <pt x="550" y="107" on="1"/>
        <pt x="550" y="0" on="1"/>
        <pt x="96" y="0" on="1"/>
        <pt x="96" y="212" on="1"/>
        <pt x="19" y="176" on="1"/>
      </contour>
    </TTGlyph>
    <TTGlyph name="M" xMin="83" yMin="0" xMax="934" yMax="740">
      <contour>
        <pt x="83" y="740" on="1"/>
        <pt x="283" y="740" on="1"/>
        <pt x="444" y="360" on="1"/>
        <pt x="505" y="191" on="1"/>
        <pt x="512" y="191" on="1"/>
        <pt x="573" y="360" on="1"/>
        <pt x="734" y="740" on="1"/>
        <pt x="934" y="740" on="1"/>
        <pt x="934" y="0" on="1"/>
        <pt x="803" y="0" on="1"/>
        <pt x="803" y="577" on="1"/>
        <pt x="795" y="577" on="1"/>
        <pt x="708" y="342" on="1"/>
        <pt x="570" y="28" on="1"/>
        <pt x="448" y="28" on="1"/>
        <pt x="309" y="342" on="1"/>
        <pt x="221" y="577" on="1"/>
        <pt x="214" y="577" on="1"/>
        <pt x="214" y="0" on="1"/>
        <pt x="83" y="0" on="1"/>
      </contour>
    </TTGlyph>
    <TTGlyph name="M.sc" xMin="79" yMin="0" xMax="846" yMax="577">
      <contour>
        <pt x="79" y="577" on="1"/>
        <pt x="261" y="577" on="1"/>
        <pt x="401" y="307" on="1"/>
        <pt x="458" y="177" on="1"/>
        <pt x="466" y="177" on="1"/>
        <pt x="524" y="307" on="1"/>
        <pt x="664" y="577" on="1"/>
        <pt x="846" y="577" on="1"/>
        <pt x="846" y="0" on="1"/>
        <pt x="721" y="0" on="1"/>
        <pt x="721" y="429" on="1"/>
        <pt x="713" y="429" on="1"/>
        <pt x="630" y="241" on="1"/>
        <pt x="518" y="21" on="1"/>
        <pt x="407" y="21" on="1"/>
        <pt x="295" y="241" on="1"/>
        <pt x="212" y="429" on="1"/>
        <pt x="204" y="429" on="1"/>
        <pt x="204" y="0" on="1"/>
        <pt x="79" y="0" on="1"/>
      </contour>
    </TTGlyph>
    <TTGlyph name="N" xMin="83" yMin="0" xMax="763" yMax="740">
      <contour>
        <pt x="83" y="740" on="1"/>
        <pt x="201" y="740" on="1"/>
        <pt x="560" y="297" on="1"/>
        <pt x="625" y="210" on="1"/>
        <pt x="633" y="210" on="1"/>
        <pt x="633" y="740" on="1"/>
        <pt x="763" y="740" on="1"/>
        <pt x="763" y="0" on="1"/>
        <pt x="644" y="0" on="1"/>
        <pt x="290" y="437" on="1"/>
        <pt x="221" y="529" on="1"/>
        <pt x="213" y="529" on="1"/>
        <pt x="213" y="0" on="1"/>
        <pt x="83" y="0" on="1"/>
      </contour>
    </TTGlyph>
    <TTGlyph name="N.sc" xMin="79" yMin="0" xMax="675" yMax="577">
      <contour>
        <pt x="79" y="577" on="1"/>
        <pt x="187" y="577" on="1"/>
        <pt x="483" y="258" on="1"/>
        <pt x="542" y="190" on="1"/>
        <pt x="549" y="190" on="1"/>
        <pt x="549" y="577" on="1"/>
        <pt x="675" y="577" on="1"/>
        <pt x="675" y="0" on="1"/>
        <pt x="566" y="0" on="1"/>
        <pt x="276" y="311" on="1"/>
        <pt x="212" y="386" on="1"/>
        <pt x="204" y="386" on="1"/>
        <pt x="204" y="0" on="1"/>
        <pt x="79" y="0" on="1"/>
      </contour>
    </TTGlyph>
    <TTGlyph name="Nacute" xMin="83" yMin="0" xMax="763" yMax="974">
      <contour>
        <pt x="345" y="814" on="1"/>
        <pt x="415" y="974" on="1"/>
        <pt x="564" y="974" on="1"/>
        <pt x="453" y="806" on="1"/>
      </contour>
      <contour>
        <pt x="83" y="740" on="1"/>
        <pt x="201" y="740" on="1"/>
        <pt x="560" y="297" on="1"/>
        <pt x="625" y="210" on="1"/>
        <pt x="633" y="210" on="1"/>
        <pt x="633" y="740" on="1"/>
        <pt x="763" y="740" on="1"/>
        <pt x="763" y="0" on="1"/>
        <pt x="644" y="0" on="1"/>
        <pt x="290" y="437" on="1"/>
        <pt x="221" y="529" on="1"/>
        <pt x="213" y="529" on="1"/>
        <pt x="213" y="0" on="1"/>
        <pt x="83" y="0" on="1"/>
      </contour>
    </TTGlyph>
    <TTGlyph name="Nacute.sc" xMin="79" yMin="0" xMax="675" yMax="770">
      <contour>
        <pt x="79" y="577" on="1"/>
        <pt x="187" y="577" on="1"/>
        <pt x="483" y="258" on="1"/>
        <pt x="542" y="190" on="1"/>
        <pt x="549" y="190" on="1"/>
        <pt x="549" y="577" on="1"/>
        <pt x="675" y="577" on="1"/>
        <pt x="675" y="0" on="1"/>
        <pt x="566" y="0" on="1"/>
        <pt x="276" y="311" on="1"/>
        <pt x="212" y="386" on="1"/>
        <pt x="204" y="386" on="1"/>
        <pt x="204" y="0" on="1"/>
        <pt x="79" y="0" on="1"/>
      </contour>
      <contour>
        <pt x="305" y="637" on="1"/>
        <pt x="365" y="770" on="1"/>
        <pt x="508" y="770" on="1"/>
        <pt x="407" y="630" on="1"/>
      </contour>
    </TTGlyph>
    <TTGlyph name="Ncaron" xMin="83" yMin="0" xMax="763" yMax="986">
      <contour>
        <pt x="225" y="986" on="1"/>
        <pt x="424" y="908" on="1"/>
        <pt x="622" y="986" on="1"/>
        <pt x="622" y="884" on="1"/>
        <pt x="422" y="806" on="1"/>
        <pt x="225" y="884" on="1"/>
      </contour>
      <contour>
        <pt x="83" y="740" on="1"/>
        <pt x="201" y="740" on="1"/>
        <pt x="560" y="297" on="1"/>
        <pt x="625" y="210" on="1"/>
        <pt x="633" y="210" on="1"/>
        <pt x="633" y="740" on="1"/>
        <pt x="763" y="740" on="1"/>
        <pt x="763" y="0" on="1"/>
        <pt x="644" y="0" on="1"/>
        <pt x="290" y="437" on="1"/>
        <pt x="221" y="529" on="1"/>
        <pt x="213" y="529" on="1"/>
        <pt x="213" y="0" on="1"/>
        <pt x="83" y="0" on="1"/>
      </contour>
    </TTGlyph>
    <TTGlyph name="Ncaron.sc" xMin="79" yMin="0" xMax="675" yMax="782">
      <contour>
        <pt x="79" y="577" on="1"/>
        <pt x="187" y="577" on="1"/>
        <pt x="483" y="258" on="1"/>
        <pt x="542" y="190" on="1"/>
        <pt x="549" y="190" on="1"/>
        <pt x="549" y="577" on="1"/>
        <pt x="675" y="577" on="1"/>
        <pt x="675" y="0" on="1"/>
        <pt x="566" y="0" on="1"/>
        <pt x="276" y="311" on="1"/>
        <pt x="212" y="386" on="1"/>
        <pt x="204" y="386" on="1"/>
        <pt x="204" y="0" on="1"/>
        <pt x="79" y="0" on="1"/>
      </contour>
      <contour>
        <pt x="197" y="689" on="1"/>
        <pt x="197" y="782" on="1"/>
        <pt x="378" y="720" on="1"/>
        <pt x="560" y="782" on="1"/>
        <pt x="560" y="689" on="1"/>
        <pt x="376" y="627" on="1"/>
      </contour>
    </TTGlyph>
    <TTGlyph name="Ncommaaccent" xMin="83" yMin="-220" xMax="763" yMax="740">
      <contour>
        <pt x="358" y="-70" on="1"/>
        <pt x="508" y="-70" on="1"/>
        <pt x="426" y="-220" on="1"/>
        <pt x="314" y="-220" on="1"/>
      </contour>
      <contour>
        <pt x="83" y="740" on="1"/>
        <pt x="201" y="740" on="1"/>
        <pt x="560" y="297" on="1"/>
        <pt x="625" y="210" on="1"/>
        <pt x="633" y="210" on="1"/>
        <pt x="633" y="740" on="1"/>
        <pt x="763" y="740" on="1"/>
        <pt x="763" y="0" on="1"/>
        <pt x="644" y="0" on="1"/>
        <pt x="290" y="437" on="1"/>
        <pt x="221" y="529" on="1"/>
        <pt x="213" y="529" on="1"/>
        <pt x="213" y="0" on="1"/>
        <pt x="83" y="0" on="1"/>
      </contour>
    </TTGlyph>
    <TTGlyph name="Ncommaaccent.sc" xMin="79" yMin="-172" xMax="675" yMax="577">
      <contour>
        <pt x="79" y="577" on="1"/>
        <pt x="187" y="577" on="1"/>
        <pt x="483" y="258" on="1"/>
        <pt x="542" y="190" on="1"/>
        <pt x="549" y="190" on="1"/>
        <pt x="549" y="577" on="1"/>
        <pt x="675" y="577" on="1"/>
        <pt x="675" y="0" on="1"/>
        <pt x="566" y="0" on="1"/>
        <pt x="276" y="311" on="1"/>
        <pt x="212" y="386" on="1"/>
        <pt x="204" y="386" on="1"/>
        <pt x="204" y="0" on="1"/>
        <pt x="79" y="0" on="1"/>
      </contour>
      <contour>
        <pt x="313" y="-55" on="1"/>
        <pt x="457" y="-55" on="1"/>
        <pt x="381" y="-172" on="1"/>
        <pt x="275" y="-172" on="1"/>
      </contour>
    </TTGlyph>
    <TTGlyph name="Ndotaccent" xMin="83" yMin="0" xMax="763" yMax="971">
      <contour>
        <pt x="425" y="809" on="1"/>
        <pt x="380" y="809" on="0"/>
        <pt x="341" y="847" on="0"/>
        <pt x="341" y="890" on="1"/>
        <pt x="341" y="932" on="0"/>
        <pt x="380" y="971" on="0"/>
        <pt x="425" y="971" on="1"/>
        <pt x="469" y="971" on="0"/>
        <pt x="508" y="932" on="0"/>
        <pt x="508" y="890" on="1"/>
        <pt x="508" y="848" on="0"/>
        <pt x="469" y="809" on="0"/>
      </contour>
      <contour>
        <pt x="83" y="740" on="1"/>
        <pt x="201" y="740" on="1"/>
        <pt x="560" y="297" on="1"/>
        <pt x="625" y="210" on="1"/>
        <pt x="633" y="210" on="1"/>
        <pt x="633" y="740" on="1"/>
        <pt x="763" y="740" on="1"/>
        <pt x="763" y="0" on="1"/>
        <pt x="644" y="0" on="1"/>
        <pt x="290" y="437" on="1"/>
        <pt x="221" y="529" on="1"/>
        <pt x="213" y="529" on="1"/>
        <pt x="213" y="0" on="1"/>
        <pt x="83" y="0" on="1"/>
      </contour>
    </TTGlyph>
</ttFont>
